<svg version="1.1" id="Layer_1" xmlns="http://www.w3.org/2000/svg" xmlns:xlink="http://www.w3.org/1999/xlink" x="0px" y="0px"
	 width="245px" height="245px" viewBox="24 0 245 245" enable-background="new 0 0 245 245" xml:space="preserve">
<path fill="#FAF0A7" id="head" (click)="clicked()" d="M42.327,121.151c-2.795,6.146-4.48,12.809-5.875,19.534c-1.089,5.255-1.74,10.666-1.766,16.039
	c-0.024,4.99,1.441,9.611,2.459,14.448c1.103,5.244,1.009,11.009,3.852,15.73c4.361,7.248,8.958,14.306,13.389,21.511l13.179,10.12
	c-10.794,6.724-20.148,15.949-26.118,25.912h168.156c-6.111-9.962-15.699-19.188-26.492-25.912l13.175-10.12
	c4.432-7.205,9.029-14.263,13.39-21.511c2.843-4.722,2.748-10.486,3.854-15.731c1.016-4.836,2.482-9.456,2.458-14.447
	c-0.027-5.372-0.675-10.782-1.766-16.039c-1.394-6.725-3.079-13.387-5.874-19.534c3.358-4.5,7.236-8.847,9.982-13.713
	c3.41-6.044,3.12-13.12,2.848-19.844c-0.279-6.838-1.677-13.482-5.806-19.089c-4.667-6.335-15.436-10.895-23.127-10.841
	c-6.549,0.047-14.909,1.789-20.628,5.102c-4.637,2.686-8.661,9.077-11.219,13.651c-4.194-1.636-8.487-2.977-12.781-4.089v0.313
	c-7.266-1.041-15.074-1.341-21.811-1.176c-7.276-0.166-15.09,0.136-22.353,1.176v-0.313c-4.692,1.297-9.791,2.9-14.787,4.925
	c0.555-0.25,1.108-0.499,1.662-0.739c-2.554-4.581-6.603-11.043-11.271-13.748c-5.72-3.312-14.08-5.055-20.628-5.101
	c-7.691-0.053-18.461,4.505-23.128,10.841c-4.129,5.606-5.527,12.251-5.806,19.088c-0.274,6.724-0.563,13.799,2.849,19.844
	C35.09,112.304,38.969,116.651,42.327,121.151z"/>
<path id="earRight" fill="#FDF189" d="M182.732,78.024c2.709-1.858,6.765-2.997,9.979-3.215c3.783-0.259,9.213,1.744,11.706,4.832
	c2.202,2.733,3.097,6.076,3.444,9.555c0.342,3.417,0.704,7.015-0.785,10.197c-1.271,2.713-3.189,5.167-4.752,7.712
	c-3.089-4.427-7.176-6.484-11.047-10.195c-1.09-1.046-2.214-2.061-3.382-3.043c-0.634-0.531-6.448-7.332-9.808-9.307
	c-1.112-0.655-1.881-1.001-1.981-0.789c0.057-0.124,0.122-0.243,0.189-0.362c0.093-0.163,0.191-0.322,0.302-0.48
	C177.998,80.927,180.785,79.36,182.732,78.024z"/>
<path id="earLeft" fill="#FDF189" d="M73.941,78.024c-2.709-1.858-6.766-2.997-9.982-3.215c-3.78-0.259-9.214,1.744-11.705,4.832
	c-2.204,2.733-3.097,6.076-3.445,9.555c-0.343,3.417-0.704,7.015,0.786,10.197c1.271,2.713,3.188,5.167,4.751,7.712
	c3.089-4.427,7.175-6.484,11.046-10.195c1.091-1.046,2.215-2.061,3.383-3.043c0.631-0.531,6.447-7.332,9.807-9.307
	c1.114-0.655,1.882-1.001,1.981-0.789c-0.056-0.124-0.122-0.243-0.19-0.362c-0.09-0.163-0.19-0.322-0.299-0.48
	C78.673,80.927,75.887,79.36,73.941,78.024z"/>
<path id="noseHill" fill="#FDF189" d="M172.875,146.362c-0.262,0.024-0.582-0.302-0.938-0.302c-0.001,0-0.001,0-0.001,0
	c-1.166,0-3.435-5.36-4.314-7.307c-0.143-0.283-0.251-0.741-0.339-0.913l-0.107-0.2c-0.821-1.16-1.575-2.332-2.163-3.491
	l-0.802-1.352l0.085-1.262c-2.685-2.26-5.397-3.907-8.863-5.692c-7.563-3.887-17.63-5.486-26.621-5.097
	c-9.539-0.39-19.525,1.209-27.088,5.097c-3.468,1.783-6.42,3.435-9.102,5.692l-0.036,1.262l-0.861,1.352
	c-0.589,1.159-1.372,2.331-2.193,3.491l-0.125,0.2c-0.086,0.172-0.202,0.63-0.343,0.913c-0.882,1.947-3.157,7.307-4.321,7.307
	c0,0,0,0-0.003,0c-0.357,0-0.677,0.326-0.938,0.302c-2.878,8.234-3.307,16.801-0.695,25.182c1.77,5.685,4.597,10.89,8.201,15.616
	c3.061,4.018,7.236,9.556,12.603,10.303c2.404,0.337,4.834,0.347,7.249,0.499c5.279,0.33,11.338,1.067,17.381,1.252v0.021
	c0.088-0.004,0.181-0.01,0.271-0.013c0.097,0.004,0.196,0.011,0.294,0.013v-0.022c5.52-0.189,11.633-0.921,16.898-1.251
	c2.416-0.152,4.365-0.161,6.767-0.499c5.369-0.747,9.543-6.285,12.603-10.303c3.606-4.727,6.431-9.932,8.202-15.616
	C176.182,163.162,175.754,154.597,172.875,146.362z"/>
<g id="eyeLeft">
	<path id="eyeBgLeft" fill="#FFFFFF" d="M77.049,136.76c0.05-4.557,3.709-8.211,8.177-8.164c2.855,0.03,5.351,1.567,6.767,3.86
		l-0.011,1.13l-2.25,3.705l1.976-3.142l0.85-1.353l0.014-1.262c-1.641-2.562-4.527-4.279-7.835-4.313
		c-5.173-0.054-9.407,4.025-9.461,9.111c-0.053,4.815,3.735,9.344,8.52,9.802c0.262,0.024,0.583-0.177,0.938-0.527
		C80.602,145.199,77.004,141.072,77.049,136.76z"/>
	<path id="eyeBallLeft" fill="#231F20" d="M91.982,133.587l0.011-1.131c-1.416-2.293-3.91-3.829-6.767-3.859
		c-4.468-0.048-8.128,3.834-8.175,8.389c-0.046,4.312,3.551,7.944,7.685,9.076l0,0c1.167,0,3.44-5.361,4.322-7.308
		c0.097-0.213,0.177-0.5,0.236-0.622l0.109-0.234l0.12-0.227l0.211-0.364L91.982,133.587z"/>
	
		<ellipse id="pupilLeft" transform="matrix(-0.9999 -0.0106 0.0106 -0.9999 167.5107 273.1581)" fill="#FFFFFF" cx="84.476" cy="136.137" rx="2.823" ry="3.15"/>
</g>
<g id="eyeRight">
	<path id="eyeBallRight" fill="#231F20" d="M166.938,137.298l0.212,0.354l0.121,0.207l0.107,0.197c0.06,0.123,0.14,0.484,0.236,0.695
		c0.881,1.947,3.154,7.309,4.319,7.309c0,0,0.002,0,0.003,0c4.133-1.133,7.731-4.765,7.685-9.077
		c-0.048-4.556-3.71-8.36-8.175-8.313c-2.859,0.029-5.353,1.529-6.77,3.822l0.013,1.111L166.938,137.298z"/>
	<path id="eyeBgRight" fill="#FFFFFF" d="M179.126,136.76c-0.048-4.557-3.711-8.211-8.175-8.164c-2.858,0.03-5.353,1.567-6.77,3.86
		l0.014,1.13l2.25,3.705l-1.977-3.142l-0.851-1.353l-0.012-1.262c1.639-2.562,4.527-4.279,7.834-4.313
		c5.171-0.054,9.406,4.025,9.462,9.111c0.05,4.815-3.737,9.344-8.521,9.802c-0.262,0.024-0.582-0.177-0.939-0.527
		C175.574,145.199,179.173,141.072,179.126,136.76z"/>
	
		<ellipse id="pupilRight" transform="matrix(-0.9999 -0.0104 0.0104 -0.9999 343.05 274.0194)" fill="#FFFFFF" cx="172.236" cy="136.119" rx="2.821" ry="3.151"/>
</g>
<path id="pip" fill="#231F20" d="M139.802,145.225c-0.169-1.438-0.661-2.736-1.937-3.436c-2.31-1.268-6.074,0.278-8.36,0.885
	c-3.259,0.865-8.895,0.625-11.071,3.514c-2.82,3.744-1.006,7.545,0.502,11.392c0,0,3.389,3.162,3.4,3.172
	c0.863,0.799,13.355,0.348,13.813-0.907c0-0.004,0.898-2.473,0.906-2.493C138.584,153.147,140.342,149.868,139.802,145.225z"/>
<path id="connector" d="M128.816,167.859c0,0-0.08,0.242-0.226,0.667c-0.082,0.208-0.139,0.472-0.204,0.773
	c-0.034,0.15-0.068,0.31-0.105,0.478c-0.022,0.172-0.048,0.353-0.074,0.538c-0.063,0.375-0.076,0.786-0.101,1.218
	c-0.022,0.433-0.007,0.892,0.001,1.362c0.043,0.945,0.143,1.948,0.289,2.95c0.29,2.002,0.713,3.994,0.956,5.53
	c0.058,0.385,0.12,0.735,0.155,1.056c0.039,0.32,0.084,0.591,0.096,0.825c0.039,0.467,0.063,0.734,0.063,0.734l-1.7,0.01
	c0,0,0.005-0.241,0.015-0.668c0.011-0.212-0.007-0.478-0.01-0.777c-0.001-0.301-0.027-0.649-0.044-1.023
	c-0.08-1.505-0.295-3.55-0.38-5.609c-0.041-1.031-0.036-2.067,0.021-3.035c0.042-0.483,0.076-0.951,0.145-1.39
	c0.072-0.439,0.129-0.854,0.232-1.229c0.046-0.188,0.089-0.367,0.132-0.538c0.054-0.17,0.106-0.327,0.157-0.476
	c0.1-0.3,0.184-0.559,0.289-0.757C128.709,168.093,128.816,167.859,128.816,167.859z"/>
<g id="mouth">
	<g id="open" visibility="hidden">
		<path id="mouthOpen" fill="#FFFFFF" d="M153.182,172.239c-3.9,1.851-6.48,4.13-10.537,5.726
			c-3.877,1.528-8.371,1.654-12.488,1.586h-1.89c-4.116,0.069-8.609,0.366-12.487-1.16c-4.059-1.6-6.636-4.301-10.538-6.151
			l-0.493-0.19c3.074,5.082,3.861,9.795,9.64,12.697c4.646,2.334,10.16,2.779,15.276,2.779h-0.906
			c5.114,0,10.632-0.447,15.276-2.779c5.778-2.902,6.565-7.614,9.641-12.697L153.182,172.239z"/>
		<path fill="#020000" d="M137.979,181.691c-5.229-2.556-12.731-1.104-17.793,1.125c-1.239,0.547-2.715,1.481-4.175,2.651
			c4.136,1.646,8.802,2.03,13.204,2.055c4.512-0.023,9.3-0.43,13.512-2.183C141.237,183.913,139.689,182.525,137.979,181.691z"/>
		<path id="tongue" fill="#E01E1E" d="M131.68,182.851c-4.447,0.577-5.807,0.523-8.4,4.35c1.984,0.229,3.984,0.312,5.932,0.322
			c2.828-0.015,5.766-0.179,8.601-0.73C135.637,184.497,133.119,182.664,131.68,182.851z"/>
	</g>
	<path id="smile_1_" fill="#050000" d="M152.887,172.685c-1.343,1.766-2.604,3.59-4.025,5.307c-0.711,0.859-1.477,1.68-2.323,2.425
		c-0.42,0.371-0.872,0.725-1.339,1.037l-1.373,0.942c-0.918,0.623-1.908,1.232-3.017,1.586c-0.55,0.18-1.118,0.298-1.686,0.373
		c-0.561,0.07-1.114,0.121-1.673,0.17c-2.221,0.188-4.439,0.235-6.62,0.467l-0.021,0.002h-0.022l-3.938,0.001h-0.021l-0.021-0.001
		c-2.182-0.235-4.398-0.28-6.621-0.469c-0.557-0.045-1.111-0.1-1.671-0.169c-0.571-0.075-1.136-0.194-1.687-0.373
		c-1.107-0.354-2.097-0.962-3.018-1.586l-1.373-0.942c-0.462-0.308-0.922-0.668-1.34-1.037c-0.846-0.744-1.611-1.566-2.322-2.424
		c-1.422-1.718-2.682-3.542-4.025-5.307c1.481,1.652,2.815,3.437,4.319,5.05c0.75,0.81,1.521,1.593,2.37,2.278
		c0.426,0.35,0.856,0.656,1.325,0.95l1.396,0.902c0.927,0.593,1.869,1.124,2.886,1.426c0.506,0.155,1.03,0.258,1.561,0.315
		c0.54,0.06,1.091,0.104,1.64,0.14c2.199,0.14,4.419,0.19,6.649,0.412l-0.043-0.003h3.939l-0.047,0.003
		c2.233-0.223,4.453-0.271,6.652-0.41c0.547-0.036,1.1-0.081,1.639-0.138c0.532-0.061,1.056-0.161,1.563-0.319
		c1.02-0.3,1.961-0.833,2.887-1.425l1.396-0.901c0.465-0.294,0.9-0.604,1.324-0.95c0.846-0.686,1.619-1.471,2.368-2.279
		C150.074,176.122,151.407,174.338,152.887,172.685z"/>
</g>
</svg>
