<svg version="1.1" id="Layer_1" xmlns="http://www.w3.org/2000/svg" xmlns:xlink="http://www.w3.org/1999/xlink" x="0px" y="0px"
	 width="245px" height="245px" viewBox="77.5 77.5 245 245" enable-background="new 77.5 77.5 245 245" xml:space="preserve">
<g>
	<path fill="#6D5F3D" d="M83.132,322.5h234.211c0.116-0.424,0.244-0.843,0.358-1.268c9.577-35.772,4.576-71.086-12.852-103.561
		c-7.382-13.761-16.546-26.871-28.699-36.838c-8.208-6.731-17.721-11.448-27.42-15.62c-15.765-6.782-28.608-13.186-46.773-12.115
		c-9.378,0.554-18.846,0.116-27.842,2.963c-8.373,2.649-14.502,5.765-22.374,9.151c-9.699,4.172-19.212,8.872-27.419,15.603
		c-12.155,9.969-21.316,23.084-28.701,36.848c-17.425,32.476-22.428,67.792-12.849,103.565
		C82.887,321.655,83.015,322.075,83.132,322.5z"/>
	<path fill="#F7E9D0" d="M246.184,312.912l-1-0.793c4.847-21.483,11.576-44.351,1.073-65.065
		c-8.866-17.486-26.28-32.081-46.127-20.603h-2.084c-19.846-11.479-37.26,3.116-46.128,20.603
		c-10.501,20.714-3.773,43.601,1.074,65.083l-1,0.783"/>
	<ellipse fill="#070707" cx="201.745" cy="272.385" rx="10.318" ry="9.789"/>
	<ellipse fill="#0A0A0A" cx="220.02" cy="248.742" rx="5.54" ry="4.009"/>
	<path fill="none" stroke="#000000" stroke-width="0.4023" stroke-miterlimit="10" d="M200.713,281.101
		c1.447,1.168,0.975,11.038,1.414,13.897l0.232-0.288"/>
	<path display="none" fill="none" stroke="#000000" stroke-width="0.6154" stroke-miterlimit="10" d="M201.745,294.688h0.759
		c-6.469,1.847-14.039,4.534-19.957,8.028"/>
	<g id="rightEar">
		<path fill="#F7E9D0" d="M251.218,190.824c4.867-5.597,2.87-14.83,8.655-19.692c5.522-4.644,14.769-3.642,19.621,1.476
			c6.688,7.053,3.91,18.089,4.442,26.798"/>
		<path fill="#EFE2A3" d="M271.064,196.188c4.031-2.555,1.403-7.58,1.045-11.236c-0.318-3.239-0.949-12.487,3.928-7.563
			c4.438,4.479-0.558,21.345,6.292,22.017"/>
	</g>
	<g id="leftEar">
		<path fill="#F7E9D0" d="M153.198,190.824c-4.865-5.597-2.87-14.83-8.653-19.692c-5.523-4.644-14.77-3.642-19.622,1.476
			c-6.688,7.053-3.909,18.089-4.443,26.798"/>
		<path fill="#EFE2A3" d="M133.353,196.188c-4.03-2.555-1.403-7.58-1.045-11.236c0.317-3.239,0.949-12.487-3.929-7.563
			c-4.438,4.479,0.557,21.479-6.29,22.151"/>
	</g>
	<path fill="#6D5F3D" d="M131.073,205.675c-4.502-3.433-5.891-11.349-10.013-15.982c6.946-0.44,10.045,2.346,15.954,5.052
		c-0.097-3.986-0.042-7.984-0.038-11.973c0.173,5.429,5.176,7.051,7.547,11.477c-0.149-6.183-0.507-10.385,3.1-15.23
		c0.397,7.933,3.229,15.025,3.834,22.365"/>
	<path fill="#6D5F3D" d="M272.312,206.144c4.505-3.554,5.893-11.748,10.017-16.544c-6.947-0.455-10.047,2.428-15.956,5.23
		c0.098-4.126,0.042-8.264,0.038-12.395c-0.173,5.621-5.175,7.299-7.548,11.882c0.149-6.401,0.508-10.752-3.099-15.768
		c-0.396,8.212-3.229,15.555-3.835,23.153"/>
	<g id="leftEye">
		<ellipse fill="#070707" cx="180.462" cy="248.742" rx="5.541" ry="4.009"/>
		<ellipse fill="#EFE2A3" cx="177.603" cy="249.044" rx="1.207" ry="0.966"/>
	</g>
	<g id="rightEye">
		<ellipse fill="#070707" cx="220.152" cy="248.742" rx="5.542" ry="4.009"/>
		<ellipse fill="#EFE2A3" cx="217.293" cy="249.044" rx="1.207" ry="0.966"/>
	</g>
	<g id="openMouth" visibility="hidden">
		<path stroke="#FFFEFD" stroke-width="0.6154" stroke-miterlimit="10" d="M222.258,304.433c-7.062-1.932-12.344-3.45-20.103-3.854
			c-8.138-0.423-13.689,0.108-20.924,1.802c7.236-2.047,12.787-7.896,20.924-7.384C209.914,295.484,215.196,302.099,222.258,304.433
			z"/>
		<path fill="#F90303" d="M200.104,298.381c-2.375,0.244-4.042,0.584-5.924,1.814c2.458-0.104,5.047-0.077,7.976,0.074
			c2.494,0.131,4.729,0.377,6.852,0.713c-0.081-0.062-0.16-0.125-0.243-0.186C205.965,298.772,203.547,298.028,200.104,298.381z"/>
	</g>
	<path fill="none" stroke="#000000" stroke-width="0.6154" stroke-miterlimit="10" d="M181.231,302.38
		c7.236-2.047,12.787-7.896,20.924-7.384c7.759,0.488,13.041,7.103,20.103,9.437"/>
	<path fill="#F7E9D0" d="M142.396,322.5c1.721-2.66,3.502-5.523,5.146-7.997c2.068-3.114,4.026-10.043,3.753-13.524v0.536
		c-4.334-6.138-16.488-1.146-21.99-0.534c-6.629,0.737-20.328,0.499-24.146,7.509c-1.717,3.15-0.92,9.088,1.297,14.011H142.396z"/>
	<path fill="#F7E9D0" d="M273.265,323.433c-5.489-11.337-17.943-27.741-28.215-18.297h-91.851
		c-10.272-9.445-22.725,6.96-28.215,18.297H273.265z"/>
	<g>
		<path fill="#EFE2A3" d="M142.955,322.5c1.503-2.344,3.031-4.782,4.453-6.924c2.068-3.116,4.027-10.042,3.755-13.524l-0.403,2.414
			c-6.145,6.295-11.352,14.987-19.874,17.685c-0.339,0.107-0.719,0.226-1.124,0.35H142.955z"/>
		<path fill="#EFE2A3" d="M105.484,321.477l-0.852-2.53C104.781,319.921,105.073,320.758,105.484,321.477z"/>
		<path fill="#EFE2A3" d="M105.87,322.5h0.363c-0.278-0.313-0.534-0.647-0.749-1.023l0.004,0.012
			C105.608,321.828,105.736,322.165,105.87,322.5z"/>
	</g>
	<path fill="#F7E9D0" d="M256.755,323.433h35.499c2.355-4.997,3.246-11.172,1.484-14.407c-3.819-7.01-17.519-6.772-24.148-7.51
		c-5.503-0.609-17.656-5.601-21.991,0.538l-0.002-0.539c-0.27,3.482,1.688,10.41,3.757,13.523
		C253.077,317.635,254.956,320.663,256.755,323.433z"/>
	<g>
		<path fill="#EFE2A3" d="M293.413,322.005c0.408-0.716,0.699-1.55,0.847-2.521L293.413,322.005z"/>
		<path fill="#EFE2A3" d="M292.284,323.433h0.578c0.192-0.464,0.377-0.933,0.544-1.407l0.007-0.021
			C293.104,322.549,292.722,323.021,292.284,323.433z"/>
		<path fill="#EFE2A3" d="M256.193,323.433h14.265c-0.933-0.271-1.766-0.528-2.451-0.745c-8.521-2.699-13.729-11.391-19.873-17.687
			l-0.4-2.415c-0.274,3.484,1.686,10.411,3.753,13.525C252.989,318.375,254.61,320.97,256.193,323.433z"/>
	</g>
</g>
</svg>
