<svg version="1.1" id="Layer_1" xmlns="http://www.w3.org/2000/svg" xmlns:xlink="http://www.w3.org/1999/xlink" x="0px" y="0px"
	 width="245.083px" height="249.5px" viewBox="0 0 245.083 249.5" enable-background="new 0 0 245.083 249.5" xml:space="preserve">
<path fill="#0F0F0F" d="M238.939,249.5c-2.132-8.449-4.922-16.282-8.264-24.128c-8.646-20.288-21.389-34.272-35.944-45.078
	L44.878,176c-13.975,16.629-28.562,34.4-33.715,60.139C10.236,240.771,9.119,245.159,8,249.5H238.939z"/>
<path id="head" d="M210.508,151.685c10.136-17.614,12.289-35.987,9.201-56.071c-1.91-12.421-7.677-23.819-11.612-35.652
	c-3.285-9.878-13.885-22.789-21.262-30.609c-10.447-11.075-15.876-16.758-30.473-20.833c-3.896-1.088-7.9-1.935-11.984-2.589
	c-10.313-1.653-21.141-2.082-32.04-2.082c0,0-14.771,3.112-20.352,4.67c-14.596,4.075-20.025,9.758-30.472,20.833
	c-7.377,7.821-17.978,20.731-21.263,30.609c-3.935,11.833-9.702,23.231-11.612,35.652c-3.088,20.083-0.933,38.457,9.201,56.071
	c0,0,1.149,3.861,1.15,3.865c2.664,7.68,6.969,15.442,12.782,21.18c6.364,6.28,13.623,11.592,20.834,16.858
	c5.631,4.113,10.99,4.377,17.387,5.998c8.584,2.176,16.894,4.659,25.798,5.423c5.851,0.502,11.81-0.232,17.515-0.51
	c5.606-0.271,10.869,1.218,16.488,1c10.791-0.418,26.098-3.255,33.986-11.1c5.377-5.349,7.772-12.006,10.391-18.813
	c2.225-5.786,5.982-7.994,10.025-12.045C207.537,160.198,208.176,155.738,210.508,151.685z"/>
<path id="leftBrow" fill="#EAAE36" d="M88.36,20.727C93.001,29.072,101.677,36,100.44,47l9.396-17.647
	c0.75-4.737-2.864-9.125-6.711-11.41L88.36,20.727z"/>
<path id="rightBrow" fill="#EAAE36" d="M158.935,20.727C154.294,29.072,145.622,36,146.854,47l-9.396-17.647
	c-0.751-4.737,2.864-9.125,6.712-11.41L158.935,20.727z"/>
<g id="leftEye">
	<circle fill="none" stroke="#000000" stroke-width="0.8525" stroke-miterlimit="10" cx="74.669" cy="78.144" r="11.403"/>
	<circle fill="#E08C2F" stroke="#000000" stroke-miterlimit="10" cx="74.669" cy="78.144" r="18.245"/>
	<circle cx="74.669" cy="78.144" r="11.403"/>
	<path fill="#FFFFFF" d="M77.622,79.927c0,3.099,2.247,5.667,5.2,6.18c2.008-2.056,3.25-4.863,3.25-7.964
		c0-1.544-0.311-3.016-0.867-4.359c-0.42-0.089-0.855-0.137-1.303-0.137C80.433,73.647,77.622,76.459,77.622,79.927z"/>
</g>
<g id="rightEye">
	<circle fill="none" stroke="#000000" stroke-width="0.8525" stroke-miterlimit="10" cx="173.669" cy="82.144" r="11.403"/>
	<circle fill="#E08C2F" cx="173.669" cy="82.144" r="18.245"/>
	<circle cx="173.669" cy="82.144" r="11.403"/>
	<path fill="#FFFFFF" d="M170.716,83.927c0,3.099-2.248,5.667-5.201,6.18c-2.008-2.056-3.248-4.863-3.248-7.964
		c0-1.544,0.313-3.016,0.866-4.359c0.421-0.089,0.854-0.137,1.304-0.137C167.903,77.647,170.716,80.459,170.716,83.927z"/>
</g>
<path fill="#232323" d="M124.006,175.5c1.724,1,8.864,2.318,11.254,2.721c3.149,0.529,7.071-3.382,9.47-5.007
	c4.66-3.159,3.221-3.553,3.824-8.282c0.579-4.521,3.797-4.937,5.428-8.91c7.107-17.313-19.316-20.521-29.985-20.521h0.595h0.729
	h0.568c-10.667,0-37.094,3.177-29.987,20.491c1.631,3.973,4.849,4.507,5.427,9.027c0.605,4.729-0.835,4.985,3.826,8.146
	c2.397,1.625,6.319,5.621,9.468,5.092c2.39-0.399,9.543-1.758,11.266-2.758L124.006,175.5L124.006,175.5z"/>
<path fill="#EAAE36" d="M201.749,141.433c5.945,5.223,4.654,19.853,3.634,26.823c-5.588,38.148-46.36,60.244-81.485,60.244h2.361
	c-35.124,0-75.897-22.096-81.486-60.244c-1.021-6.97-2.313-21.477,3.634-26.7l5.671,2.94c9.915,12.478,16.507,27.99,29.874,37.4
	c7.595,5.346,32.21,19.269,40.583,9.188l2.543,0.992c8.372,10.076,33.987-4.864,41.583-10.21
	c13.365-9.409,19.959-24.955,29.874-37.433L201.749,141.433z"/>
<path id="leftEar" fill="#0F0F0F" d="M34.798,145.877c-7.5-15.846-8.909-32.376-6.159-50.263
	c1.91-12.421,7.677-23.819,11.612-35.652c3.285-9.878,16.886-25.789,24.263-33.609L64.296,26.5
	c-8.313,1.409-19.388,6.284-27.111,10.387c-8.45,4.489-15.031,9.589-21.4,17.212C2.383,70.141,3.796,92.97,3.796,113
	c0,10.542-1.088,21.535,3.502,31.072c1.733,3.602,15.466,7.794,26.192-0.572"/>
<path id="rightEar" fill="#0F0F0F" d="M211.377,148.818c8.042-15.577,10.021-32.049,7.894-50.021
	c-1.479-12.479-6.85-24.069-10.373-36.032c-2.938-9.985-15.98-26.356-23.088-34.429l0.215,0.156
	c8.263,1.695,19.16,6.951,26.734,11.318c8.291,4.779,14.691,10.104,20.793,17.941c12.84,16.496,10.637,39.263,9.944,59.281
	c-0.364,10.535,0.344,21.559-4.573,30.932c-1.854,3.54-15.727,7.255-26.156-1.478"/>
<path fill="none" stroke="#000000" stroke-miterlimit="10" d="M124.796,191.5c1.389,8.318,0.338,15.059-3.5,22"/>
<path id="smile" fill="none" stroke="#000000" stroke-miterlimit="10" d="M153.935,222.949c-13.938,1.787-21.06-3.682-33.792-8.803
	c0,0-24.787,3.734-38.449,2.414"/>
<ellipse cx="114.918" cy="166.569" rx="5.198" ry="4.166"/>
<ellipse cx="136.718" cy="167.169" rx="5.198" ry="4.167"/>
<path fill="none" d="M54.796,197.5c-12.145,6.291-22.774,14.434-29.985,26.246c-3.655,5.988-6.522,11.96-8.39,18.752
	c-1.187,4.314-1.338,12.939-3.625,16.502"/>
<g id="openMouth">
	<path d="M121.14,214.146c0,0-9.555,1.438-20.068,2.217l-0.942,0.471c6.571,1.591,10.625,6.216,18,6.666
		c5.003,0.307,14.667-4,14.667-4c0.072-0.055,0.132-0.115,0.2-0.172C129.376,217.775,125.604,215.943,121.14,214.146z"/>
	<path fill="#ED2020" d="M118.129,223.5c1.775,0.107,4.138-0.367,6.446-1.021c-2.627-2.308-4.841-3.873-6.112-3.987
		c-3.245-0.306-5.239,1.487-7.517,3.134C113.08,222.579,115.372,223.332,118.129,223.5z"/>
</g>
</svg>
