<svg version="1.1" id="Layer_1" xmlns="http://www.w3.org/2000/svg" xmlns:xlink="http://www.w3.org/1999/xlink" x="0px" y="0px"
	 width="245px" height="245px" viewBox="77.5 77.5 245 245" enable-background="new 77.5 77.5 245 245" xml:space="preserve">
<g id="morgan">
	<path fill="#D8D8D8" d="M266.026,260.658c7.18,2.086,21.587,16.807,25.071,23.258c3.469,6.422,7.419,12.459,10.798,18.951
		c1.08,2.074,6.897,20.232,7.97,20.236H93.563c1.071-0.004,6.888-15.482,7.969-17.555c3.377-6.496,7.329-12.531,10.797-18.953
		c3.484-6.449,17.892-21.17,25.072-23.258"/>
	<path fill="#D8D8D8" d="M262.399,262.219"/>
	<path id="leftEar" fill="#000006" d="M136.205,112.745c-22.083-18.751-52.489-5.263-57.566,21.25
		c-2.246,11.721-1.335,23.507,4.201,34.179c3.024,5.831,15.91,26.681,23.584,25.788"/>
	<path id="rightEar" fill="#000006" d="M263.624,112.407c22.082-18.751,52.489-5.263,57.566,21.25
		c2.245,11.721,1.334,23.506-4.201,34.18c-3.024,5.829-15.91,26.68-23.586,25.789"/>
	<path id="head" fill="#D8D8D8" d="M241.289,273.488c12.837-2.443,21.469-11.211,30.457-20.303l0.188-0.004
		c13.22-12.82,19.184-27.414,21.099-45.82c2.392-23.008-1.193-50.276-10.714-71.422c-5.725-12.708-15.48-22.804-27.835-28.985
		c-13.235-6.621-26.184-5.954-40.26-8.422l-27.841,1.018c-14.076,2.468-27.025,1.8-40.259,8.422
		c-12.355,6.18-22.113,16.276-27.835,28.985c-9.521,21.147-13.107,48.414-10.714,71.422c1.914,18.406,7.879,32.998,21.099,45.82
		H128.6c0.238,2.021,4.399,3.518,6.006,4.83c2.291,1.871,4.313,3.688,6.853,5.322c4.457,2.869,10.481,6.793,15.567,7.783"/>
	<g>
		<g>
			<path fill="#FFFFFF" d="M250.089,181.272c6.095,1.028,9.838,3.605,14.626,7.267c5.537,4.232,8.146,8.519,9.722,14.899
				c1.283,5.207,1.548,10.855,2.311,15.98c0.813,5.463,1.113,12-1.954,16.104c-1.571,2.1-2.381,5.803-5.078,7.51l0.339-0.68
				c-3.211,7.338-11.106,13.877-17.936,17.26l0.338,0.678c2.643-9.385,3.891-20.262-1.521-28.92
				c-3.597-5.754-9.881-13.871-17.093-15.072l0.678,0.338C239.167,204.422,248.717,194.277,250.089,181.272z"/>
			<path fill="#000006" d="M269.378,244.385c0.272-2.523,1.864-5.445,2.445-8.053c3.438-15.498,3.533-35.514-10.83-45.744
				c-2.597-1.85-10.904-8.64-10.904-8.64c-0.185-3.384,2.907-7.833,3.983-10.913c1.265-3.616,2.771-7.253,4.064-10.606
				c2.751-7.137,4.218-14.883,6.843-22.282l1.353,1.343c14.738,14.301,20.353,35.563,21.659,52.788
				c0.762,10.076-0.028,18.544-2.481,28.341c-1.688,6.738-10.717,18.016-15.792,24.445L269.378,244.385z"/>
		</g>
	</g>
	<g>
		<g>
			<path fill="#FFFFFF" d="M150.029,179.919c-6.095,1.029-9.838,3.605-14.627,7.265c-5.537,4.235-8.146,8.519-9.721,14.902
				c-1.284,5.205-1.549,10.855-2.312,15.979c-0.812,5.461-1.114,12.002,1.955,16.104c1.571,2.1,2.38,5.805,5.078,7.51L130.063,241
				c3.21,7.338,11.107,13.875,17.936,17.258l-0.339,0.678c-2.644-9.383-3.89-20.262,1.521-28.916
				c3.597-5.76,9.883-13.875,17.092-15.076l-0.677,0.336C160.952,203.068,151.401,192.923,150.029,179.919z"/>
			<path fill="#000006" d="M130.74,243.031c-0.271-2.525-1.866-5.445-2.444-8.055c-3.439-15.496-3.533-35.513,10.83-45.743
				c2.596-1.849,10.903-8.638,10.903-8.638c0.184-3.384-2.909-7.835-3.984-10.915c-1.264-3.617-2.771-7.253-4.063-10.607
				c-2.753-7.136-4.22-14.883-6.842-22.282l-1.354,1.343c-14.739,14.302-20.354,35.563-21.659,52.788
				c-0.763,10.075,0.028,18.543,2.481,28.342c1.688,6.736,10.717,18.014,15.793,24.443L130.74,243.031z"/>
		</g>
	</g>
	<path fill="#EFEBDF" d="M184.575,210.863c-8.896,0.703-14.819,5.361-20.913,6.639c-9.125,1.912-16.543,10.43-19.387,18.213
		c-5.298,14.5,4.388,30.814,17.377,39.141c10.505,6.736,22.215,7.264,34.565,7.264h7.942c12.35,0,24.06-0.527,34.564-7.264
		c12.989-8.326,22.676-24.598,17.378-39.098c-2.845-7.781-10.261-14.631-19.386-16.541c-6.096-1.275-6.431-5.465-16.597-7.063
		C212.682,210.984,192.093,210.268,184.575,210.863z"/>
	<g id="leftEye">
		<circle fill="#000006" cx="159.421" cy="212.153" r="7.36"/>
		<ellipse fill="#FFFFFF" cx="159.505" cy="208.021" rx="1.651" ry="1.015"/>
	</g>
	<g id="rightEye">
		<circle fill="#000006" cx="240.695" cy="213.507" r="7.358"/>
		<ellipse fill="#FFFFFF" cx="240.613" cy="209.375" rx="1.65" ry="1.016"/>
	</g>
	<path fill="#9B5408" d="M210.825,267.264c-0.205-5.965-0.094-12.229-2.379-17.605c-1.577-3.715-2.916-2.861-6.795-2.9
		c-2.494-0.025-5.811-0.633-8.257,0.408l-0.746-0.795c-0.008,5.969-0.336,12.225,1.755,17.686c1.445,3.77,2.813,2.969,6.689,3.156
		c2.489,0.119,5.782,0.848,8.262-0.098L210.825,267.264z"/>
	<path fill="#EAE2CC" d="M256.041,242.271c-1.098,12.016-8.714,15.086-18.457,21.857c-10.504,7.301-21.573,12.041-33.923,12.041
		h-7.943c-12.35,0-24.056-2.797-34.562-10.098c-5.96-4.143-10.185-6.479-13.334-8.854c-2.655-3.238-4.504-6.74-4.894-10.451
		c-1.264,13.967,7.491,28.334,18.724,36.186c10.504,7.346,22.215,7.918,34.565,7.918h7.943c12.349,0,24.059-0.572,34.563-7.918
		c8.325-5.818,15.284-15.197,17.818-25.346C258.544,253.404,258.814,248.48,256.041,242.271z"/>
</g>
<path id="smile" fill="none" stroke="#000000" stroke-width="0.2403" stroke-miterlimit="10" d="M189.836,277.416
	c4.115,1.383,6.876,2.814,11.367,2.814c2.26,0,3.325,0.311,5.473-0.141c2.514-0.527,5.097-2.178,7.565-3.287"/>
<g id="mouthOpen" visibility="hidden">
	<path fill="#000006" d="M199.876,283.043c8.089,3.07,13.342-6.703,20.104-7.533c-8.851,2.008-24.416,2.754-37.052,0.506"/>
	<path fill="#EA133D" d="M199.876,283.043c3.063,1.162,5.719,0.482,8.205-0.855c-2.706-1.939-5.599-3.08-8.688-2.588
		c-1.842,0.291-3.342,0.742-4.63,1.322L199.876,283.043z"/>
</g>
</svg>
