<svg version="1.1" id="Layer_1" xmlns="http://www.w3.org/2000/svg" xmlns:xlink="http://www.w3.org/1999/xlink" x="0px" y="0px"
	 width="245px" height="245px" viewBox="77.5 77.5 245 245" enable-background="new 77.5 77.5 245 245" xml:space="preserve">
<path d="M136.747,283.43c-0.101,0.044-1.965,5.375-3.01,6.345c-4.175,3.868-17.11,7.071-22.727,9.903
	c-8.136,4.104-16.424,8.195-23.301,14.285c-2.797,2.477-5.346,5.188-7.709,8.037h85.834c1.692-2.317,3.081-5.065,4.214-8.646
	l-32.357-30.33C137.382,283.164,137.061,283.293,136.747,283.43z"/>
<path d="M313.813,315.967c-7.046-6.972-15.538-11.656-23.874-16.354c-5.756-3.244-19.01-6.91-23.288-11.338
	c-1.07-1.11-2.982-7.215-3.084-7.264c-0.322-0.155-0.651-0.305-0.968-0.467l-33.156,34.725c0.733,2.585,1.571,4.788,2.521,6.73
	h87.287C317.536,319.894,315.735,317.867,313.813,315.967z"/>
<path fill="#FFFFFF" d="M255.174,322c-4.427-14.207-11.319-29.089-16.438-33.709c-6.302-5.684-14.01-4.658-21.073-5.596
	c-11.038-1.467-22.271-4.314-33.602-4.452c-11.608-0.141-21.381-3.435-28.767,9.86c-3.66,6.591-7.053,14.247-9.908,21.761
	c-1.476,3.884-2.684,8.027-3.934,12.136H255.174z"/>
<path fill="#FFFFFF" d="M196.225,144.104c1.119,0.074,2.236,0.146,3.352,0.216c1.115-0.071,2.232-0.142,3.351-0.216H196.225z"/>
<path id="head" fill="#FFFFFF" d="M262.193,164.453c-16.582-17.391-39.144-18.642-62.617-20.133
	c-23.471,1.491-46.032,2.742-62.615,20.132c-15.008,15.741-31.456,45.042-30.889,67.583c0.279,11.08,8.129,23.547,14.75,33.137
	c0.225-0.018,0.45-0.033,0.687-0.033c6.144,0,8.49,5.879,7.048,10.38c10.398,12.607,21.5,21.066,35.118,31.448l71.803-0.045
	c16.406-12.508,29.164-22.252,41.433-39.799c6.86-9.814,15.871-23.388,16.17-35.272C293.647,209.311,277.2,180.194,262.193,164.453z
	"/>
<path fill="none" stroke="#000000" stroke-width="0.8123" stroke-miterlimit="10" d="M163.677,306.941"/>
<path fill="#DDDDDD" d="M234.828,308.19c-4.062,3.479-6.896,5.468-10.106,6.855c-7.171,3.101-16.102,6.142-24.011,6.954h-2.437
	c-7.909-0.813-16.839-3.852-24.011-6.954c-3.211-1.388-6.044-3.174-10.106-6.652l-0.48-0.315
	c-4.627-7.146-10.542-14.306-9.626-23.396c1.286-12.777,19.583-30.36,19.583-30.36c5.818-3.509,15.6-5.43,22.473-5.43h6.586
	c6.875,0,16.655,1.907,22.474,5.415c0,0,18.297,17.641,19.582,30.415c0.915,9.092-4.997,16.193-9.626,23.338"/>
<path d="M163.677,308.822c-4.627-7.145-10.542-14.298-9.626-23.389c1.286-12.776,14.016-20.559,20.529-30.583
	c-4.282-10.094-6.916-22.786-13.084-32.165l-1.635-1.09c-13.345,3.397-27.464,20.396-29.922,33.511
	c-3.073,16.395,2.776,25.91,13.567,37.361L163.677,308.822z"/>
<g id="leftEye">
	<circle fill="#393837" cx="162.667" cy="254.307" r="11.676"/>
	<circle fill="#1E1C1B" cx="162.464" cy="254.104" r="6.836"/>
	<circle fill="#FFFEFA" cx="164.15" cy="253.08" r="2.447"/>
</g>
<path d="M234.839,308.416c4.53-7.178,10.321-14.363,9.426-23.497c-1.261-12.837-13.725-20.655-20.102-30.727
	c4.191-10.141,6.771-22.893,12.811-32.313l1.603-1.096c13.067,3.412,26.892,20.492,29.297,33.666
	c3.01,16.471,0.798,28.509-13.284,37.535L234.839,308.416z"/>
<g id="rightEye">
	<circle fill="#393837" cx="236.077" cy="254.307" r="11.676"/>
	<circle fill="#1E1C1B" cx="236.28" cy="254.104" r="6.836"/>
	<circle fill="#FFFEFA" cx="234.592" cy="253.08" r="2.447"/>
</g>
<path d="M198.48,270.314c8.16-0.511,22.429,3.393,18.089,14.216c-2.968,7.406-11.474,12.537-17.839,16.783l-0.3-0.146
	c-5.636-5.179-13.246-11.56-15.039-19.335c-2.619-11.361,12.083-13.02,20.065-11.255"/>
<path fill="#F4F3F2" d="M204.831,275.227c-0.054,0.009-0.112,0.012-0.168,0.01c-0.97-0.017-1.899-0.259-2.797-0.495
	c-0.952-0.25-1.852-0.486-2.766-0.466c-1.001,0.019-1.955,0.296-2.962,0.59c-0.701,0.203-1.428,0.412-2.193,0.539
	c-0.444,0.07-0.85-0.136-0.912-0.469c-0.061-0.334,0.247-0.663,0.689-0.736c0.643-0.106,1.277-0.291,1.949-0.485
	c1.097-0.318,2.229-0.645,3.512-0.673c1.2-0.025,2.274,0.256,3.313,0.529c0.824,0.216,1.604,0.421,2.33,0.434
	c0.444,0.008,0.768,0.289,0.724,0.631C205.51,274.932,205.203,275.175,204.831,275.227z"/>
<path fill="#F4F3F2" d="M199.865,280.266c-2.746-1.563-6.965,2.521-2.391,5.26l0.073-0.104c1.358,1.107,4.197,0.508,5.041-0.872
	C203.73,282.673,201.944,280.08,199.865,280.266z"/>
<path id="rightEar" d="M292.014,239.229c12.874-7.868,26.575-16.689,26.738-33.458c0.138-14.148-7.011-34.72-20.151-41.899
	c-9.19-5.021-28.779-9.57-36.542-0.147c0,0,0.433,0.288,1.589,1.556c14.638,16.085,30.398,45.862,29.31,68.383
	c-0.088,1.835-0.388,3.704-0.853,5.591"/>
<path id="leftEar" d="M106.839,239.229c-12.875-7.868-26.575-16.689-26.738-33.458c-0.138-14.148,7.01-34.72,20.151-41.899
	c9.19-5.021,28.779-9.57,36.542-0.147c0,0-0.434,0.288-1.59,1.556c-14.639,16.085-30.398,45.862-29.31,68.383
	c0.088,1.835,0.387,3.704,0.853,5.591"/>
<path fill="none" stroke="#000407" stroke-width="0.8123" stroke-linejoin="round" stroke-miterlimit="10" d="M198.68,303.317
	c0,0,0.813,2.881,0.813,6.092c0,2.136-0.813,4.417-0.813,6.093"/>
<path id="smile" fill="none" stroke="#000407" stroke-width="0.8123" stroke-linejoin="round" stroke-miterlimit="10" d="
	M217.363,305.754c-2.405,2.945-4.076,6.186-7.402,8.012c-3.716,2.041-7.429,3.767-11.281,5.392h-0.812
	c-3.854-1.625-7.566-3.351-11.281-5.392c-3.329-1.826-4.998-4.965-7.402-7.91"/>
<g id="openMouth" visibility="hidden">
	<path d="M189.339,315.096c5.929-1.191,11.452-1.456,16.652,0.813l-0.356,0.304c-2.287,1.12-4.594,1.727-6.955,3.352h-0.812
		c-2.922-1.625-5.759-2.725-8.581-4.164L189.339,315.096z"/>
	<path fill="#E55555" d="M197.868,319.563h0.812c1.332-0.813,2.643-1.483,3.943-2.02c-0.92-0.376-1.912-0.606-2.996-0.647
		c-1.663-0.067-4.146-0.07-6.521,0.347C194.675,317.956,196.258,318.751,197.868,319.563z"/>
</g>
</svg>
