<svg version="1.1" id="Layer_1" xmlns="http://www.w3.org/2000/svg" xmlns:xlink="http://www.w3.org/1999/xlink" x="0px" y="0px"
	 width="245px" height="245px" viewBox="77.5 77.5 245 245" enable-background="new 77.5 77.5 245 245" xml:space="preserve">
<path id="leftEar" fill="#EFE9D0" d="M162.6,180.343c-12.469,2.581-27.207,19.276-33.447,29.804
	c-14.605,24.636-19.976,36.927-26.316,57.691c-1.829,5.993-4.966,16.536-6.267,22.649c-1.231,5.787-1.627,11.34-3.733,16.95
	c-1.501,4.003-5.699,13.329-0.273,15.08c23.572,7.605,32.048-14.48,34.833-19.611c6.771-12.474,12.806-19.665,23.161-29.119"/>
<path id="rightEar" fill="#EFE9D0" d="M242.738,180.343c12.469,2.581,25.363,19.276,31.604,29.804
	c14.607,24.636,19.979,36.927,26.316,57.691c1.831,5.993,4.967,16.536,6.269,22.649c1.23,5.787,1.625,11.34,3.732,16.95
	c1.499,4.003,5.698,13.329,0.274,15.08c-23.573,7.605-32.051-14.48-34.835-19.611c-6.771-12.474-12.807-19.665-23.158-29.119"/>
<path id="head" fill="#E5E2D6" d="M258.233,257.01c0-13.12,2.001-33.647-1.252-46.325c-2.915-11.359-7.086-27.358-16.377-33.746
	c-10.23-7.037-37.276-7.75-37.276-7.75c-11.453,1.518-26.723,0.713-36.955,7.75c-9.29,6.388-13.461,22.482-16.375,33.842
	c-3.252,12.676-3.753,33.109-3.753,46.229"/>
<path fill="#EFE9D0" d="M272.129,320.658c-0.267-10.481-3.73-16.729-8.966-25.043c-2.207-3.509-3.775-6.72-5.744-10.328
	c-1.994-3.655-5.018-6.134-7.028-9.657l-96.417-1.842c-1.862,1.319-2.145,4.238-3.355,6.357c-2.011,3.522-5.034,6.002-7.029,9.656
	c-1.969,3.609-3.535,6.821-5.744,10.327c-5.236,8.316-8.701,10.048-8.967,20.529"/>
<path fill="#CEBC72" d="M149.999,210.78c-3.186,12.416-3.731,32.268-3.752,45.405l51.708-26.904
	c0.953-11.056-2.955-24.695-8.052-34.378c-3.24-6.154-8.16-11.028-15.167-12.06c-5.515-0.812-12.664,0.533-16.802,4.513
	C154.155,194.647,151.828,203.646,149.999,210.78z"/>
<g id="rightEye">
	<path d="M238.159,236.27c2.104-3.77,6.238-16.24-0.754-19.25c-9.193-3.959-12.854,10.739-14.404,14.207"/>
	<path fill="#EDEBEB" d="M231.703,235.097c4.041-2.165-1.885-10.705-3.226-2.401"/>
</g>
<g id="leftEye">
	<path d="M170.75,235.625c-2.104-3.77-7.954-15.837-0.961-18.847c9.193-3.958,12.528,7.316,14.08,10.784"/>
	<path fill="#EDEBEB" d="M175.271,233.162c-4.041-2.165,1.883-10.707,3.225-2.402"/>
</g>
<path fill="#E2DCC3" d="M202.423,302.996c17.318,8.452,38.139,1.288,51.501-10.845c10.25-9.308,11.814-21.567,5.672-33.848
	c-5.207-10.406-15.762-19.59-26.427-23.677c-3.788-1.452-7.427-2.983-11.14-4.561c-7.707-3.271-15.737-3.593-24.277-3.593l0,0
	c-8.542,0-6.484-1.732-14.191,1.541c-3.713,1.576-8.472,5.19-12.26,6.642c-10.664,4.087-21.218,13.257-26.426,23.663
	c-6.145,12.281-4.577,24.534,5.671,33.842c13.363,12.132,33.468,21.282,50.786,12.831L202.423,302.996z"/>
<path d="M200.274,264.465c-5.752-1.95-12.161-6.748-13.121-13.026c-0.914-5.979,4.802-12.556,11.065-11.767
	c4.939,0.621,8.923-1.1,13.816,0.925c3.786,1.565,8.113,4.693,7.522,9.347c-1.151,9.066-12.026,13.307-19.579,15.18"/>
<path id="smile" fill="none" stroke="#000000" stroke-width="0.645" stroke-miterlimit="10" d="M222.356,296.256
	c-2.019-3.063-7.541-3.652-10.722-4.783c-3.039-1.081-8.566-4.553-10.24-7.472h0.321c-1.674,2.919-7.201,6.391-10.24,7.472
	c-3.182,1.131-8.704,1.721-10.723,4.783"/>
<path fill="none" stroke="#000000" stroke-width="0.645" stroke-miterlimit="10" d="M201.071,284.968
	c3.066-4.109,0.645-14.895,0.645-19.995"/>
<path display="none" d="M163.881,198.5c-3.064-5.844-12.984-24.479-2.8-29.145C174.473,163.218,176.74,186.624,179,192"/>
<path display="none" fill="#EDEBEB" d="M169.667,196c-6.264-3.357,2.253-14.194,4.333-1.319"/>
<g id="openMouth" visibility="hidden">
	<path d="M194.978,289.134c0.703,1.015,1.697,1.9,2.977,2.568c3.343,1.747,8.593,1.24,11.193-1.777
		c0.045-0.052,0.079-0.11,0.122-0.167c-2.864-1.498-6.305-3.955-7.713-6.154C200.331,285.52,197.566,287.629,194.978,289.134z"/>
	<path fill="#ED1155" d="M204.891,286.965c-1.404-1.082-2.628-2.252-3.336-3.36c-0.559,0.874-1.444,1.785-2.478,2.661
		C201.016,287.148,203.212,287.452,204.891,286.965z"/>
</g>
</svg>
