<svg version="1.1" id="Layer_1" xmlns="http://www.w3.org/2000/svg" xmlns:xlink="http://www.w3.org/1999/xlink" x="0px" y="0px"
	 width="245px" height="245px" viewBox="77.5 77.5 245 245" enable-background="new 77.5 77.5 245 245" xml:space="preserve">
<g>
	<path fill="#E2C79F" d="M81.64,322.425c11.573-26.815,34.189-48.326,57.573-51.373h129.381
		c23.384,3.047,45.999,24.565,57.572,51.381L81.64,322.425z"/>
	<g>
		<path id="rightEar" fill="#E2C79F" d="M254.979,141.575c5.701-4.181,17.779-5.048,24.395-3.45
			c5.893,1.425,11.182,7.018,14.801,11.566c7.289,9.158,10.729,27.62,3.033,37.381c-4.037,5.12-8.683,13.02-16.133,14.287"/>
		<path id="leftEar" fill="#E2C79F" d="M145.927,141.259c-5.701-4.181-17.78-5.048-24.395-3.45
			c-5.893,1.425-11.182,7.018-14.802,11.565c-7.288,9.158-10.729,27.62-3.032,37.381c4.036,5.12,8.683,13.019,16.133,14.287"/>
		<path id="head" fill="#EDD39F" d="M165.579,286.105c-30.69-11.155-58.989-36.756-52.682-73.053
			c2.451-14.111,0.726-28.922,6.417-42.137c4.392-10.197,11.007-18.934,20.025-25.496c9.666-7.034,22.156-14.551,34.404-15.11
			c-0.527,0.002-1.054-0.006-1.581,0.003c25.165-0.443,51.797-2.882,75.252,8.202c5.854,2.767,11.498,6.1,16.735,9.911
			c9.019,6.562,15.635,15.497,20.026,25.693c5.69,13.214,3.965,28.006,6.415,42.118c6.309,36.296-21.992,60.622-52.682,71.777"/>
		<g>
			<path fill="#070707" d="M258.787,214.719c0,3.364-1.992,6.25-4.83,7.483c-0.947,0.411-10.283-11.313-9.116-12.729
				c1.45-1.76,3.617-2.877,6.036-2.877C255.246,206.597,258.787,210.233,258.787,214.719z"/>
			<ellipse fill="#F4F2EF" cx="250.563" cy="210.244" rx="2.372" ry="2.057"/>
		</g>
		<g>
			<path fill="#070707" d="M148.891,214.719c0,3.364,1.992,6.25,4.83,7.483c0.947,0.411,10.283-11.313,9.116-12.729
				c-1.451-1.76-3.617-2.877-6.038-2.877C152.432,206.597,148.891,210.233,148.891,214.719z"/>
			<ellipse fill="#F4F2EF" cx="157.116" cy="210.244" rx="2.373" ry="2.057"/>
		</g>
		<g id="rightEye">
			<path fill="#070707" d="M259.338,214.781c0,4.037-2.391,7.5-5.797,8.98c-1.135,0.493-12.34-13.577-10.938-15.275
				c1.74-2.111,4.34-3.451,7.245-3.451C255.088,205.035,259.338,209.398,259.338,214.781z"/>
			<ellipse fill="#F4F2EF" cx="249.468" cy="209.412" rx="2.849" ry="2.467"/>
		</g>
		<g id="leftEye">
			<path fill="#070707" d="M145.81,214.465c0,4.037,2.39,7.502,5.795,8.98c1.135,0.493,12.339-13.577,10.94-15.275
				c-1.742-2.111-4.341-3.451-7.246-3.451C150.059,204.719,145.81,209.082,145.81,214.465z"/>
			<ellipse fill="#F4F2EF" cx="155.68" cy="209.096" rx="2.846" ry="2.467"/>
		</g>
		<path fill="#E2C79F" d="M203.797,278.728c-16.212,0.008-30.363,3.873-43.221-8.758c-9.312-9.147-13.749-23.038-12.55-36.135
			c1.299-14.141,10.336-23.556,21.563-30.02c23.632-13.61,58.075-11.768,77.206,9.921c4.625,5.241,8.058,13.23,8.717,20.402
			c1.199,13.096-3.238,26.988-12.55,36.136c-12.858,12.631-27.009,8.448-43.222,8.441"/>
		<path fill="#3B131C" d="M203.521,255.766c-4.002-3.587-10.467-8.598-12.886-13.551c-3.318-6.793,4.129-13.326,10.355-13.178
			l7.49,0.949c6.227-0.148,13.674,6.385,10.355,13.179c-2.42,4.952-10.148,9.331-14.15,12.917L203.521,255.766z"/>
		<path fill="none" stroke="#050101" stroke-width="0.6327" stroke-miterlimit="10" d="M204.173,254.517
			c1.121,7.944,0.507,16-0.554,23.915"/>
		<path fill="none" stroke="#020100" stroke-width="0.3164" stroke-miterlimit="10" d="M230.633,257.319
			c-0.71,11.118-18.849,16.789-27.205,20.879h-0.632c-8.356-4.09-26.494-9.761-27.205-20.879"/>
		<path id="smile" fill="none" stroke="#020100" stroke-width="0.3164" stroke-miterlimit="10" d="M230.633,257.319
			c-0.71,11.118-18.849,16.789-27.205,20.879h-0.632c-8.356-4.09-26.494-9.761-27.205-20.879"/>
		<g id="openMouth" visibility="hidden">
			<path fill="#020100" d="M203.6,268.31c-4.276,0.167-7.169,2.067-10.987,3.438c-0.982,0.352-1.782,0.338-2.671,0.599
				c4.692,2.359,9.542,4.23,12.854,5.853h0.632c3.135-1.534,7.644-3.29,12.095-5.473c-0.226-0.335-0.481-0.663-0.792-0.979
				C212.519,269.485,206.6,268.193,203.6,268.31z"/>
			<path fill="#F20808" d="M202.796,278.198h0.632c1.204-0.589,2.615-1.212,4.144-1.879c-2.019-1.546-4.19-2.197-6.409-1.245
				c-0.812,0.349-1.523,0.826-2.152,1.4C200.401,277.082,201.686,277.655,202.796,278.198z"/>
		</g>
	</g>
	<g opacity="0.69">
		<g>
			<path fill="#AE88B1" d="M227.355,293.828c-3.854,1.311-10.166,3.453-14.021,4.761l-2.688,0.914
				c-3.855,1.308-10.168,1.308-14.024,0l-2.686-0.914c-3.857-1.308-10.167-3.449-14.025-4.761l-12.549-4.258
				c-3.86-1.307-7.013-0.237-7.013,2.379v8.521c0,2.619,0,6.901,0,9.518v8.521c0,2.616,3.153,3.69,7.013,2.38l12.549-4.264
				c3.859-1.307,10.168-3.448,14.025-4.76l2.686-0.911c3.855-1.308,10.169-1.308,14.024,0l2.688,0.911
				c3.855,1.311,10.168,3.453,14.021,4.76l12.554,4.264c3.854,1.309,7.012,0.236,7.012-2.38v-8.521c0-2.616,0-6.898,0-9.518v-8.521
				c0-2.616-3.157-3.688-7.012-2.379L227.355,293.828z"/>
			<path fill="#AE88B1" d="M227.355,293.828c-3.854,1.311-10.166,3.453-14.021,4.761l-2.688,0.914
				c-3.855,1.308-10.168,1.308-14.024,0l-2.686-0.914c-3.857-1.308-10.167-3.449-14.025-4.761l-12.549-4.258
				c-3.86-1.307-7.013-0.237-7.013,2.379v8.521c0,2.619,0,6.901,0,9.518v8.521c0,2.616,3.153,3.69,7.013,2.38l12.549-4.264
				c3.859-1.307,10.168-3.448,14.025-4.76l2.686-0.911c3.855-1.308,10.169-1.308,14.024,0l2.688,0.911
				c3.855,1.311,10.168,3.453,14.021,4.76l12.554,4.264c3.854,1.309,7.012,0.236,7.012-2.38v-8.521c0-2.616,0-6.898,0-9.518v-8.521
				c0-2.616-3.157-3.688-7.012-2.379L227.355,293.828z"/>
			<path fill="#AE88B1" d="M227.355,293.828c-3.854,1.311-10.166,3.453-14.021,4.761l-2.688,0.914
				c-3.855,1.308-10.168,1.308-14.024,0l-2.686-0.914c-3.857-1.308-10.167-3.449-14.025-4.761l-12.549-4.258
				c-3.86-1.307-7.013-0.237-7.013,2.379v8.521c0,2.619,0,6.901,0,9.518v8.521c0,2.616,3.153,3.69,7.013,2.38l12.549-4.264
				c3.859-1.307,10.168-3.448,14.025-4.76l2.686-0.911c3.855-1.308,10.169-1.308,14.024,0l2.688,0.911
				c3.855,1.311,10.168,3.453,14.021,4.76l12.554,4.264c3.854,1.309,7.012,0.236,7.012-2.38v-8.521c0-2.616,0-6.898,0-9.518v-8.521
				c0-2.616-3.157-3.688-7.012-2.379L227.355,293.828z"/>
			<path fill="#AE88B1" d="M227.355,293.828c-3.854,1.311-10.166,3.453-14.021,4.761l-2.688,0.914
				c-3.855,1.308-10.168,1.308-14.024,0l-2.686-0.914c-3.857-1.308-10.167-3.449-14.025-4.761l-12.549-4.258
				c-3.86-1.307-7.013-0.237-7.013,2.379v8.521c0,2.619,0,6.901,0,9.518v8.521c0,2.616,3.153,3.69,7.013,2.38l12.549-4.264
				c3.859-1.307,10.168-3.448,14.025-4.76l2.686-0.911c3.855-1.308,10.169-1.308,14.024,0l2.688,0.911
				c3.855,1.311,10.168,3.453,14.021,4.76l12.554,4.264c3.854,1.309,7.012,0.236,7.012-2.38v-8.521c0-2.616,0-6.898,0-9.518v-8.521
				c0-2.616-3.157-3.688-7.012-2.379L227.355,293.828z"/>
		</g>
		<g>
			<path fill="#AE88B1" d="M227.355,293.828c-3.854,1.311-10.166,3.453-14.021,4.761l-2.688,0.914
				c-3.855,1.308-10.168,1.308-14.024,0l-2.686-0.914c-3.857-1.308-10.167-3.449-14.025-4.761l-12.549-4.258
				c-3.86-1.307-7.013-0.237-7.013,2.379v8.521c0,2.619,0,6.901,0,9.518v8.521c0,2.616,3.153,3.69,7.013,2.38l12.549-4.264
				c3.859-1.307,10.168-3.448,14.025-4.76l2.686-0.911c3.855-1.308,10.169-1.308,14.024,0l2.688,0.911
				c3.855,1.311,10.168,3.453,14.021,4.76l12.554,4.264c3.854,1.309,7.012,0.236,7.012-2.38v-8.521c0-2.616,0-6.898,0-9.518v-8.521
				c0-2.616-3.157-3.688-7.012-2.379L227.355,293.828z"/>
			<path fill="#AE88B1" d="M227.355,293.828c-3.854,1.311-10.166,3.453-14.021,4.761l-2.688,0.914
				c-3.855,1.308-10.168,1.308-14.024,0l-2.686-0.914c-3.857-1.308-10.167-3.449-14.025-4.761l-12.549-4.258
				c-3.86-1.307-7.013-0.237-7.013,2.379v8.521c0,2.619,0,6.901,0,9.518v8.521c0,2.616,3.153,3.69,7.013,2.38l12.549-4.264
				c3.859-1.307,10.168-3.448,14.025-4.76l2.686-0.911c3.855-1.308,10.169-1.308,14.024,0l2.688,0.911
				c3.855,1.311,10.168,3.453,14.021,4.76l12.554,4.264c3.854,1.309,7.012,0.236,7.012-2.38v-8.521c0-2.616,0-6.898,0-9.518v-8.521
				c0-2.616-3.157-3.688-7.012-2.379L227.355,293.828z"/>
			<path fill="#AE88B1" d="M227.355,293.828c-3.854,1.311-10.166,3.453-14.021,4.761l-2.688,0.914
				c-3.855,1.308-10.168,1.308-14.024,0l-2.686-0.914c-3.857-1.308-10.167-3.449-14.025-4.761l-12.549-4.258
				c-3.86-1.307-7.013-0.237-7.013,2.379v8.521c0,2.619,0,6.901,0,9.518v8.521c0,2.616,3.153,3.69,7.013,2.38l12.549-4.264
				c3.859-1.307,10.168-3.448,14.025-4.76l2.686-0.911c3.855-1.308,10.169-1.308,14.024,0l2.688,0.911
				c3.855,1.311,10.168,3.453,14.021,4.76l12.554,4.264c3.854,1.309,7.012,0.236,7.012-2.38v-8.521c0-2.616,0-6.898,0-9.518v-8.521
				c0-2.616-3.157-3.688-7.012-2.379L227.355,293.828z"/>
			<path fill="#AE88B1" d="M227.355,293.828c-3.854,1.311-10.166,3.453-14.021,4.761l-2.688,0.914
				c-3.855,1.308-10.168,1.308-14.024,0l-2.686-0.914c-3.857-1.308-10.167-3.449-14.025-4.761l-12.549-4.258
				c-3.86-1.307-7.013-0.237-7.013,2.379v8.521c0,2.619,0,6.901,0,9.518v8.521c0,2.616,3.153,3.69,7.013,2.38l12.549-4.264
				c3.859-1.307,10.168-3.448,14.025-4.76l2.686-0.911c3.855-1.308,10.169-1.308,14.024,0l2.688,0.911
				c3.855,1.311,10.168,3.453,14.021,4.76l12.554,4.264c3.854,1.309,7.012,0.236,7.012-2.38v-8.521c0-2.616,0-6.898,0-9.518v-8.521
				c0-2.616-3.157-3.688-7.012-2.379L227.355,293.828z"/>
		</g>
		<g opacity="0.69">
			<path fill="#AE88B1" d="M227.355,293.828c-3.854,1.311-10.166,3.453-14.021,4.761l-2.688,0.914
				c-3.855,1.308-10.168,1.308-14.024,0l-2.686-0.914c-3.857-1.308-10.167-3.449-14.025-4.761l-12.549-4.258
				c-3.86-1.307-7.013-0.237-7.013,2.379v8.521c0,2.619,0,6.901,0,9.518v8.521c0,2.616,3.153,3.69,7.013,2.38l12.549-4.264
				c3.859-1.307,10.168-3.448,14.025-4.76l2.686-0.911c3.855-1.308,10.169-1.308,14.024,0l2.688,0.911
				c3.855,1.311,10.168,3.453,14.021,4.76l12.554,4.264c3.854,1.309,7.012,0.236,7.012-2.38v-8.521c0-2.616,0-6.898,0-9.518v-8.521
				c0-2.616-3.157-3.688-7.012-2.379L227.355,293.828z"/>
			<path fill="#AE88B1" d="M227.355,293.828c-3.854,1.311-10.166,3.453-14.021,4.761l-2.688,0.914
				c-3.855,1.308-10.168,1.308-14.024,0l-2.686-0.914c-3.857-1.308-10.167-3.449-14.025-4.761l-12.549-4.258
				c-3.86-1.307-7.013-0.237-7.013,2.379v8.521c0,2.619,0,6.901,0,9.518v8.521c0,2.616,3.153,3.69,7.013,2.38l12.549-4.264
				c3.859-1.307,10.168-3.448,14.025-4.76l2.686-0.911c3.855-1.308,10.169-1.308,14.024,0l2.688,0.911
				c3.855,1.311,10.168,3.453,14.021,4.76l12.554,4.264c3.854,1.309,7.012,0.236,7.012-2.38v-8.521c0-2.616,0-6.898,0-9.518v-8.521
				c0-2.616-3.157-3.688-7.012-2.379L227.355,293.828z"/>
			<path fill="#AE88B1" d="M227.355,293.828c-3.854,1.311-10.166,3.453-14.021,4.761l-2.688,0.914
				c-3.855,1.308-10.168,1.308-14.024,0l-2.686-0.914c-3.857-1.308-10.167-3.449-14.025-4.761l-12.549-4.258
				c-3.86-1.307-7.013-0.237-7.013,2.379v8.521c0,2.619,0,6.901,0,9.518v8.521c0,2.616,3.153,3.69,7.013,2.38l12.549-4.264
				c3.859-1.307,10.168-3.448,14.025-4.76l2.686-0.911c3.855-1.308,10.169-1.308,14.024,0l2.688,0.911
				c3.855,1.311,10.168,3.453,14.021,4.76l12.554,4.264c3.854,1.309,7.012,0.236,7.012-2.38v-8.521c0-2.616,0-6.898,0-9.518v-8.521
				c0-2.616-3.157-3.688-7.012-2.379L227.355,293.828z"/>
			<path fill="#AE88B1" d="M227.355,293.828c-3.854,1.311-10.166,3.453-14.021,4.761l-2.688,0.914
				c-3.855,1.308-10.168,1.308-14.024,0l-2.686-0.914c-3.857-1.308-10.167-3.449-14.025-4.761l-12.549-4.258
				c-3.86-1.307-7.013-0.237-7.013,2.379v8.521c0,2.619,0,6.901,0,9.518v8.521c0,2.616,3.153,3.69,7.013,2.38l12.549-4.264
				c3.859-1.307,10.168-3.448,14.025-4.76l2.686-0.911c3.855-1.308,10.169-1.308,14.024,0l2.688,0.911
				c3.855,1.311,10.168,3.453,14.021,4.76l12.554,4.264c3.854,1.309,7.012,0.236,7.012-2.38v-8.521c0-2.616,0-6.898,0-9.518v-8.521
				c0-2.616-3.157-3.688-7.012-2.379L227.355,293.828z"/>
		</g>
		<g>
			<g>
				<path fill="#AE88B1" d="M243.022,321.828c-1.034,0-2.139-0.196-3.283-0.586l-29.262-9.934c-1.813-0.614-4.243-0.953-6.843-0.953
					s-5.029,0.339-6.842,0.953l-29.262,9.934c-1.146,0.39-2.252,0.586-3.285,0.586c-2.642,0-4.35-1.303-4.35-3.317v-26.562
					c0-2.015,1.706-3.315,4.348-3.315c1.034,0,2.14,0.195,3.287,0.586l29.262,9.934c1.812,0.614,4.242,0.952,6.842,0.952
					c2.602,0,5.029-0.339,6.843-0.952l2.687-0.914c3.855-1.309,10.168-3.451,14.021-4.761l12.555-4.259
					c1.146-0.391,2.25-0.586,3.285-0.586c2.641,0,4.348,1.302,4.348,3.315v26.562C247.373,320.525,245.665,321.828,243.022,321.828z
					 M203.635,309.597c2.713,0,5.265,0.358,7.182,1.009l29.262,9.935c1.038,0.352,2.027,0.53,2.944,0.53
					c2.124,0,3.444-0.981,3.444-2.56v-26.562c0-1.578-1.318-2.559-3.441-2.559c-0.918,0-1.908,0.18-2.947,0.532l-12.553,4.258
					c-3.854,1.31-10.167,3.453-14.022,4.761l-2.687,0.914c-1.918,0.648-4.469,1.007-7.182,1.007c-2.715,0-5.265-0.358-7.182-1.007
					l-29.262-9.934c-1.025-0.347-2.044-0.531-2.949-0.531c-2.124,0-3.443,0.979-3.443,2.558v26.561c0,1.58,1.32,2.561,3.446,2.561
					c0.917,0,1.908-0.179,2.946-0.531l29.262-9.934C198.371,309.955,200.921,309.597,203.635,309.597z"/>
			</g>
			<g>
				<path fill="#AE88B1" d="M243.022,321.828c-1.034,0-2.139-0.196-3.283-0.586l-29.262-9.934c-1.813-0.614-4.243-0.953-6.843-0.953
					s-5.029,0.339-6.842,0.953l-29.262,9.934c-1.146,0.39-2.252,0.586-3.285,0.586c-2.642,0-4.35-1.303-4.35-3.317v-26.562
					c0-2.015,1.706-3.315,4.348-3.315c1.034,0,2.14,0.195,3.287,0.586l29.262,9.934c1.812,0.614,4.242,0.952,6.842,0.952
					c2.602,0,5.029-0.339,6.843-0.952l2.687-0.914c3.855-1.309,10.168-3.451,14.021-4.761l12.555-4.259
					c1.146-0.391,2.25-0.586,3.285-0.586c2.641,0,4.348,1.302,4.348,3.315v26.562C247.373,320.525,245.665,321.828,243.022,321.828z
					 M203.635,309.597c2.713,0,5.265,0.358,7.182,1.009l29.262,9.935c1.038,0.352,2.027,0.53,2.944,0.53
					c2.124,0,3.444-0.981,3.444-2.56v-26.562c0-1.578-1.318-2.559-3.441-2.559c-0.918,0-1.908,0.18-2.947,0.532l-12.553,4.258
					c-3.854,1.31-10.167,3.453-14.022,4.761l-2.687,0.914c-1.918,0.648-4.469,1.007-7.182,1.007c-2.715,0-5.265-0.358-7.182-1.007
					l-29.262-9.934c-1.025-0.347-2.044-0.531-2.949-0.531c-2.124,0-3.443,0.979-3.443,2.558v26.561c0,1.58,1.32,2.561,3.446,2.561
					c0.917,0,1.908-0.179,2.946-0.531l29.262-9.934C198.371,309.955,200.921,309.597,203.635,309.597z"/>
			</g>
			<g>
				<path fill="#AE88B1" d="M243.022,321.828c-1.034,0-2.139-0.196-3.283-0.586l-29.262-9.934c-1.813-0.614-4.243-0.953-6.843-0.953
					s-5.029,0.339-6.842,0.953l-29.262,9.934c-1.146,0.39-2.252,0.586-3.285,0.586c-2.642,0-4.35-1.303-4.35-3.317v-26.562
					c0-2.015,1.706-3.315,4.348-3.315c1.034,0,2.14,0.195,3.287,0.586l29.262,9.934c1.812,0.614,4.242,0.952,6.842,0.952
					c2.602,0,5.029-0.339,6.843-0.952l2.687-0.914c3.855-1.309,10.168-3.451,14.021-4.761l12.555-4.259
					c1.146-0.391,2.25-0.586,3.285-0.586c2.641,0,4.348,1.302,4.348,3.315v26.562C247.373,320.525,245.665,321.828,243.022,321.828z
					 M203.635,309.597c2.713,0,5.265,0.358,7.182,1.009l29.262,9.935c1.038,0.352,2.027,0.53,2.944,0.53
					c2.124,0,3.444-0.981,3.444-2.56v-26.562c0-1.578-1.318-2.559-3.441-2.559c-0.918,0-1.908,0.18-2.947,0.532l-12.553,4.258
					c-3.854,1.31-10.167,3.453-14.022,4.761l-2.687,0.914c-1.918,0.648-4.469,1.007-7.182,1.007c-2.715,0-5.265-0.358-7.182-1.007
					l-29.262-9.934c-1.025-0.347-2.044-0.531-2.949-0.531c-2.124,0-3.443,0.979-3.443,2.558v26.561c0,1.58,1.32,2.561,3.446,2.561
					c0.917,0,1.908-0.179,2.946-0.531l29.262-9.934C198.371,309.955,200.921,309.597,203.635,309.597z"/>
			</g>
			<g>
				<path fill="#AE88B1" d="M243.022,321.828c-1.034,0-2.139-0.196-3.283-0.586l-29.262-9.934c-1.813-0.614-4.243-0.953-6.843-0.953
					s-5.029,0.339-6.842,0.953l-29.262,9.934c-1.146,0.39-2.252,0.586-3.285,0.586c-2.642,0-4.35-1.303-4.35-3.317v-26.562
					c0-2.015,1.706-3.315,4.348-3.315c1.034,0,2.14,0.195,3.287,0.586l29.262,9.934c1.812,0.614,4.242,0.952,6.842,0.952
					c2.602,0,5.029-0.339,6.843-0.952l2.687-0.914c3.855-1.309,10.168-3.451,14.021-4.761l12.555-4.259
					c1.146-0.391,2.25-0.586,3.285-0.586c2.641,0,4.348,1.302,4.348,3.315v26.562C247.373,320.525,245.665,321.828,243.022,321.828z
					 M203.635,309.597c2.713,0,5.265,0.358,7.182,1.009l29.262,9.935c1.038,0.352,2.027,0.53,2.944,0.53
					c2.124,0,3.444-0.981,3.444-2.56v-26.562c0-1.578-1.318-2.559-3.441-2.559c-0.918,0-1.908,0.18-2.947,0.532l-12.553,4.258
					c-3.854,1.31-10.167,3.453-14.022,4.761l-2.687,0.914c-1.918,0.648-4.469,1.007-7.182,1.007c-2.715,0-5.265-0.358-7.182-1.007
					l-29.262-9.934c-1.025-0.347-2.044-0.531-2.949-0.531c-2.124,0-3.443,0.979-3.443,2.558v26.561c0,1.58,1.32,2.561,3.446,2.561
					c0.917,0,1.908-0.179,2.946-0.531l29.262-9.934C198.371,309.955,200.921,309.597,203.635,309.597z"/>
			</g>
		</g>
		<g>
			<path fill="#AE88B1" d="M227.355,293.828c-3.854,1.311-10.166,3.453-14.021,4.761l-2.688,0.914
				c-3.855,1.308-10.168,1.308-14.024,0l-2.686-0.914c-3.857-1.308-10.167-3.449-14.025-4.761l-12.549-4.258
				c-3.86-1.307-7.013-0.237-7.013,2.379v8.521c0,2.619,0,6.901,0,9.518v8.521c0,2.616,3.153,3.69,7.013,2.38l12.549-4.264
				c3.859-1.307,10.168-3.448,14.025-4.76l2.686-0.911c3.855-1.308,10.169-1.308,14.024,0l2.688,0.911
				c3.855,1.311,10.168,3.453,14.021,4.76l12.554,4.264c3.854,1.309,7.012,0.236,7.012-2.38v-8.521c0-2.616,0-6.898,0-9.518v-8.521
				c0-2.616-3.157-3.688-7.012-2.379L227.355,293.828z"/>
			<path fill="#AE88B1" d="M227.355,293.828c-3.854,1.311-10.166,3.453-14.021,4.761l-2.688,0.914
				c-3.855,1.308-10.168,1.308-14.024,0l-2.686-0.914c-3.857-1.308-10.167-3.449-14.025-4.761l-12.549-4.258
				c-3.86-1.307-7.013-0.237-7.013,2.379v8.521c0,2.619,0,6.901,0,9.518v8.521c0,2.616,3.153,3.69,7.013,2.38l12.549-4.264
				c3.859-1.307,10.168-3.448,14.025-4.76l2.686-0.911c3.855-1.308,10.169-1.308,14.024,0l2.688,0.911
				c3.855,1.311,10.168,3.453,14.021,4.76l12.554,4.264c3.854,1.309,7.012,0.236,7.012-2.38v-8.521c0-2.616,0-6.898,0-9.518v-8.521
				c0-2.616-3.157-3.688-7.012-2.379L227.355,293.828z"/>
			<path opacity="0.69" fill="#AE88B1" enable-background="new    " d="M227.355,293.828c-3.854,1.311-10.166,3.453-14.021,4.761
				l-2.688,0.914c-3.855,1.308-10.168,1.308-14.024,0l-2.686-0.914c-3.857-1.308-10.167-3.449-14.025-4.761l-12.549-4.258
				c-3.86-1.307-7.013-0.237-7.013,2.379v8.521c0,2.619,0,6.901,0,9.518v8.521c0,2.616,3.153,3.69,7.013,2.38l12.549-4.264
				c3.859-1.307,10.168-3.448,14.025-4.76l2.686-0.911c3.855-1.308,10.169-1.308,14.024,0l2.688,0.911
				c3.855,1.311,10.168,3.453,14.021,4.76l12.554,4.264c3.854,1.309,7.012,0.236,7.012-2.38v-8.521c0-2.616,0-6.898,0-9.518v-8.521
				c0-2.616-3.157-3.688-7.012-2.379L227.355,293.828z"/>
			<g>
				<path fill="#AE88B1" d="M243.022,321.664c-1.008,0-2.089-0.193-3.21-0.574l-29.262-9.935c-1.836-0.623-4.291-0.965-6.916-0.965
					c-2.626,0-5.081,0.343-6.916,0.965l-4.012,1.361c-3.864,1.311-9.257,3.143-12.701,4.31l-12.549,4.262
					c-1.124,0.381-2.204,0.574-3.212,0.574c-2.523,0-4.153-1.237-4.153-3.154v-26.561c0-1.915,1.63-3.151,4.151-3.151
					c1.008,0,2.09,0.192,3.214,0.573l15.154,5.142c3.708,1.259,8.343,2.832,11.419,3.875l2.688,0.916
					c1.834,0.621,4.29,0.964,6.916,0.964c2.625,0,5.08-0.343,6.916-0.965l2.687-0.915c3.856-1.308,10.168-3.449,14.022-4.76
					l12.555-4.258c1.122-0.382,2.203-0.573,3.211-0.573c2.521,0,4.151,1.235,4.151,3.151v26.561
					C247.176,320.426,245.545,321.664,243.022,321.664z M203.635,309.762c2.688,0,5.215,0.354,7.108,0.996l29.262,9.934
					c1.06,0.36,2.075,0.545,3.018,0.545c2.247,0,3.642-1.045,3.642-2.726v-26.562c0-1.679-1.394-2.724-3.639-2.724
					c-0.942,0-1.959,0.184-3.021,0.545l-12.554,4.258c-3.854,1.308-10.167,3.452-14.023,4.76l-2.685,0.915
					c-1.895,0.643-4.42,0.996-7.108,0.996c-2.689,0-5.214-0.354-7.108-0.996l-2.687-0.915c-3.077-1.043-7.713-2.617-11.42-3.875
					l-15.155-5.142c-1.064-0.361-2.08-0.544-3.022-0.544c-2.246,0-3.64,1.044-3.64,2.724v26.561c0,1.681,1.396,2.726,3.643,2.726
					c0.942,0,1.958-0.183,3.021-0.545l12.549-4.261c3.442-1.168,8.837-2.999,12.7-4.31l4.012-1.362
					C198.422,310.116,200.946,309.762,203.635,309.762z"/>
			</g>
		</g>
	</g>
	<g>
		<g>
			<g>
				<path fill="#90789C" d="M221.804,292.773c-2.955,1.432-7.788,3.771-10.743,5.201l-2.056,0.996
					c-2.954,1.432-7.788,1.432-10.739,0l-2.058-0.996c-2.955-1.43-7.79-3.771-10.744-5.201l-9.611-4.656
					c-2.955-1.429-5.371-0.259-5.371,2.602v9.311c0,2.858,0,7.541,0,10.4v9.308c0,2.86,2.417,4.034,5.371,2.602l9.611-4.654
					c2.954-1.431,7.789-3.772,10.744-5.2l2.058-0.997c2.951-1.432,7.785-1.432,10.739,0l2.056,0.997
					c2.955,1.428,7.788,3.77,10.743,5.2l9.613,4.654c2.952,1.435,5.37,0.26,5.37-2.602v-9.308c0-2.859,0-7.542,0-10.4v-9.311
					c0-2.859-2.419-4.029-5.37-2.602L221.804,292.773z"/>
				<path fill="#90789C" d="M221.804,292.773c-2.955,1.432-7.788,3.771-10.743,5.201l-2.056,0.996
					c-2.954,1.432-7.788,1.432-10.739,0l-2.058-0.996c-2.955-1.43-7.79-3.771-10.744-5.201l-9.611-4.656
					c-2.955-1.429-5.371-0.259-5.371,2.602v9.311c0,2.858,0,7.541,0,10.4v9.308c0,2.86,2.417,4.034,5.371,2.602l9.611-4.654
					c2.954-1.431,7.789-3.772,10.744-5.2l2.058-0.997c2.951-1.432,7.785-1.432,10.739,0l2.056,0.997
					c2.955,1.428,7.788,3.77,10.743,5.2l9.613,4.654c2.952,1.435,5.37,0.26,5.37-2.602v-9.308c0-2.859,0-7.542,0-10.4v-9.311
					c0-2.859-2.419-4.029-5.37-2.602L221.804,292.773z"/>
				<path fill="#90789C" d="M221.804,292.773c-2.955,1.432-7.788,3.771-10.743,5.201l-2.056,0.996
					c-2.954,1.432-7.788,1.432-10.739,0l-2.058-0.996c-2.955-1.43-7.79-3.771-10.744-5.201l-9.611-4.656
					c-2.955-1.429-5.371-0.259-5.371,2.602v9.311c0,2.858,0,7.541,0,10.4v9.308c0,2.86,2.417,4.034,5.371,2.602l9.611-4.654
					c2.954-1.431,7.789-3.772,10.744-5.2l2.058-0.997c2.951-1.432,7.785-1.432,10.739,0l2.056,0.997
					c2.955,1.428,7.788,3.77,10.743,5.2l9.613,4.654c2.952,1.435,5.37,0.26,5.37-2.602v-9.308c0-2.859,0-7.542,0-10.4v-9.311
					c0-2.859-2.419-4.029-5.37-2.602L221.804,292.773z"/>
				<path fill="#90789C" d="M221.804,292.773c-2.955,1.432-7.788,3.771-10.743,5.201l-2.056,0.996
					c-2.954,1.432-7.788,1.432-10.739,0l-2.058-0.996c-2.955-1.43-7.79-3.771-10.744-5.201l-9.611-4.656
					c-2.955-1.429-5.371-0.259-5.371,2.602v9.311c0,2.858,0,7.541,0,10.4v9.308c0,2.86,2.417,4.034,5.371,2.602l9.611-4.654
					c2.954-1.431,7.789-3.772,10.744-5.2l2.058-0.997c2.951-1.432,7.785-1.432,10.739,0l2.056,0.997
					c2.955,1.428,7.788,3.77,10.743,5.2l9.613,4.654c2.952,1.435,5.37,0.26,5.37-2.602v-9.308c0-2.859,0-7.542,0-10.4v-9.311
					c0-2.859-2.419-4.029-5.37-2.602L221.804,292.773z"/>
			</g>
			<g>
				<path fill="#90789C" d="M221.804,292.773c-2.955,1.432-7.788,3.771-10.743,5.201l-2.056,0.996
					c-2.954,1.432-7.788,1.432-10.739,0l-2.058-0.996c-2.955-1.43-7.79-3.771-10.744-5.201l-9.611-4.656
					c-2.955-1.429-5.371-0.259-5.371,2.602v9.311c0,2.858,0,7.541,0,10.4v9.308c0,2.86,2.417,4.034,5.371,2.602l9.611-4.654
					c2.954-1.431,7.789-3.772,10.744-5.2l2.058-0.997c2.951-1.432,7.785-1.432,10.739,0l2.056,0.997
					c2.955,1.428,7.788,3.77,10.743,5.2l9.613,4.654c2.952,1.435,5.37,0.26,5.37-2.602v-9.308c0-2.859,0-7.542,0-10.4v-9.311
					c0-2.859-2.419-4.029-5.37-2.602L221.804,292.773z"/>
				<path fill="#90789C" d="M221.804,292.773c-2.955,1.432-7.788,3.771-10.743,5.201l-2.056,0.996
					c-2.954,1.432-7.788,1.432-10.739,0l-2.058-0.996c-2.955-1.43-7.79-3.771-10.744-5.201l-9.611-4.656
					c-2.955-1.429-5.371-0.259-5.371,2.602v9.311c0,2.858,0,7.541,0,10.4v9.308c0,2.86,2.417,4.034,5.371,2.602l9.611-4.654
					c2.954-1.431,7.789-3.772,10.744-5.2l2.058-0.997c2.951-1.432,7.785-1.432,10.739,0l2.056,0.997
					c2.955,1.428,7.788,3.77,10.743,5.2l9.613,4.654c2.952,1.435,5.37,0.26,5.37-2.602v-9.308c0-2.859,0-7.542,0-10.4v-9.311
					c0-2.859-2.419-4.029-5.37-2.602L221.804,292.773z"/>
				<path fill="#90789C" d="M221.804,292.773c-2.955,1.432-7.788,3.771-10.743,5.201l-2.056,0.996
					c-2.954,1.432-7.788,1.432-10.739,0l-2.058-0.996c-2.955-1.43-7.79-3.771-10.744-5.201l-9.611-4.656
					c-2.955-1.429-5.371-0.259-5.371,2.602v9.311c0,2.858,0,7.541,0,10.4v9.308c0,2.86,2.417,4.034,5.371,2.602l9.611-4.654
					c2.954-1.431,7.789-3.772,10.744-5.2l2.058-0.997c2.951-1.432,7.785-1.432,10.739,0l2.056,0.997
					c2.955,1.428,7.788,3.77,10.743,5.2l9.613,4.654c2.952,1.435,5.37,0.26,5.37-2.602v-9.308c0-2.859,0-7.542,0-10.4v-9.311
					c0-2.859-2.419-4.029-5.37-2.602L221.804,292.773z"/>
				<path fill="#90789C" d="M221.804,292.773c-2.955,1.432-7.788,3.771-10.743,5.201l-2.056,0.996
					c-2.954,1.432-7.788,1.432-10.739,0l-2.058-0.996c-2.955-1.43-7.79-3.771-10.744-5.201l-9.611-4.656
					c-2.955-1.429-5.371-0.259-5.371,2.602v9.311c0,2.858,0,7.541,0,10.4v9.308c0,2.86,2.417,4.034,5.371,2.602l9.611-4.654
					c2.954-1.431,7.789-3.772,10.744-5.2l2.058-0.997c2.951-1.432,7.785-1.432,10.739,0l2.056,0.997
					c2.955,1.428,7.788,3.77,10.743,5.2l9.613,4.654c2.952,1.435,5.37,0.26,5.37-2.602v-9.308c0-2.859,0-7.542,0-10.4v-9.311
					c0-2.859-2.419-4.029-5.37-2.602L221.804,292.773z"/>
			</g>
			<g opacity="0.69">
				<path fill="#90789C" d="M221.804,292.773c-2.955,1.432-7.788,3.771-10.743,5.201l-2.056,0.996
					c-2.954,1.432-7.788,1.432-10.739,0l-2.058-0.996c-2.955-1.43-7.79-3.771-10.744-5.201l-9.611-4.656
					c-2.955-1.429-5.371-0.259-5.371,2.602v9.311c0,2.858,0,7.541,0,10.4v9.308c0,2.86,2.417,4.034,5.371,2.602l9.611-4.654
					c2.954-1.431,7.789-3.772,10.744-5.2l2.058-0.997c2.951-1.432,7.785-1.432,10.739,0l2.056,0.997
					c2.955,1.428,7.788,3.77,10.743,5.2l9.613,4.654c2.952,1.435,5.37,0.26,5.37-2.602v-9.308c0-2.859,0-7.542,0-10.4v-9.311
					c0-2.859-2.419-4.029-5.37-2.602L221.804,292.773z"/>
				<path fill="#90789C" d="M221.804,292.773c-2.955,1.432-7.788,3.771-10.743,5.201l-2.056,0.996
					c-2.954,1.432-7.788,1.432-10.739,0l-2.058-0.996c-2.955-1.43-7.79-3.771-10.744-5.201l-9.611-4.656
					c-2.955-1.429-5.371-0.259-5.371,2.602v9.311c0,2.858,0,7.541,0,10.4v9.308c0,2.86,2.417,4.034,5.371,2.602l9.611-4.654
					c2.954-1.431,7.789-3.772,10.744-5.2l2.058-0.997c2.951-1.432,7.785-1.432,10.739,0l2.056,0.997
					c2.955,1.428,7.788,3.77,10.743,5.2l9.613,4.654c2.952,1.435,5.37,0.26,5.37-2.602v-9.308c0-2.859,0-7.542,0-10.4v-9.311
					c0-2.859-2.419-4.029-5.37-2.602L221.804,292.773z"/>
				<path fill="#90789C" d="M221.804,292.773c-2.955,1.432-7.788,3.771-10.743,5.201l-2.056,0.996
					c-2.954,1.432-7.788,1.432-10.739,0l-2.058-0.996c-2.955-1.43-7.79-3.771-10.744-5.201l-9.611-4.656
					c-2.955-1.429-5.371-0.259-5.371,2.602v9.311c0,2.858,0,7.541,0,10.4v9.308c0,2.86,2.417,4.034,5.371,2.602l9.611-4.654
					c2.954-1.431,7.789-3.772,10.744-5.2l2.058-0.997c2.951-1.432,7.785-1.432,10.739,0l2.056,0.997
					c2.955,1.428,7.788,3.77,10.743,5.2l9.613,4.654c2.952,1.435,5.37,0.26,5.37-2.602v-9.308c0-2.859,0-7.542,0-10.4v-9.311
					c0-2.859-2.419-4.029-5.37-2.602L221.804,292.773z"/>
				<path fill="#90789C" d="M221.804,292.773c-2.955,1.432-7.788,3.771-10.743,5.201l-2.056,0.996
					c-2.954,1.432-7.788,1.432-10.739,0l-2.058-0.996c-2.955-1.43-7.79-3.771-10.744-5.201l-9.611-4.656
					c-2.955-1.429-5.371-0.259-5.371,2.602v9.311c0,2.858,0,7.541,0,10.4v9.308c0,2.86,2.417,4.034,5.371,2.602l9.611-4.654
					c2.954-1.431,7.789-3.772,10.744-5.2l2.058-0.997c2.951-1.432,7.785-1.432,10.739,0l2.056,0.997
					c2.955,1.428,7.788,3.77,10.743,5.2l9.613,4.654c2.952,1.435,5.37,0.26,5.37-2.602v-9.308c0-2.859,0-7.542,0-10.4v-9.311
					c0-2.859-2.419-4.029-5.37-2.602L221.804,292.773z"/>
			</g>
			<g>
				<g>
					<path fill="#90789C" d="M233.803,323.298c-0.82,0-1.692-0.222-2.593-0.658l-22.412-10.851c-1.366-0.662-3.2-1.027-5.163-1.027
						c-1.965,0-3.797,0.365-5.163,1.027l-22.411,10.852c-0.901,0.436-1.774,0.657-2.596,0.657c-2.063,0-3.397-1.396-3.397-3.559
						v-29.021c0-2.161,1.335-3.558,3.4-3.558c0.819,0,1.692,0.22,2.591,0.656l22.413,10.853c1.365,0.663,3.199,1.028,5.163,1.028
						s3.796-0.365,5.163-1.028l22.413-10.853c0.899-0.437,1.771-0.656,2.589-0.656c2.066,0,3.4,1.396,3.4,3.558v29.021
						C237.201,321.901,235.866,323.298,233.803,323.298z M203.635,310.069c2.106,0,4.087,0.396,5.576,1.119l22.412,10.85
						c0.763,0.371,1.516,0.567,2.18,0.567c1.586,0,2.57-1.099,2.57-2.865v-29.02c0-1.767-0.986-2.864-2.572-2.864
						c-0.664,0-1.415,0.194-2.178,0.563l-22.412,10.854c-1.489,0.723-3.47,1.121-5.576,1.121c-2.107,0-4.087-0.398-5.575-1.121
						l-22.412-10.854c-0.762-0.368-1.515-0.563-2.179-0.563c-1.587,0-2.573,1.098-2.573,2.864v29.02
						c0,1.767,0.985,2.865,2.569,2.865c0.664,0,1.419-0.195,2.182-0.566l22.413-10.851
						C199.548,310.467,201.527,310.069,203.635,310.069z"/>
				</g>
				<g>
					<path fill="#90789C" d="M233.803,323.298c-0.82,0-1.692-0.222-2.593-0.658l-22.412-10.851c-1.366-0.662-3.2-1.027-5.163-1.027
						c-1.965,0-3.797,0.365-5.163,1.027l-22.411,10.852c-0.901,0.436-1.774,0.657-2.596,0.657c-2.063,0-3.397-1.396-3.397-3.559
						v-29.021c0-2.161,1.335-3.558,3.4-3.558c0.819,0,1.692,0.22,2.591,0.656l22.413,10.853c1.365,0.663,3.199,1.028,5.163,1.028
						s3.796-0.365,5.163-1.028l22.413-10.853c0.899-0.437,1.771-0.656,2.589-0.656c2.066,0,3.4,1.396,3.4,3.558v29.021
						C237.201,321.901,235.866,323.298,233.803,323.298z M203.635,310.069c2.106,0,4.087,0.396,5.576,1.119l22.412,10.85
						c0.763,0.371,1.516,0.567,2.18,0.567c1.586,0,2.57-1.099,2.57-2.865v-29.02c0-1.767-0.986-2.864-2.572-2.864
						c-0.664,0-1.415,0.194-2.178,0.563l-22.412,10.854c-1.489,0.723-3.47,1.121-5.576,1.121c-2.107,0-4.087-0.398-5.575-1.121
						l-22.412-10.854c-0.762-0.368-1.515-0.563-2.179-0.563c-1.587,0-2.573,1.098-2.573,2.864v29.02
						c0,1.767,0.985,2.865,2.569,2.865c0.664,0,1.419-0.195,2.182-0.566l22.413-10.851
						C199.548,310.467,201.527,310.069,203.635,310.069z"/>
				</g>
				<g>
					<path fill="#90789C" d="M233.803,323.298c-0.82,0-1.692-0.222-2.593-0.658l-22.412-10.851c-1.366-0.662-3.2-1.027-5.163-1.027
						c-1.965,0-3.797,0.365-5.163,1.027l-22.411,10.852c-0.901,0.436-1.774,0.657-2.596,0.657c-2.063,0-3.397-1.396-3.397-3.559
						v-29.021c0-2.161,1.335-3.558,3.4-3.558c0.819,0,1.692,0.22,2.591,0.656l22.413,10.853c1.365,0.663,3.199,1.028,5.163,1.028
						s3.796-0.365,5.163-1.028l22.413-10.853c0.899-0.437,1.771-0.656,2.589-0.656c2.066,0,3.4,1.396,3.4,3.558v29.021
						C237.201,321.901,235.866,323.298,233.803,323.298z M203.635,310.069c2.106,0,4.087,0.396,5.576,1.119l22.412,10.85
						c0.763,0.371,1.516,0.567,2.18,0.567c1.586,0,2.57-1.099,2.57-2.865v-29.02c0-1.767-0.986-2.864-2.572-2.864
						c-0.664,0-1.415,0.194-2.178,0.563l-22.412,10.854c-1.489,0.723-3.47,1.121-5.576,1.121c-2.107,0-4.087-0.398-5.575-1.121
						l-22.412-10.854c-0.762-0.368-1.515-0.563-2.179-0.563c-1.587,0-2.573,1.098-2.573,2.864v29.02
						c0,1.767,0.985,2.865,2.569,2.865c0.664,0,1.419-0.195,2.182-0.566l22.413-10.851
						C199.548,310.467,201.527,310.069,203.635,310.069z"/>
				</g>
				<g>
					<path fill="#90789C" d="M233.803,323.298c-0.82,0-1.692-0.222-2.593-0.658l-22.412-10.851c-1.366-0.662-3.2-1.027-5.163-1.027
						c-1.965,0-3.797,0.365-5.163,1.027l-22.411,10.852c-0.901,0.436-1.774,0.657-2.596,0.657c-2.063,0-3.397-1.396-3.397-3.559
						v-29.021c0-2.161,1.335-3.558,3.4-3.558c0.819,0,1.692,0.22,2.591,0.656l22.413,10.853c1.365,0.663,3.199,1.028,5.163,1.028
						s3.796-0.365,5.163-1.028l22.413-10.853c0.899-0.437,1.771-0.656,2.589-0.656c2.066,0,3.4,1.396,3.4,3.558v29.021
						C237.201,321.901,235.866,323.298,233.803,323.298z M203.635,310.069c2.106,0,4.087,0.396,5.576,1.119l22.412,10.85
						c0.763,0.371,1.516,0.567,2.18,0.567c1.586,0,2.57-1.099,2.57-2.865v-29.02c0-1.767-0.986-2.864-2.572-2.864
						c-0.664,0-1.415,0.194-2.178,0.563l-22.412,10.854c-1.489,0.723-3.47,1.121-5.576,1.121c-2.107,0-4.087-0.398-5.575-1.121
						l-22.412-10.854c-0.762-0.368-1.515-0.563-2.179-0.563c-1.587,0-2.573,1.098-2.573,2.864v29.02
						c0,1.767,0.985,2.865,2.569,2.865c0.664,0,1.419-0.195,2.182-0.566l22.413-10.851
						C199.548,310.467,201.527,310.069,203.635,310.069z"/>
				</g>
			</g>
			<g>
				<path fill="#90789C" d="M221.804,292.773c-2.955,1.432-7.788,3.771-10.743,5.201l-2.056,0.996
					c-2.954,1.432-7.788,1.432-10.739,0l-2.058-0.996c-2.955-1.43-7.79-3.771-10.744-5.201l-9.611-4.656
					c-2.955-1.429-5.371-0.259-5.371,2.602v9.311c0,2.858,0,7.541,0,10.4v9.308c0,2.86,2.417,4.034,5.371,2.602l9.611-4.654
					c2.954-1.431,7.789-3.772,10.744-5.2l2.058-0.997c2.951-1.432,7.785-1.432,10.739,0l2.056,0.997
					c2.955,1.428,7.788,3.77,10.743,5.2l9.613,4.654c2.952,1.435,5.37,0.26,5.37-2.602v-9.308c0-2.859,0-7.542,0-10.4v-9.311
					c0-2.859-2.419-4.029-5.37-2.602L221.804,292.773z"/>
				<path fill="#90789C" d="M221.804,292.773c-2.955,1.432-7.788,3.771-10.743,5.201l-2.056,0.996
					c-2.954,1.432-7.788,1.432-10.739,0l-2.058-0.996c-2.955-1.43-7.79-3.771-10.744-5.201l-9.611-4.656
					c-2.955-1.429-5.371-0.259-5.371,2.602v9.311c0,2.858,0,7.541,0,10.4v9.308c0,2.86,2.417,4.034,5.371,2.602l9.611-4.654
					c2.954-1.431,7.789-3.772,10.744-5.2l2.058-0.997c2.951-1.432,7.785-1.432,10.739,0l2.056,0.997
					c2.955,1.428,7.788,3.77,10.743,5.2l9.613,4.654c2.952,1.435,5.37,0.26,5.37-2.602v-9.308c0-2.859,0-7.542,0-10.4v-9.311
					c0-2.859-2.419-4.029-5.37-2.602L221.804,292.773z"/>
				<path opacity="0.69" fill="#90789C" enable-background="new    " d="M221.804,292.773c-2.955,1.432-7.788,3.771-10.743,5.201
					l-2.056,0.996c-2.954,1.432-7.788,1.432-10.739,0l-2.058-0.996c-2.955-1.43-7.79-3.771-10.744-5.201l-9.611-4.656
					c-2.955-1.429-5.371-0.259-5.371,2.602v9.311c0,2.858,0,7.541,0,10.4v9.308c0,2.86,2.417,4.034,5.371,2.602l9.611-4.654
					c2.954-1.431,7.789-3.772,10.744-5.2l2.058-0.997c2.951-1.432,7.785-1.432,10.739,0l2.056,0.997
					c2.955,1.428,7.788,3.77,10.743,5.2l9.613,4.654c2.952,1.435,5.37,0.26,5.37-2.602v-9.308c0-2.859,0-7.542,0-10.4v-9.311
					c0-2.859-2.419-4.029-5.37-2.602L221.804,292.773z"/>
				<g>
					<path fill="#90789C" d="M233.803,323.147c-0.787,0-1.63-0.216-2.502-0.639l-22.412-10.851c-1.394-0.674-3.26-1.048-5.254-1.048
						c-1.993,0-3.858,0.372-5.252,1.048l-22.411,10.852c-0.874,0.421-1.716,0.638-2.506,0.638c-1.954,0-3.216-1.337-3.216-3.408
						v-29.021c0-2.069,1.263-3.407,3.22-3.407c0.788,0,1.63,0.215,2.502,0.637l9.61,4.655c2.954,1.431,7.789,3.771,10.744,5.201
						l2.057,0.997c1.393,0.675,3.258,1.046,5.252,1.046c1.995,0,3.86-0.371,5.254-1.046l2.057-0.997
						c2.955-1.43,7.787-3.771,10.742-5.201l9.613-4.655c0.871-0.422,1.713-0.637,2.5-0.637c1.957,0,3.219,1.337,3.219,3.407v29.021
						C237.02,321.811,235.758,323.147,233.803,323.147z M203.635,310.22c2.076,0,4.024,0.39,5.487,1.099l22.413,10.852
						c0.8,0.39,1.563,0.586,2.27,0.586c1.694,0,2.748-1.155,2.748-3.016v-29.02c0-1.86-1.053-3.015-2.752-3.015
						c-0.703,0-1.467,0.194-2.266,0.583l-9.613,4.656c-2.955,1.431-7.787,3.771-10.743,5.201l-2.057,0.997
						c-1.462,0.709-3.411,1.101-5.487,1.101c-2.075,0-4.023-0.392-5.485-1.101l-2.057-0.997c-2.955-1.43-7.789-3.771-10.744-5.201
						l-9.609-4.656c-0.8-0.389-1.564-0.583-2.269-0.583c-1.698,0-2.753,1.155-2.753,3.015v29.02c0,1.861,1.055,3.016,2.749,3.016
						c0.707,0,1.471-0.196,2.272-0.585l22.411-10.853C199.61,310.609,201.56,310.22,203.635,310.22z"/>
				</g>
			</g>
		</g>
	</g>
	<g>
		<g>
			<path fill="#AE88B1" d="M214.338,305.23c0,4.958-4.791,8.977-10.703,8.977c-5.915,0-10.704-4.02-10.704-8.977
				s4.79-8.978,10.704-8.978C209.547,296.252,214.338,300.272,214.338,305.23z"/>
			<path fill="#AE88B1" d="M214.338,305.23c0,4.958-4.791,8.977-10.703,8.977c-5.915,0-10.704-4.02-10.704-8.977
				s4.79-8.978,10.704-8.978C209.547,296.252,214.338,300.272,214.338,305.23z"/>
			<path opacity="0.69" fill="#AE88B1" enable-background="new    " d="M214.338,305.23c0,4.958-4.791,8.977-10.703,8.977
				c-5.915,0-10.704-4.02-10.704-8.977s4.79-8.978,10.704-8.978C209.547,296.252,214.338,300.272,214.338,305.23z"/>
			<g>
				<path fill="#AE88B1" d="M203.635,314.555c-6.131,0-11.119-4.185-11.119-9.326s4.988-9.325,11.119-9.325
					c6.13,0,11.115,4.183,11.115,9.325C214.75,310.37,209.764,314.555,203.635,314.555z M203.635,296.599
					c-5.674,0-10.292,3.872-10.292,8.632s4.618,8.631,10.292,8.631c5.676,0,10.288-3.871,10.288-8.631
					C213.922,300.471,209.309,296.599,203.635,296.599z"/>
			</g>
		</g>
	</g>
	<path fill="#AE88B1" d="M195.057,310.737l-2.09-1.388c-10.784,0.114-17.846,6.488-24.256,14.104h26.56
		C195.305,318.767,195.197,314.774,195.057,310.737z"/>
	<path fill="#AE88B1" d="M214.141,306.906l-2.089,1.398c-0.166,4.783-0.286,9.876-0.179,15.148h28.559
		C233.453,314.666,226.076,307.033,214.141,306.906z"/>
</g>
</svg>
