<svg version="1.1" id="Layer_1" xmlns="http://www.w3.org/2000/svg" xmlns:xlink="http://www.w3.org/1999/xlink" x="0px" y="0px"
	 width="245px" height="245px" viewBox="77.5 77.5 245 245" enable-background="new 77.5 77.5 245 245" xml:space="preserve">
<g id="ripu">
	<path fill="#CFBEC3" d="M309.539,322.5c0.969-3.003-0.213-7.127-1.511-11.076c-2.639-8.017-13.151-13.998-18.974-18.419
		c-7.409-5.628-14.434-12.527-22.17-17.642c-4.587-3.034-17.405-10.921-22.145-8.875h-88.062c-4.738-2.047-17.557,5.84-22.144,8.875
		c-7.735,5.114-14.759,12.015-22.168,17.642c-5.822,4.421-15.76,11.268-18.397,19.284c-1.299,3.949-1.038,7.208-0.071,10.211
		H309.539z"/>
	<path id="leftEar" fill="#E1E5E8" d="M126.724,208.939c-13.832-7.646-25.021-25.25-17.969-39.773
		c6.751-13.903,27.376-15.409,38.684-4.821"/>
	<path fill="#CCCBCA" d="M125.849,197.188c-4.688-4.512-10.736-17.348-5.607-23.052c5.405-6.009,16.908-3.569,23.083-1.354"/>
	<path id="rightEar" fill="#E1E5E8" d="M264.692,208.939c13.831-7.646,25.021-25.25,17.969-39.773
		c-6.752-13.903-27.377-15.409-38.684-4.821"/>
	<path fill="#CCCBCA" d="M265.567,197.188c4.688-4.512,10.736-17.348,5.607-23.052c-5.405-6.009-16.909-3.569-23.084-1.354"/>
	<path id="head" fill="#E1E5E8" d="M155.13,279.445c-8.191-7.439-18.254-21.295-20.408-24.286
		c-4.331-6.015-7.149-13.587-9.329-20.608c-10.396-33.489,7.849-63.129,34.882-78.024c10.768-5.933,22.929-7.158,35.229-8.843h1.349
		c12.301,1.685,24.463,2.91,35.23,8.841c27.034,14.895,45.278,44.589,34.882,78.078c-2.18,7.021-4.998,14.568-9.328,20.583
		c-2.154,2.991-12.217,16.834-20.409,24.273"/>
	<path fill="#A8A297" d="M134.182,224.606c-1.432-8.082-5.951-22.731-1.798-30.521c3.237-6.072,15.649-15.494,21.684-18.893h1.206
		c4.139,8.634,0.145,20.232,3.616,28.322c-8.36,6.476-15.798,13.69-23.502,20.489L134.182,224.606z"/>
	<path fill="none" stroke="#000000" stroke-width="0.6026" stroke-miterlimit="10" d="M177.57,183.629
		c7.198,0,14.296-1.352,21.39-1.199c6.906,0.149,13.809,1.802,20.793,1.802"/>
	<path fill="none" stroke="#000000" stroke-width="0.6026" stroke-miterlimit="10" d="M176.064,213.76
		c7.198,0,14.296-1.352,21.39-1.199c6.906,0.149,13.809,1.802,20.794,1.802"/>
	<ellipse id="leftEye" cx="183.596" cy="247.205" rx="3.917" ry="3.164"/>
	<ellipse id="rightEye" cx="208.906" cy="247.506" rx="3.918" ry="3.013"/>
	<path fill="#CCCBCA" d="M195.649,302.947c16.873,0.784,40.924-7.321,41.594-25.31c0.384-10.286-2.097-20.374-12.065-24.707
		c-7.729-3.358-14.521-2.189-26.515-5.423h-4.77c-10.182,3.082-18.788,2.064-26.515,5.423c-9.969,4.333-12.449,14.421-12.066,24.707
		c0.669,17.988,24.721,26.095,41.595,25.31"/>
	<g>
		<path fill="#9BC6D1" d="M199.035,282.781c-8.485,2.706-22.904-7.346-23.548-17.046c-0.608-9.153,9.763-11.898,20.102-13.021h0.551
			c10.34,1.123,20.71,3.868,20.103,13.021c-0.646,9.701-15.063,19.847-23.549,17.14"/>
		<ellipse fill="#EAEAEA" cx="207.795" cy="268.883" rx="2.562" ry="2.711"/>
	</g>
	<g>
		<path fill="none" stroke="#000000" stroke-width="0.6026" stroke-miterlimit="10" d="M145.029,211.65
			c0.015,2.204,0.015,2.204,3.013,5.725"/>
		<path fill="none" stroke="#000000" stroke-width="0.6026" stroke-miterlimit="10" d="M143.221,212.555
			c0.014,2.204,1.808,2.863,3.014,5.726"/>
	</g>
	<g>
		<path fill="none" stroke="#000000" stroke-width="0.6026" stroke-miterlimit="10" d="M140.208,182.424
			c0.014,2.204,0.014,2.204,3.013,5.725"/>
		<path fill="none" stroke="#000000" stroke-width="0.6026" stroke-miterlimit="10" d="M138.4,183.327
			c0.014,2.204,1.807,2.863,3.013,5.725"/>
	</g>
	<g>
		<path fill="none" stroke="#000000" stroke-width="0.6026" stroke-miterlimit="10" d="M159.793,190.86
			c-2.205,0.014-2.205,0.014-5.726,3.013"/>
		<path fill="none" stroke="#000000" stroke-width="0.6026" stroke-miterlimit="10" d="M158.89,189.052
			c-2.205,0.015-2.863,1.809-5.725,3.014"/>
	</g>
	<g>
		<path fill="none" stroke="#000000" stroke-width="0.6026" stroke-miterlimit="10" d="M135.688,208.336
			c-2.205,0.015-2.205,0.015-5.725,3.014"/>
		<path fill="none" stroke="#000000" stroke-width="0.6026" stroke-miterlimit="10" d="M134.785,206.529
			c-2.205,0.014-2.863,1.807-5.725,3.013"/>
	</g>
	<path id="smile" fill="none" stroke="#000000" stroke-width="0.4848" stroke-miterlimit="10" d="M187.812,301.018
		c1.601-6.284,15.437-4.286,17.159,0.842"/>
	<g id="mouthOpen" visibility="hidden">
		<path d="M187.812,301.298l-0.562,0.468c6.59,1.085,10.737,1.599,17.225,0l0.495,0.374
			C203.249,297.013,189.413,295.016,187.812,301.298z"/>
		<path fill="#E81A1A" d="M190.86,302.322c3.233,0.447,6.001,0.625,9.122,0.271c-0.852-1.824-2.119-3.171-4.307-3.186
			C193.892,299.396,192.236,300.655,190.86,302.322z"/>
	</g>
</g>
</svg>
