<svg version="1.1" id="Layer_1" xmlns="http://www.w3.org/2000/svg" xmlns:xlink="http://www.w3.org/1999/xlink" x="0px" y="0px"
	 width="245px" height="245px" viewBox="-232.5 158 245 245" enable-background="new -232.5 158 245 245" xml:space="preserve">
<g>
	<path fill="#F0E6CE" d="M-45.378,402.998c-1.078-5.678-2.104-11.42-2.82-17.36c-0.638-5.317-1.877-22.555-6.797-21.583
		l-107.171-2.876c-4.918-0.971-6.156,16.264-6.796,21.586c-0.836,6.944-2.095,13.624-3.368,20.235h126.952V402.998z"/>
	<g id="rightEar">
		<path fill="#F2E9D3" d="M-45.882,313.504c-4.549-7.212,0.614-18.396,4.833-20.917c9.073-5.426,10.538-6.62,16.914-3.294
			c5.583,2.913,9.675,8.371,9.869,16.306c0.234,9.742-0.532,15.959-5.255,21.25c-4.28,4.796-10.582,5.714-16.145,3.951
			c-6.257-1.984-9.057-9.756-9.887-18.28"/>
		<path fill="#EFEDED" d="M-47.519,307.352c4.755-5.971,13.355-14.465,19.853-12.976c3.185,0.73,7.88,4.889,9.772,10.154
			c2.169,6.039-3.394,17.214-6.776,19.31c-6.334,3.922-13.827-0.702-19.565-4.737"/>
	</g>
	<g id="leftEar">
		<path fill="#F2E9D3" d="M-174.116,313.504c4.545-7.212-0.614-18.396-4.834-20.917c-9.073-5.426-10.537-6.62-16.913-3.294
			c-5.583,2.913-9.676,8.371-9.869,16.306c-0.237,9.742,0.529,15.959,5.255,21.25c4.279,4.796,10.581,5.714,16.144,3.951
			c6.257-1.984,9.056-9.756,9.887-18.28"/>
		<path fill="#EFEDED" d="M-172.48,307.352c-4.754-5.971-13.353-14.465-19.851-12.976c-3.186,0.73-7.881,4.889-9.773,10.154
			c-2.169,6.039,3.393,17.214,6.777,19.31c6.334,3.922,13.825-0.702,19.564-4.737"/>
	</g>
	<path id="head" fill="#F0E6CE" d="M-42.138,342.958c1.335-1.459,1.568-3.468,1.651-5.599c0.035-0.849-0.555-1.523-0.504-2.563
		c0.035-0.703,0.695-1.777,0.767-2.706c0.271-3.629-0.438-8.095-0.834-11.534c-0.479-4.133-0.541-7.893-1.613-11.858
		c-4.631-17.152-7.855-34.522-17.563-48.982c-4.396-6.547-9.65-12.22-15.494-16.836c-6.271-4.958-12.969-7.4-19.703-11.05
		c0.002,0,0.456,0.17,0.456,0.17s-4.429-1.695-9.665-2.077c-5.393-0.394-11.638,0.524-14.76,0.531l0.468-0.112
		c-3.26,1.779-7.494,2.11-10.939,3.544c-3.561,1.481-7.032,3.277-10.366,5.394c-6.416,4.078-12.29,9.357-17.316,15.663
		c-5.064,6.355-9.23,13.7-12.431,21.614c-1.694,4.188-2.757,8.604-4.267,12.855c-1.657,4.668-3.896,8.379-4.119,13.677
		c-0.094,2.256,0.28,4.695,0,6.926c-0.265,2.112-1.015,4.225-1.108,6.589c-0.169,4.342,0.672,8.479,1.715,12.519
		c0.515,1.993,1.304,3.571,1.849,5.597c0.54,2.019,0.177,4.828,1.375,6.592"/>
	<path fill="#EFEDED" d="M-124.208,304.94c-5.246-2.066-10.021-5.701-15.729-5.44c-5.382,0.25-12.018,1.687-16.623,5.228
		c-5.756,4.422-8.831,12.693-10.39,20.421c-1.514,7.5,0.583,15.785-7.726,11.414h-0.82c-0.605,3.885,2.189,11.02,3.365,14.578
		c1.648,4.988,5.225,7.797,8.944,10.376c6.59,4.566,15.795,12.448,23.799,11.18"/>
	<path fill="#EFEDED" d="M-91.6,305.27c5.247-2.064,10.022-5.699,15.728-5.437c5.385,0.249,12.017,1.685,16.625,5.224
		c5.757,4.423,8.832,12.771,10.393,20.501c1.511,7.499-0.585,15.863,7.723,11.491h0.82c0.607,3.885-2.187,10.938-3.363,14.497
		c-1.65,4.988-5.227,7.762-8.946,10.338c-6.589,4.566-18.164,12.568-26.168,11.301"/>
	<g id="rightEye">
		<path fill="#0A0A0A" d="M-85.055,319.058c0-1.391,1.978,2.061,4.592,5.31c2.236,2.779,5.324,5.087,6.109,5.087
			c4.729,0,6.422-3.7,6.422-9.077c0-5.378-3.834-9.736-8.563-9.736C-81.223,310.641-85.055,313.681-85.055,319.058z"/>
		<ellipse fill="#EFEDED" cx="-78.714" cy="317.998" rx="2.061" ry="2.47"/>
	</g>
	<g id="leftEye">
		<path fill="#0A0A0A" d="M-134.014,319.715c0-1.39-1.977,1.403-4.591,4.652c-2.237,2.777-5.104,5.315-5.773,5.525
			c-0.725,0.227,0.447-0.44-0.339-0.44c-4.728,0-6.419-3.701-6.419-9.077c0-5.377,3.832-9.736,8.561-9.736
			C-137.847,310.641-134.014,314.34-134.014,319.715z"/>
		<ellipse fill="#EFEDED" cx="-139.9" cy="316.678" rx="2.062" ry="2.471"/>
	</g>
	<path fill="#E8E1D4" d="M-108.401,385.978c14.163,4.448,10.922-0.273,22.458-7.773c10.731-6.977,26.013-18.072,21.072-35.738
		c-3.314-11.853-12.284-11.434-20.626-28.01c-5.327-10.579-13.555-12.865-24.546-12.379h2.24
		c-10.992-0.486-19.22,1.802-24.545,12.379c-8.343,16.576-17.314,16.339-20.627,28.191c-4.942,17.669,10.339,28.67,21.072,35.647
		c11.536,7.502,8.296,12.176,22.461,7.729L-108.401,385.978z"/>
	<g>
		<path fill="#070707" d="M-107.638,343.585c0.779,2.78,1.108,5.693,1.082,8.596c-0.009,2.904-0.361,5.797-0.857,8.645
			c-0.564,2.764-0.247,5.61-0.019,8.479c0.117,1.437,0.209,2.892,0.157,4.346c-0.075,1.45-0.265,2.913-0.759,4.271
			c0.604-2.838,0.224-5.696-0.136-8.538c-0.193-1.424-0.369-2.864-0.448-4.323c-0.07-1.455-0.011-2.959,0.27-4.4
			c0.509-2.816,0.895-5.65,1.055-8.501C-107.145,349.308-107.221,346.438-107.638,343.585z"/>
	</g>
	<path id="smile" fill="none" stroke="#070707" stroke-width="0.9524" stroke-miterlimit="10" d="M-86.788,357.022
		c0.479,1.871-2.111,3.855-3.325,5.394c-4.215,5.341-7.485,14.379-18.012,15.233h-0.217c-10.527-0.856-13.795-9.893-18.012-15.233
		c-1.214-1.538-3.803-3.522-3.326-5.394"/>
</g>
<g id="mouthOpen" visibility="hidden">
	<path fill="#070707" d="M-93.287,367.215c-8.72-5.07-23.533-6.885-30.682,0.015c3.305,5.104,7.487,10.06,15.217,10.733h0.237
		C-100.777,377.289-96.593,372.322-93.287,367.215z"/>
	<path fill="#DB0909" d="M-115.129,376.152c1.826,0.946,3.922,1.596,6.378,1.812h0.238c3.812-0.332,6.758-1.708,9.165-3.63
		c-2.33-2.313-5.205-3.785-8.786-3.896C-114.16,370.258-113.757,371.64-115.129,376.152z"/>
</g>
</svg>
