<svg version="1.1" id="Layer_1" xmlns="http://www.w3.org/2000/svg" xmlns:xlink="http://www.w3.org/1999/xlink" x="0px" y="0px"
	 width="245px" height="245px" viewBox="45 77.5 245 245" enable-background="new 77.5 77.5 245 245" xml:space="preserve">
<path fill="#E5DFD6" d="M129.768,322.5c-0.127-1.739,3.111-24.479,3.431-26.729c0.727-5.093,5.616-5.584,8.651-9.889
	c10.828-15.36,22.293-11.584,39.496-11.582c11.782,0,22.561,1.635,34.463,1.221c11.441-0.396,22.1-6.607,33.154-1.801
	c8.415,3.66,17.346,12.826,18.775,21.364c0.408,2.442,7.693,24.85,8.484,27.253L129.768,322.5z"/>
<path id="rightEar" fill="#D8D7D6" d="M220.619,159.747c15.111-23.364,65.047-10.664,64.702,18.321
	c-0.208,17.331-8.862,27.615-22.202,37.219"/>
<path id="leftEar" fill="#D8D7D6" d="M182.546,158.933c-15.111-23.363-65.048-10.664-64.702,18.321
	c0.207,17.331,8.862,27.615,22.203,37.219"/>
<path fill="#EDE8DF" d="M200.832,287.509c16.677-0.06,28.732,0,47.873-12.087c12.501-7.895,21.176-23.869,24.841-40.401
	c3.679-16.604-0.494-34.288-7.638-49.25c-6.875-14.406-14.956-19.531-27.965-27.485c-7.824-4.783-18.738-5.419-27.533-8.102
	l-18.019-0.305c-8.795,2.682-19.71,3.317-27.535,8.102c-13.01,7.954-21.088,13.08-27.966,27.485
	c-7.142,14.962-11.316,32.646-7.636,49.25c3.664,16.533,12.339,32.508,24.839,40.401c19.143,12.088,31.197,12.028,47.873,12.088"/>
<path fill="none" stroke="#5FFF83" stroke-width="0.6046" stroke-miterlimit="10" d="M191.991,243.261"/>
<path fill="#1D1511" d="M203.421,242.955c4.487,0.302,12.151-1.773,15.431-4.883c3.896-3.695,5.249-13.437-0.03-17.102l0.762-0.008
	c-4.884-1.051-11.237-4.902-16.162-4.292h-3.677c-4.925-0.61-11.276,3.241-16.163,4.292l0.764-0.002
	c-5.28,3.666-3.927,13.411-0.031,17.105c3.28,3.109,10.942,5.188,15.43,4.885L203.421,242.955z"/>
<g id="mouth">
	<path id="connector" fill="none" stroke="#070707" stroke-width="0.5332" stroke-miterlimit="10" d="M199.341,249.363
		c1.158,2.744,0.146,17.166,1.098,21.361"/>
	<path id="smile" fill="none" stroke="#070707" stroke-width="0.5332" stroke-miterlimit="10" d="M172.698,253.025
		c11.368,12.206,15.019,17.699,26.415,17.699h1.719c11.396,0,18.267-5.493,29.635-17.699"/>
	<g id="mouthOpen" visibility="hidden">
		<path fill="#FFFDFD" d="M223.303,261.78c-0.842,1.806-1.798,3.541-3.056,5.104c-5.942,7.385-11.979,5.907-20.337,6.432
			c-7.036,0.442-13.173-1.119-17.763-6.822c-2.038-2.532-3.064-5.524-4.316-8.521l0.407,0.698
			c6.313,4.724,17.662,10.154,27.175,7.546c5.9-1.618,11.906-3.321,17.568-5.486C222.98,260.729,223.826,260.658,223.303,261.78z"/>
		<path fill="#020000" d="M189.047,271.795c3.263,1.387,6.922,1.768,10.863,1.521c6.332-0.397,11.332,0.351,15.969-2.474
			c-1.218-0.982-2.601-1.765-4.217-2.254c-3.495-1.057-7.536-1.583-11.174-0.867c-3.19,0.627-5.683,1.665-8.782,2.805
			C190.599,270.932,189.753,271.336,189.047,271.795z"/>
		<path fill="#EF0A0A" d="M198.869,273.359c0.346-0.011,0.69-0.021,1.041-0.044c3.176-0.2,6.016-0.111,8.645-0.329
			c-1.591-2.176-3.676-4.429-5.9-4.455C199.668,268.496,199.005,270.885,198.869,273.359z"/>
	</g>
</g>
<g id="eyeRight">
	<ellipse id="whitePortionRight" fill="#000501" cx="237.232" cy="197.265" rx="7.533" ry="7.37"/>
	<ellipse id="pupilRight" fill="#FFFFFF" cx="238.804" cy="194.394" rx="2.271" ry="2.34"/>
</g>
<g id="eyeLeft">
	<ellipse id="whitePortionLeft" fill="#000501" cx="163.094" cy="197.265" rx="7.533" ry="7.37"/>
	<ellipse id="pupilLeft" fill="#FFFFFF" cx="164.665" cy="194.394" rx="2.27" ry="2.34"/>
</g>
<path fill="#20B1D3" d="M285.342,288.188c-5.537-3.138-18.471-7.529-28.25-4.324c0,0-7.367,3.478-11.213,3.377l1.762-0.746
	c-14.732,11.483-36.711,16.668-54.936,18.461c-10.277,1.01-20.099-1.482-29.93-2.456c-10.071-0.999-22.472-3.054-32.424-3.054
	c6.21-2.619,12.991-5.893,17.625-10.951c3.132-3.418,2.14-10.857,6.116-13.379c0,0,19.937,13.572,29.789,15.511
	c10.483,2.062,21.231,1.739,31.706-0.267c15.541-2.978,50.668-17.963,55.869-19.635c6.375-2.051,2.049,1.796,7.781,4.796
	C286.115,279.117,280.515,282.674,285.342,288.188z"/>
<ellipse fill="#D32065" cx="251.348" cy="280.967" rx="6.055" ry="6.477"/>
</svg>
