<svg version="1.1" id="Layer_1" xmlns="http://www.w3.org/2000/svg" xmlns:xlink="http://www.w3.org/1999/xlink" x="0px" y="0px"
	 width="245px" height="245px" viewBox="0 0 245 245" enable-background="new 0 0 245 245" xml:space="preserve">
<path fill="#62F4AE" d="M243.162,240.207c0,1.631-1.323,2.955-2.955,2.955H4.792c-1.632,0-2.955-1.324-2.955-2.955V4.792
	c0-1.632,1.323-2.955,2.955-2.955h235.415c1.632,0,2.955,1.323,2.955,2.955V240.207L243.162,240.207z"/>
<path fill="none" d="M23.033,244.537c-0.022,0.157-0.048,0.308-0.071,0.463h201.372c-0.023-0.155-0.049-0.306-0.071-0.463H23.033z"
	/>
<path fill="#556967" d="M205.213,67.003c-0.137-3.079-0.204-6.141-0.225-9.188c-24.271,4.847-51.944,7.601-81.341,7.601
	c-29.398,0-57.071-2.754-81.341-7.601c-0.021,3.048-0.087,6.11-0.223,9.188c-0.161,3.618-0.418,7.204-0.77,10.763h164.668
	C205.631,74.207,205.373,70.621,205.213,67.003z"/>
<path fill="#556967" d="M223.978,225.762c0.012-0.125,0.028-0.257,0.041-0.383H87.927H23.276c0.013,0.126,0.029,0.258,0.042,0.383
	c0.56,5.805,0.525,12.969-0.284,18.775h201.229C223.453,238.73,223.418,231.566,223.978,225.762z"/>
<path fill="#556967" d="M237.455,179.673c-1.109-0.74-1.853-2.042-1.853-3.537c0-1.816,1.094-3.345,2.614-3.922
	c-2.121-3.737-4.146-7.463-6.078-11.18v31.089C233.935,187.089,235.79,182.716,237.455,179.673z"/>
<polygon fill="#A7E8FC" points="87.934,225.377 23.276,225.377 23.276,225.379 87.927,225.379 "/>
<path fill="#A7E8FC" d="M98.503,197.579c25.102,0,27.651-34.909,45.521-34.417c10.256,0.285,16.762,16.646,49.35,30.535
	c0.847-0.019,1.69-0.038,2.557-0.038c14.352,0,24.876,2.467,33.652,6.219c0.818-2.687,1.68-5.298,2.557-7.755v-31.089
	c-2.123-4.084-4.136-8.158-6.025-12.232c-3.814,9.066-12.365,15.39-22.315,15.39c-11.238,0-20.699-8.065-23.557-19.045
	c-0.545,0.033-1.093,0.055-1.641,0.055c-15.274,0-27.656-13.161-27.656-29.394c0-16.237,12.382-29.399,27.656-29.399
	c8.809,0,16.646,4.385,21.712,11.205c1.806-3.496,4.197-6.597,7.018-9.184c-0.544-3.53-0.994-7.083-1.348-10.664H41.314
	c-2.429,24.599-9.376,47.884-20.215,71.214c3.519-2.428,6.958-3.862,10.18-3.862C52.975,145.117,73.402,197.579,98.503,197.579z
	 M52.291,92.765c0.033,0,0.064,0.004,0.088,0.004c0.638-5.563,5.093-9.873,10.497-9.873c5.842,0,10.584,5.035,10.584,11.249
	c0,2.136-0.575,4.128-1.547,5.83c0.958,1.016,1.547,2.42,1.547,3.968c0,3.108-2.37,5.626-5.295,5.627
	c-2.447,0-4.494-1.784-5.096-4.188c-0.064,0-0.127,0.011-0.193,0.011c-1.561,0-3.038-0.368-4.372-1.013
	c-1.265,2.251-3.565,3.761-6.213,3.761c-3.991,0-7.228-3.441-7.228-7.686C45.063,96.208,48.3,92.765,52.291,92.765z"/>
<path fill="#AFD64D" d="M193.373,193.697c-32.588-13.89-39.094-30.25-49.35-30.535c-17.869-0.492-20.419,34.417-45.521,34.417
	c-25.101,0-45.528-52.462-67.225-52.462c-3.222,0-6.661,1.435-10.18,3.862c-3.574,7.693-7.573,15.393-11.971,23.145
	c1.661,0.489,2.888,2.089,2.888,4.012c0,1.602-0.857,2.977-2.101,3.68c5.075,9.368,11.878,30.992,13.36,45.562h64.658
	C137.13,212.746,155.461,194.489,193.373,193.697z"/>
<path fill="#55B75E" d="M193.373,193.697c-37.912,0.792-56.243,19.049-105.439,31.68c-0.002,0.001-0.005,0.001-0.007,0.002h136.092
	c0.764-7.508,2.938-16.885,5.563-25.501c-8.776-3.752-19.301-6.219-33.652-6.219C195.063,193.659,194.22,193.679,193.373,193.697z"
	/>
<path fill="#D1493D" d="M9.128,172.124c4.398-7.752,8.396-15.451,11.971-23.145c10.839-23.33,17.786-46.615,20.215-71.214
	c0.351-3.559,0.609-7.145,0.77-10.763c0.136-3.079,0.203-6.141,0.223-9.188c-16.465-3.288-31.354-7.541-44.144-12.56v126.701h9.921
	C8.448,171.956,8.793,172.026,9.128,172.124z"/>
<path fill="#D1493D" d="M23.033,244.537c0.809-5.807,0.844-12.971,0.284-18.775c-0.012-0.125-0.028-0.257-0.042-0.383
	c0-0.001,0-0.001,0-0.002c-1.482-14.569-8.285-36.193-13.36-45.562c-0.549,0.31-1.167,0.502-1.832,0.502h-9.921V245h24.799
	C22.985,244.845,23.011,244.694,23.033,244.537z"/>
<path fill="#475757" d="M9.916,179.815c1.244-0.703,2.101-2.078,2.101-3.68c0-1.923-1.227-3.522-2.888-4.012
	c-0.334-0.098-0.68-0.168-1.044-0.168h-9.921v8.361h9.921C8.749,180.317,9.366,180.125,9.916,179.815z"/>
<path fill="#FFFFFF" d="M178.601,86.408c-15.274,0-27.656,13.162-27.656,29.399c0,16.233,12.382,29.394,27.656,29.394
	c0.548,0,1.096-0.021,1.641-0.055c2.857,10.979,12.318,19.045,23.557,19.045c9.95,0,18.501-6.323,22.315-15.39
	c-9.216-19.874-15.605-39.719-18.783-60.373c-2.82,2.587-5.212,5.688-7.018,9.184C195.247,90.793,187.409,86.408,178.601,86.408z"/>
<path fill="#D1493D" d="M205.213,67.003c0.16,3.618,0.418,7.204,0.77,10.763c0.354,3.581,0.804,7.134,1.348,10.664
	c3.178,20.654,9.567,40.499,18.783,60.373c1.89,4.074,3.902,8.148,6.025,12.232c1.933,3.717,3.957,7.442,6.078,11.18
	c0.413-0.157,0.852-0.258,1.315-0.258H245V46.823c-11.83,4.339-25.291,8.052-40.012,10.992
	C205.009,60.862,205.076,63.924,205.213,67.003z"/>
<path fill="#D1493D" d="M237.455,179.673c-1.665,3.043-3.521,7.416-5.316,12.45c-0.877,2.457-1.738,5.068-2.557,7.755
	c-2.626,8.616-4.8,17.993-5.563,25.501c-0.013,0.126-0.029,0.258-0.041,0.383c-0.56,5.805-0.524,12.969,0.285,18.775
	c0.022,0.157,0.048,0.308,0.071,0.463H245v-64.683h-5.468C238.767,180.317,238.059,180.075,237.455,179.673z"/>
<path fill="#475757" d="M238.217,172.214c-1.521,0.577-2.614,2.105-2.614,3.922c0,1.495,0.743,2.797,1.853,3.537
	c0.604,0.402,1.312,0.645,2.077,0.645H245v-8.361h-5.468C239.068,171.956,238.63,172.057,238.217,172.214z"/>
<path fill="#E5584B" d="M123.647,65.415c29.396,0,57.07-2.754,81.341-7.601c14.721-2.94,28.182-6.653,40.012-10.992V0H-1.837v45.255
	c12.789,5.019,27.678,9.271,44.144,12.56C66.576,62.661,94.25,65.415,123.647,65.415z"/>
<path fill="#FFFFFF" d="M52.291,108.141c2.648,0,4.949-1.51,6.213-3.761c1.334,0.645,2.811,1.013,4.372,1.013
	c0.065,0,0.129-0.011,0.193-0.011c0.602,2.404,2.648,4.188,5.096,4.188c2.926-0.001,5.295-2.519,5.295-5.627
	c0-1.548-0.589-2.952-1.547-3.968c0.972-1.702,1.547-3.694,1.547-5.83c0-6.214-4.742-11.249-10.584-11.249
	c-5.404,0-9.859,4.31-10.497,9.873c-0.024,0-0.055-0.004-0.088-0.004c-3.991,0-7.228,3.442-7.228,7.69
	C45.063,104.7,48.3,108.141,52.291,108.141z"/>
</svg>