<svg version="1.1" id="Layer_1" xmlns="http://www.w3.org/2000/svg" xmlns:xlink="http://www.w3.org/1999/xlink" x="0px" y="0px"
	 width="245px" height="244px" viewBox="0 0 245 245" enable-background="new 0 0 245 245" xml:space="preserve">
<path fill="#90D9D2" d="M241.487,241.923c0,1.699-1.378,3.077-3.078,3.077H7.59c-1.699,0-3.078-1.378-3.078-3.077V10.078
	C4.513,8.378,5.891,7,7.59,7h230.819c1.7,0,3.078,1.378,3.078,3.078V241.923z"/>
<circle fill="#FFFF00" cx="163.286" cy="64.501" r="9.001"/>
<g>
	<rect x="158.784" y="44.697" fill="#4E1F13" width="8.103" height="2.701"/>
	<rect x="157.436" y="46.048" fill="#4E1F13" width="10.801" height="2.7"/>
	<path fill="#1E8B9A" d="M168.14,47.398h-10.607c0,0-11.645,4.66-13.599,8.1c-1.168,2.055,0,9.451,0,9.451h37.806
		c0,0,1.165-7.396,0-9.451C179.783,52.059,168.14,47.398,168.14,47.398z"/>
	<rect x="142.584" y="64.949" fill="#4E1F13" width="40.504" height="1.352"/>
</g>
<circle fill="#FFFF00" cx="198.594" cy="42.495" r="6.554"/>
<rect x="183.037" y="33.493" fill="#C02B2E" width="32.405" height="4.052"/>
<rect x="185.739" y="37.545" fill="#E56835" width="25.652" height="4.05"/>
<rect x="189.789" y="41.595" fill="#E3C82F" width="17.553" height="4.051"/>
<path fill="#4E1F13" d="M203.966,22.691h-9.451c-4.887,0-9.132,2.732-11.297,6.751h32.046
	C213.095,25.424,208.851,22.691,203.966,22.691z"/>
<polygon fill="#4E1F13" points="215.264,29.442 183.218,29.442 178.986,29.442 178.986,33.493 181.863,33.493 216.617,33.493 
	219.492,33.493 219.492,29.442 "/>
<g>
	<rect x="18.881" y="21.638" fill="#4E1F13" width="68.926" height="62.362"/>
	<rect x="25.445" y="26.561" fill="#FFFDF4" width="57.439" height="52.516"/>
	<rect x="30.368" y="33.125" fill="#FED356" width="47.592" height="39.387"/>
	<g>
		<rect x="30.368" y="31.484" fill="#FED356" width="22.976" height="21.335"/>
		<rect x="53.344" y="31.484" fill="#22B573" width="24.616" height="21.335"/>
		<rect x="30.368" y="52.819" fill="#00A99D" width="22.976" height="21.334"/>
		<rect x="53.344" y="52.819" fill="#D32B27" width="24.616" height="21.334"/>
	</g>
	<g>
		<path fill="#FFFFFF" d="M42.709,59.841c0.197,3.776,4.572,3.897,7.468,3.726c4.021-0.234,8.258-1.098,10.863-4.389
			c6.193-7.837-1.697-20.03-11.504-15.396c-4.622,2.184-5.603,8.724-2.891,12.88c2.216,3.398,9.723,2.654,11.777-0.592
			c3.545-5.602-8.857-10.617-8.747-4.117c0.016,0.975,1.527,0.975,1.512,0c-0.046-2.714,3.063-1.43,4.419-0.606
			c3.493,2.12,1.353,4.97-1.906,5.741c-2.781,0.658-5.783-0.2-6.653-3.17c-0.496-1.694-0.264-3.884,0.109-5.567
			c1.098-4.952,8.995-4.605,12.105-2.009c4.563,3.811,2.44,11.733-2.248,14.276c-2.312,1.255-12.582,3.292-12.794-0.775
			C44.171,58.874,42.66,58.868,42.709,59.841L42.709,59.841z"/>
	</g>
</g>
<rect x="197.989" y="7" fill="#867E55" width="1.152" height="18.393"/>
<rect x="161.585" y="7" fill="#867E55" width="1.152" height="53.899"/>
</svg>