<svg version="1.1" id="Layer_1" xmlns="http://www.w3.org/2000/svg" xmlns:xlink="http://www.w3.org/1999/xlink" x="0px" y="0px"
	 width="245px" height="245px" viewBox="0 0 245 245" enable-background="new 0 0 245 245" xml:space="preserve">
<path fill="#A7F2CE" d="M240.596,242c0,1.657-1.343,3-3,3H7.894c-1.657,0-3-1.343-3-3V6.665c0-1.657,1.343-3,3-3h229.702
	c1.657,0,3,1.343,3,3V242z"/>
<g>
	<g>
		<rect x="185.461" y="13.798" fill-rule="evenodd" clip-rule="evenodd" fill="#A7F2CE" width="42.742" height="149.345"/>
		<path fill-rule="evenodd" clip-rule="evenodd" fill="#21A58D" d="M233.379,165.895L233.379,165.895
			c0,1.515-1.165,2.753-2.588,2.753h-47.918c-1.423,0-2.588-1.238-2.588-2.753l0,0c0-1.514,1.165-2.752,2.588-2.752h47.918
			C232.214,163.143,233.379,164.381,233.379,165.895z"/>
		<path fill-rule="evenodd" clip-rule="evenodd" fill="#21A58D" d="M182.873,8.291L182.873,8.291c1.422,0,2.588,1.24,2.588,2.753
			v154.851c0,1.515-1.166,2.753-2.588,2.753l0,0c-1.423,0-2.588-1.238-2.588-2.753V11.044C180.285,9.531,181.45,8.291,182.873,8.291
			z"/>
		<path fill-rule="evenodd" clip-rule="evenodd" fill="#21A58D" d="M230.791,8.291L230.791,8.291c1.423,0,2.588,1.24,2.588,2.753
			v154.851c0,1.515-1.165,2.753-2.588,2.753l0,0c-1.424,0-2.588-1.238-2.588-2.753V11.044
			C228.203,9.531,229.367,8.291,230.791,8.291z"/>
		<path fill-rule="evenodd" clip-rule="evenodd" fill="#21A58D" d="M233.379,11.044L233.379,11.044c0,1.516-1.165,2.754-2.588,2.754
			h-47.918c-1.423,0-2.588-1.238-2.588-2.754l0,0c0-1.513,1.165-2.753,2.588-2.753h47.918
			C232.214,8.291,233.379,9.531,233.379,11.044z"/>
		<path fill-rule="evenodd" clip-rule="evenodd" fill="#21A58D" d="M233.379,43.391L233.379,43.391c0,0.759-0.582,1.377-1.294,1.377
			h-50.507c-0.711,0-1.293-0.618-1.293-1.377l0,0c0-0.756,0.582-1.375,1.293-1.375h50.507
			C232.797,42.016,233.379,42.635,233.379,43.391z"/>
		<path fill-rule="evenodd" clip-rule="evenodd" fill="#21A58D" d="M233.379,74.361L233.379,74.361c0,0.757-0.582,1.378-1.294,1.378
			h-50.507c-0.711,0-1.293-0.621-1.293-1.378l0,0c0-0.757,0.582-1.376,1.293-1.376h50.507
			C232.797,72.985,233.379,73.604,233.379,74.361z"/>
		<path fill-rule="evenodd" clip-rule="evenodd" fill="#21A58D" d="M233.379,105.331L233.379,105.331
			c0,0.758-0.582,1.377-1.294,1.377h-50.507c-0.711,0-1.293-0.619-1.293-1.377l0,0c0-0.757,0.582-1.375,1.293-1.375h50.507
			C232.797,103.956,233.379,104.574,233.379,105.331z"/>
		<path fill-rule="evenodd" clip-rule="evenodd" fill="#21A58D" d="M233.379,136.303L233.379,136.303
			c0,0.755-0.582,1.375-1.294,1.375h-50.507c-0.711,0-1.293-0.62-1.293-1.375l0,0c0-0.758,0.582-1.378,1.293-1.378h50.507
			C232.797,134.925,233.379,135.545,233.379,136.303z"/>
	</g>
	<rect x="197.456" y="116.253" fill-rule="evenodd" clip-rule="evenodd" fill="#BA3902" width="9.991" height="18.672"/>
	<rect x="196.121" y="116.253" fill-rule="evenodd" clip-rule="evenodd" fill="#E05E26" width="1.335" height="18.672"/>
	<rect x="198.795" y="120.656" fill-rule="evenodd" clip-rule="evenodd" fill="#E69D2A" width="7.313" height="1.319"/>
	<rect x="200.379" y="122.891" fill-rule="evenodd" clip-rule="evenodd" fill="#E69D2A" width="4.146" height="0.592"/>
	<rect x="185.461" y="114.918" fill-rule="evenodd" clip-rule="evenodd" fill="#FACDB9" width="4.246" height="20.007"/>
	<rect x="189.707" y="117.229" fill-rule="evenodd" clip-rule="evenodd" fill="#423E35" width="4.249" height="17.696"/>
	<rect x="193.956" y="122.719" fill-rule="evenodd" clip-rule="evenodd" fill="#54A2AC" width="2.165" height="12.206"/>
	<g>
		<path fill-rule="evenodd" clip-rule="evenodd" fill="#C6232F" d="M217.273,97.501h3.037c0.094,0,0.17-0.081,0.17-0.18v-2.282
			c0-0.101-0.076-0.181-0.17-0.181h-3.037c-0.094,0-0.17,0.08-0.17,0.181v2.282C217.104,97.42,217.18,97.501,217.273,97.501z"/>
		<path fill-rule="evenodd" clip-rule="evenodd" fill="#52A9B5" d="M217.467,96.512h2.65c0.049,0,0.088-0.042,0.088-0.093v-1.186
			c0-0.051-0.039-0.094-0.088-0.094h-2.65c-0.049,0-0.088,0.043-0.088,0.094v1.186C217.379,96.47,217.418,96.512,217.467,96.512z"/>
		<path fill-rule="evenodd" clip-rule="evenodd" fill="#E69D2A" d="M213.803,97.993h9.979c0.221,0,0.4,0.192,0.4,0.427v5.385
			c0,0.235-0.18,0.428-0.4,0.428h-9.979c-0.221,0-0.401-0.192-0.401-0.428V98.42C213.401,98.186,213.582,97.993,213.803,97.993z"/>
		<path fill-rule="evenodd" clip-rule="evenodd" fill="#C6232F" d="M213.932,98.271h9.721c0.137,0,0.249,0.118,0.249,0.264v5.156
			c0,0.146-0.112,0.266-0.249,0.266h-9.721c-0.137,0-0.249-0.12-0.249-0.266v-5.156C213.683,98.389,213.795,98.271,213.932,98.271z"
			/>
		<ellipse fill-rule="evenodd" clip-rule="evenodd" fill="#C6232F" cx="215.656" cy="99.052" rx="0.465" ry="0.496"/>
		<path fill-rule="evenodd" clip-rule="evenodd" fill="#ACEEF7" d="M217.479,96.048l2.598-0.805
			c0.018,0.015,0.029,0.038,0.029,0.065v0.205l-2.627,0.814V96.048z"/>
		<g>
			<path fill-rule="evenodd" clip-rule="evenodd" fill="#E69D2A" d="M215.711,98.63l-0.055,0.421l-0.234-0.344
				c0.066-0.052,0.146-0.081,0.234-0.081C215.676,98.626,215.693,98.627,215.711,98.63z"/>
			<path fill-rule="evenodd" clip-rule="evenodd" fill="#E69D2A" d="M216.055,99.11l-0.398-0.06l0.326-0.249
				c0.047,0.072,0.076,0.157,0.076,0.249C216.059,99.072,216.057,99.092,216.055,99.11z"/>
			<path fill-rule="evenodd" clip-rule="evenodd" fill="#E69D2A" d="M215.602,99.476l0.055-0.425l0.235,0.348
				c-0.065,0.052-0.147,0.082-0.235,0.082C215.639,99.48,215.621,99.478,215.602,99.476z"/>
			<path fill-rule="evenodd" clip-rule="evenodd" fill="#E69D2A" d="M215.26,98.993l0.396,0.058l-0.325,0.252
				c-0.047-0.069-0.075-0.156-0.075-0.252C215.256,99.033,215.257,99.014,215.26,98.993z"/>
		</g>
		<path fill-rule="evenodd" clip-rule="evenodd" fill="#E69D2A" d="M216.846,104.232c-0.181,0-0.329-0.149-0.329-0.332v-5.554
			c0-0.134,0.019-0.296,0.076-0.41l0.511-1.018c0.064-0.127,0.165-0.168,0.306-0.168c1.809,0,0.956,0,2.767,0
			c0.14,0,0.24,0.041,0.305,0.168l0.512,1.018c0.057,0.114,0.075,0.276,0.075,0.41v5.554c0,0.183-0.147,0.332-0.327,0.332H216.846z"
			/>
		<path fill-rule="evenodd" clip-rule="evenodd" fill="#C6232F" d="M216.918,97.993l0.396-0.828
			c0.056-0.116,0.145-0.153,0.268-0.153c1.583,0,0.838,0,2.42,0c0.124,0,0.212,0.037,0.268,0.153l0.397,0.828H216.918z"/>
		<path fill-rule="evenodd" clip-rule="evenodd" fill="#C6232F" d="M215.89,99.801c0.223,0.136,0.298,0.438,0.169,0.675
			c-0.128,0.238-0.412,0.318-0.635,0.183c-0.223-0.139-0.299-0.441-0.17-0.677C215.383,99.744,215.667,99.664,215.89,99.801z"/>
		<g>
			<path fill-rule="evenodd" clip-rule="evenodd" fill="#E69D2A" d="M215.902,99.892l-0.246,0.338l-0.041-0.425
				c0.082-0.009,0.166,0.007,0.242,0.055C215.874,99.869,215.889,99.88,215.902,99.892z"/>
			<path fill-rule="evenodd" clip-rule="evenodd" fill="#E69D2A" d="M215.974,100.491l-0.317-0.262l0.398-0.043
				c0.01,0.085-0.007,0.176-0.051,0.258C215.996,100.46,215.984,100.476,215.974,100.491z"/>
			<path fill-rule="evenodd" clip-rule="evenodd" fill="#E69D2A" d="M215.41,100.564l0.246-0.335l0.041,0.424
				c-0.082,0.01-0.166-0.007-0.242-0.055C215.439,100.588,215.424,100.576,215.41,100.564z"/>
			<path fill-rule="evenodd" clip-rule="evenodd" fill="#E69D2A" d="M215.34,99.967l0.316,0.263l-0.398,0.042
				c-0.008-0.085,0.008-0.175,0.051-0.256C215.318,99.998,215.329,99.981,215.34,99.967z"/>
		</g>
		<rect x="214.275" y="97.785" fill-rule="evenodd" clip-rule="evenodd" fill="#C6232F" width="0.943" height="0.208"/>
		<rect x="214.184" y="97.17" fill-rule="evenodd" clip-rule="evenodd" fill="#E69D2A" width="1.129" height="0.615"/>
		<rect x="222.365" y="97.785" fill-rule="evenodd" clip-rule="evenodd" fill="#C6232F" width="0.943" height="0.208"/>
		<rect x="222.271" y="97.17" fill-rule="evenodd" clip-rule="evenodd" fill="#E69D2A" width="1.131" height="0.615"/>
		<path fill-rule="evenodd" clip-rule="evenodd" fill="#E69D2A" d="M221.484,99.192h2.031c0.02,0,0.034-0.015,0.034-0.035v-0.45
			c0-0.02-0.015-0.034-0.034-0.034h-2.031c-0.018,0-0.032,0.015-0.032,0.034v0.45C221.452,99.178,221.467,99.192,221.484,99.192z"/>
		<path fill-rule="evenodd" clip-rule="evenodd" fill="#C6232F" d="M221.646,99.09h1.71c0.006,0,0.01-0.004,0.01-0.011v-0.136
			c0-0.006-0.004-0.011-0.01-0.011h-1.71c-0.005,0-0.009,0.005-0.009,0.011v0.136C221.637,99.086,221.641,99.09,221.646,99.09z"/>
		<g>
			<path fill-rule="evenodd" clip-rule="evenodd" fill="#52A9B5" d="M218.791,103.758c1,0,1.813-0.866,1.813-1.929
				c0-1.062-0.813-1.929-1.813-1.929c-0.998,0-1.811,0.867-1.811,1.929C216.98,102.892,217.793,103.758,218.791,103.758z"/>
			<g>
				<path fill-rule="evenodd" clip-rule="evenodd" fill="#52A9B5" d="M218.791,103.34c0.783,0,1.42-0.679,1.42-1.511
					c0-0.831-0.637-1.511-1.42-1.511c-0.78,0-1.418,0.68-1.418,1.511C217.373,102.661,218.011,103.34,218.791,103.34z"/>
				<g>
					<ellipse fill-rule="evenodd" clip-rule="evenodd" fill="#ACEEF7" cx="218.791" cy="101.829" rx="0.51" ry="0.541"/>
					<path fill-rule="evenodd" clip-rule="evenodd" fill="#ACEEF7" d="M218.061,100.845c0.111-0.098,0.291-0.194,0.466-0.236
						c0.177-0.041,0.237,0.22,0.058,0.263c-0.139,0.031-0.265,0.092-0.367,0.185C218.066,101.19,217.91,100.977,218.061,100.845z"/>
					<path fill-rule="evenodd" clip-rule="evenodd" fill="#ACEEF7" d="M217.684,102.252c-0.113-0.344-0.082-0.704,0.063-1.004
						c0.094-0.18,0.31-0.046,0.223,0.124c-0.115,0.235-0.142,0.521-0.048,0.789C217.991,102.364,217.746,102.439,217.684,102.252z"
						/>
				</g>
			</g>
		</g>
	</g>
	<g>
		<path fill-rule="evenodd" clip-rule="evenodd" fill="#E69D2A" d="M226.277,39.484L226.277,39.484l1.455,1.271l-1.441,1.26h1.588
			l0.324-0.283V39.78l-1.131-0.99l1.131-0.989v-1.952l-1.131-0.988l1.131-0.988v-1.953l-1.131-0.989l1.131-0.989v-1.951
			l-0.325-0.286h-1.587l1.441,1.262l-1.455,1.271l0,0v1.389l1.455,1.271l-1.455,1.271v1.387l1.455,1.271l-1.455,1.273V39.484z
			 M225.152,42.016h1.111l-1.111-0.972V42.016L225.152,42.016z M225.152,40.467l1.125-0.982v-1.387l-1.125-0.983v1.388l0.331,0.288
			l-0.331,0.288V40.467L225.152,40.467z M226.277,30.235l-1.125-0.981v1.388l0.331,0.288l-0.331,0.289v1.386l1.125-0.98V30.235
			L226.277,30.235z M225.152,28.676l1.111-0.973h-1.111V28.676L225.152,28.676z M226.277,34.167v1.387l-1.125,0.983v-1.388
			l0.331-0.288l-0.331-0.291v-1.386L226.277,34.167z M224.027,41.448L224.027,41.448l0.648,0.567h0.477v-0.972l-0.33-0.288
			l0.33-0.289v-1.389l-1.125,0.983V41.448L224.027,41.448z M225.152,29.254l-0.33-0.289l0.33-0.289v-0.973h-0.477l-0.648,0.568l0,0
			v1.387l1.125,0.983V29.254L225.152,29.254z M225.152,31.219v1.386l-0.33,0.291l0.33,0.289v1.386l-1.125-0.982v-1.387l0,0
			L225.152,31.219L225.152,31.219z M225.152,35.149v1.388l-0.33,0.287l0.33,0.29v1.388l-1.125-0.983l0,0v-1.388L225.152,35.149z
			 M222.902,40.467l0.33,0.289l-0.33,0.288v0.972h0.477l0.648-0.567v-1.387l-1.125-0.983V40.467L222.902,40.467z M224.027,28.271
			l-0.648-0.568h-0.477v0.973l0.33,0.289l-0.33,0.289v1.388l1.125-0.983V28.271L224.027,28.271z M224.027,32.201v1.387l-1.125,0.982
			v-1.386l0.33-0.289l-0.33-0.291v-1.386L224.027,32.201L224.027,32.201z M224.027,36.131v1.388l-1.125,0.983v-1.388l0.33-0.29
			l-0.33-0.287v-1.388L224.027,36.131z M221.778,39.484L221.778,39.484l1.124,0.982v-1.389l-0.331-0.288l0.331-0.288v-1.388
			l-1.124,0.983V39.484L221.778,39.484z M222.902,41.044l-1.111,0.972h1.111V41.044L222.902,41.044z M222.902,27.703h-1.111
			l1.111,0.973V27.703L222.902,27.703z M222.902,29.254l-1.124,0.981l0,0v1.389l1.124,0.98v-1.386l-0.331-0.289l0.331-0.288V29.254
			L222.902,29.254z M222.902,33.185v1.386l-0.331,0.29l0.331,0.289v1.388l-1.124-0.983l0,0v-1.387L222.902,33.185z M220.652,42.016
			h1.111l-1.111-0.972V42.016L220.652,42.016z M220.652,40.467l1.126-0.982v-1.387l-1.126-0.983v1.388l0.332,0.288l-0.332,0.288
			V40.467L220.652,40.467z M221.778,30.235l-1.126-0.981v1.388l0.332,0.288l-0.332,0.289v1.386l1.126-0.98V30.235L221.778,30.235z
			 M220.652,28.676l1.111-0.973h-1.111V28.676L220.652,28.676z M221.778,34.167v1.387l-1.126,0.983v-1.388l0.332-0.289l-0.332-0.29
			v-1.386L221.778,34.167z M219.527,41.448L219.527,41.448l0.648,0.567h0.477v-0.972l-0.33-0.288l0.33-0.289v-1.389l-1.125,0.983
			V41.448L219.527,41.448z M220.652,29.254l-0.33-0.289l0.33-0.289v-0.973h-0.477l-0.647,0.568h-0.001v1.387l1.125,0.983V29.254
			L220.652,29.254z M220.652,31.219v1.386l-0.33,0.291l0.33,0.289v1.386l-1.124-0.982h-0.001v-1.387h0.001L220.652,31.219
			L220.652,31.219z M220.652,35.149v1.388l-0.33,0.287l0.33,0.29v1.388l-1.124-0.983h-0.001v-1.388L220.652,35.149z M218.402,40.467
			l0.331,0.289l-0.331,0.288v0.972h0.477l0.648-0.567v-1.387l-1.125-0.983V40.467L218.402,40.467z M219.527,28.271l-0.648-0.568
			h-0.477v0.973l0.331,0.289l-0.331,0.289v1.388l1.125-0.983V28.271L219.527,28.271z M219.527,32.201v1.387l-1.125,0.982v-1.386
			l0.331-0.289l-0.331-0.291v-1.386L219.527,32.201L219.527,32.201z M219.527,36.131v1.388l-1.125,0.983v-1.388l0.331-0.29
			l-0.331-0.287v-1.388L219.527,36.131z M217.277,39.484L217.277,39.484l1.125,0.982v-1.389l-0.33-0.288l0.33-0.288v-1.388
			l-1.125,0.983V39.484L217.277,39.484z M218.402,41.044l-1.111,0.972h1.111V41.044L218.402,41.044z M218.402,27.703h-1.111
			l1.111,0.973V27.703L218.402,27.703z M218.402,29.254l-1.125,0.981l0,0v1.389l0,0l1.125,0.98v-1.386l-0.33-0.289l0.33-0.288
			V29.254L218.402,29.254z M218.402,33.185v1.386l-0.33,0.29l0.33,0.289v1.388l-1.125-0.983l0,0v-1.387l0,0L218.402,33.185z
			 M216.152,42.016h1.112l-1.112-0.972V42.016L216.152,42.016z M216.152,40.467l1.125-0.982v-1.387l-1.125-0.983v1.388l0.332,0.288
			l-0.332,0.288V40.467L216.152,40.467z M217.277,30.235l-1.125-0.981v1.387l0.332,0.289l-0.332,0.289v1.386l1.125-0.98V30.235
			L217.277,30.235z M216.152,28.676l1.112-0.973h-1.112V28.676L216.152,28.676z M217.277,34.167v1.387l-1.125,0.983v-1.388
			l0.332-0.289l-0.332-0.29v-1.386L217.277,34.167z M215.028,41.448L215.028,41.448l0.647,0.567h0.477v-0.972l-0.33-0.288
			l0.33-0.289v-1.389l-1.124,0.983V41.448L215.028,41.448z M216.152,29.254l-0.33-0.289l0.33-0.289v-0.973h-0.477l-0.647,0.568l0,0
			v1.387l0,0l1.124,0.982V29.254L216.152,29.254z M216.152,31.219v1.386l-0.33,0.291l0.33,0.289v1.386l-1.124-0.982l0,0v-1.387l0,0
			L216.152,31.219L216.152,31.219z M216.152,35.149v1.388l-0.33,0.287l0.33,0.29v1.388l-1.124-0.983l0,0v-1.388l0,0L216.152,35.149z
			 M213.903,40.467l0.33,0.289l-0.33,0.288v0.972h0.476l0.649-0.567v-1.387l-1.125-0.983V40.467L213.903,40.467z M215.028,28.271
			l-0.649-0.568h-0.476v0.973l0.33,0.289l-0.33,0.289v1.388l1.125-0.983V28.271L215.028,28.271z M215.028,32.201v1.387l-1.125,0.982
			v-1.386l0.33-0.289l-0.33-0.291v-1.386L215.028,32.201L215.028,32.201z M215.028,36.131v1.388l-1.125,0.983v-1.388l0.33-0.29
			l-0.33-0.287v-1.388L215.028,36.131z M212.778,39.484l1.125,0.982v-1.389l-0.332-0.288l0.332-0.288v-1.388l-1.125,0.983V39.484
			L212.778,39.484z M213.903,41.044l-1.112,0.972h1.112V41.044L213.903,41.044z M213.903,27.703h-1.112l1.112,0.973V27.703
			L213.903,27.703z M213.903,29.254l-1.125,0.981v1.389l1.125,0.98v-1.386l-0.332-0.289l0.332-0.288V29.254L213.903,29.254z
			 M213.903,33.185v1.386l-0.331,0.29l0.331,0.289v1.388l-1.125-0.983v-1.387L213.903,33.185z M211.652,42.016h1.111l-1.111-0.972
			V42.016L211.652,42.016z M211.652,40.467l1.126-0.982v-1.387l0,0l-1.126-0.983v1.388l0.332,0.288l-0.332,0.288V40.467
			L211.652,40.467z M212.778,30.235l-1.126-0.981v1.387l0.332,0.289l-0.332,0.289v1.386l1.126-0.98V30.235L212.778,30.235z
			 M211.652,28.676l1.113-0.973h-1.113V28.676L211.652,28.676z M212.778,34.167v1.387l-1.126,0.983v-1.388l0.332-0.289l-0.332-0.29
			v-1.387L212.778,34.167z M210.529,41.448l0.647,0.567h0.476v-0.972l-0.33-0.288l0.33-0.289v-1.389l-1.123,0.983V41.448
			L210.529,41.448z M211.652,29.254l-0.33-0.289l0.33-0.289v-0.973h-0.476l-0.647,0.568v1.387l1.123,0.982V29.254L211.652,29.254z
			 M211.652,31.219v1.386l-0.33,0.291l0.33,0.288v1.387l-1.123-0.982v-1.387L211.652,31.219L211.652,31.219z M211.652,35.149v1.388
			l-0.33,0.287l0.33,0.29v1.388l-1.123-0.983v-1.387L211.652,35.149z M209.404,40.467l0.33,0.289l-0.33,0.288v0.972h0.475
			l0.65-0.567v-1.387l0,0l-1.125-0.983V40.467L209.404,40.467z M210.529,28.271l-0.65-0.568h-0.475v0.973l0.33,0.289l-0.33,0.289
			v1.388l1.125-0.983V28.271L210.529,28.271z M210.529,32.201v1.387l-1.125,0.982v-1.386l0.33-0.289l-0.33-0.291v-1.388
			L210.529,32.201L210.529,32.201z M210.529,36.132v1.387l-1.125,0.983v-1.388l0.33-0.29l-0.33-0.287v-1.388L210.529,36.132z
			 M208.277,39.484L208.277,39.484l1.127,0.982v-1.389l-0.332-0.288l0.332-0.288v-1.388l-1.127,0.983l0,0V39.484L208.277,39.484z
			 M209.404,41.044l-1.113,0.972h1.113V41.044L209.404,41.044z M209.404,27.703h-1.113l1.113,0.973V27.703L209.404,27.703z
			 M209.404,29.254l-1.127,0.981l0,0v1.389l0,0l1.127,0.98v-1.388l-0.332-0.287l0.332-0.288V29.254L209.404,29.254z M209.404,33.185
			v1.386l-0.332,0.291l0.332,0.288v1.388l-1.127-0.983l0,0v-1.387l0,0L209.404,33.185z M206.678,42.016h1.587l-1.442-1.26
			l1.455-1.271v-1.387l-1.455-1.273l1.455-1.271v-1.387l-1.455-1.271l1.455-1.271v-1.389l-1.455-1.271l1.442-1.262h-1.587
			l-0.326,0.286v1.951l1.133,0.989l-1.133,0.989v1.953l1.133,0.988l-1.133,0.988v1.952l1.133,0.989l-1.133,0.99v1.952
			L206.678,42.016z"/>
		<rect x="206.352" y="27.703" fill-rule="evenodd" clip-rule="evenodd" fill="#E69D2A" width="21.852" height="1.046"/>
		<rect x="206.352" y="27.703" fill-rule="evenodd" clip-rule="evenodd" fill="#E69D2A" width="0.982" height="14.313"/>
		<rect x="227.221" y="27.703" fill-rule="evenodd" clip-rule="evenodd" fill="#E69D2A" width="0.982" height="14.313"/>
		<rect x="206.352" y="40.971" fill-rule="evenodd" clip-rule="evenodd" fill="#E69D2A" width="21.852" height="1.045"/>
	</g>
	<rect x="209.064" y="62.789" fill-rule="evenodd" clip-rule="evenodd" fill="#BA3902" width="18.258" height="10.196"/>
	<rect x="208.183" y="60.507" fill-rule="evenodd" clip-rule="evenodd" fill="#FACDB9" width="20.021" height="2.282"/>
	<rect x="213.006" y="54.712" fill-rule="evenodd" clip-rule="evenodd" fill="#40919C" width="10.375" height="5.795"/>
	<rect x="212.506" y="53.415" fill-rule="evenodd" clip-rule="evenodd" fill="#52A9B5" width="11.375" height="1.297"/>
	<path fill-rule="evenodd" clip-rule="evenodd" fill="#FFFFFF" d="M201.554,30.25c0.438,2.565-0.464,5.104-2.216,6.734l-5.929,1.619
		c-2.274-0.533-4.214-2.296-4.989-4.768L201.554,30.25z"/>
	<path fill-rule="evenodd" clip-rule="evenodd" fill="#423E35" d="M201.822,36.079c-0.175,2.599-1.642,4.818-3.721,5.937h-6.119
		c-2.081-1.118-3.545-3.338-3.721-5.937H201.822z"/>
	<rect x="187.029" y="95.383" fill-rule="evenodd" clip-rule="evenodd" fill="#BA3902" width="19.643" height="8.573"/>
	<rect x="186.081" y="93.462" fill-rule="evenodd" clip-rule="evenodd" fill="#E05E26" width="21.54" height="1.921"/>
	<rect x="187.029" y="84.892" fill-rule="evenodd" clip-rule="evenodd" fill="#423E35" width="19.643" height="8.57"/>
	<rect x="186.081" y="82.971" fill-rule="evenodd" clip-rule="evenodd" fill="#666259" width="21.54" height="1.921"/>
	<g>
		<rect x="207.466" y="150.41" fill-rule="evenodd" clip-rule="evenodd" fill="#FACDB9" width="20.737" height="12.732"/>
		<path fill-rule="evenodd" clip-rule="evenodd" fill="#A7F2CE" d="M213.157,154.316L213.157,154.316
			c0-0.466,0.358-0.848,0.796-0.848h7.763c0.438,0,0.796,0.382,0.796,0.848l0,0c0,0.467-0.357,0.848-0.796,0.848h-7.763
			C213.516,155.164,213.157,154.783,213.157,154.316z"/>
		<rect x="207.466" y="137.678" fill-rule="evenodd" clip-rule="evenodd" fill="#FFFFFF" width="20.737" height="12.732"/>
		<path fill-rule="evenodd" clip-rule="evenodd" fill="#A7F2CE" d="M213.157,141.583L213.157,141.583
			c0-0.465,0.358-0.846,0.796-0.846h7.763c0.438,0,0.796,0.381,0.796,0.846l0,0c0,0.467-0.357,0.849-0.796,0.849h-7.763
			C213.516,142.432,213.157,142.05,213.157,141.583z"/>
	</g>
	<g>
		<rect x="185.46" y="150.41" fill-rule="evenodd" clip-rule="evenodd" fill="#BA3902" width="22.006" height="12.732"/>
		<path fill-rule="evenodd" clip-rule="evenodd" fill="#A7F2CE" d="M191.5,154.316L191.5,154.316c0-0.466,0.357-0.848,0.795-0.848
			h8.336c0.438,0,0.797,0.382,0.797,0.848l0,0c0,0.467-0.359,0.848-0.797,0.848h-8.336C191.857,155.164,191.5,154.783,191.5,154.316
			z"/>
		<rect x="185.46" y="137.678" fill-rule="evenodd" clip-rule="evenodd" fill="#E69D2A" width="22.006" height="12.732"/>
		<path fill-rule="evenodd" clip-rule="evenodd" fill="#A7F2CE" d="M191.5,141.583L191.5,141.583c0-0.465,0.357-0.846,0.795-0.846
			h8.336c0.438,0,0.797,0.381,0.797,0.846l0,0c0,0.467-0.359,0.849-0.797,0.849h-8.336C191.857,142.432,191.5,142.05,191.5,141.583z
			"/>
	</g>
	<rect x="185.461" y="53.932" fill-rule="evenodd" clip-rule="evenodd" fill="#E69D2A" width="4.045" height="19.054"/>
	<rect x="189.506" y="59.419" fill-rule="evenodd" clip-rule="evenodd" fill="#FFFFFF" width="1.846" height="13.566"/>
	<rect x="191.352" y="56.132" fill-rule="evenodd" clip-rule="evenodd" fill="#BA3902" width="4.045" height="16.854"/>
	<rect x="195.396" y="56.132" fill-rule="evenodd" clip-rule="evenodd" fill="#21A58D" width="2.022" height="16.854"/>
	<polygon fill-rule="evenodd" clip-rule="evenodd" fill="#FFFFFF" points="199.586,72.985 201.59,72.69 199.424,55.995 
		197.419,56.289 	"/>
	<g>
		<rect x="215.319" y="124.482" fill-rule="evenodd" clip-rule="evenodd" fill="#54A2AC" width="2.342" height="2.491"/>
		<rect x="217.661" y="124.482" fill-rule="evenodd" clip-rule="evenodd" fill="#BA3902" width="2.341" height="2.491"/>
		<rect x="220.002" y="124.482" fill-rule="evenodd" clip-rule="evenodd" fill="#E69D2A" width="2.343" height="2.491"/>
		<rect x="215.319" y="126.974" fill-rule="evenodd" clip-rule="evenodd" fill="#BA3902" width="2.342" height="2.491"/>
		<rect x="217.661" y="126.974" fill-rule="evenodd" clip-rule="evenodd" fill="#E69D2A" width="2.341" height="2.491"/>
		<rect x="220.002" y="126.974" fill-rule="evenodd" clip-rule="evenodd" fill="#54A2AC" width="2.343" height="2.491"/>
		<rect x="215.319" y="129.465" fill-rule="evenodd" clip-rule="evenodd" fill="#E69D2A" width="2.342" height="2.491"/>
		<rect x="217.661" y="129.465" fill-rule="evenodd" clip-rule="evenodd" fill="#54A2AC" width="2.341" height="2.491"/>
		<rect x="220.002" y="129.465" fill-rule="evenodd" clip-rule="evenodd" fill="#BA3902" width="2.343" height="2.491"/>
	</g>
	<path fill-rule="evenodd" clip-rule="evenodd" fill="#423E35" d="M210.254,131.956c0.613,1.275,2.189,2.345,4.285,2.969h8.585
		c2.098-0.624,3.673-1.693,4.286-2.969H210.254z"/>
</g>
<g>
	<path fill-rule="evenodd" clip-rule="evenodd" fill="#21A58D" d="M177.756,98.844v0.002c0,2.108-1.727,3.832-3.834,3.832H13.541
		c-2.108,0-3.833-1.724-3.833-3.832v-0.002c0-2.106,1.725-3.832,3.833-3.832h160.381C176.029,95.012,177.756,96.737,177.756,98.844z
		"/>
	<path fill-rule="evenodd" clip-rule="evenodd" fill="#21A58D" d="M13.541,168.945L13.541,168.945c-2.108,0-3.833-1.726-3.833-3.834
		V98.844c0-2.106,1.725-3.832,3.833-3.832l0,0c2.109,0,3.834,1.726,3.834,3.832v66.268C17.375,167.22,15.649,168.945,13.541,168.945
		z"/>
	<rect x="17.375" y="102.678" fill-rule="evenodd" clip-rule="evenodd" fill="#E69D2A" width="55.381" height="29.642"/>
	<path fill-rule="evenodd" clip-rule="evenodd" fill="#21A58D" d="M74.673,134.07L74.673,134.07c0,0.963-0.788,1.751-1.751,1.751
		H11.458c-0.962,0-1.75-0.788-1.75-1.751l0,0c0-0.962,0.788-1.751,1.75-1.751h61.464C73.885,132.319,74.673,133.108,74.673,134.07z"
		/>
	<rect x="17.375" y="135.821" fill-rule="evenodd" clip-rule="evenodd" fill="#E69D2A" width="55.381" height="29.642"/>
	<path fill-rule="evenodd" clip-rule="evenodd" fill="#21A58D" d="M76.584,167.202v0.002c0,0.957-0.783,1.741-1.741,1.741H13.356
		c-0.957,0-1.741-0.784-1.741-1.741v-0.002c0-0.955,0.784-1.739,1.741-1.739h61.487C75.801,165.463,76.584,166.247,76.584,167.202z"
		/>
	<path fill-rule="evenodd" clip-rule="evenodd" fill="#21A58D" d="M74.673,168.945L74.673,168.945c-1.054,0-1.917-0.864-1.917-1.917
		v-70.1c0-1.055,0.863-1.917,1.917-1.917l0,0c1.054,0,1.917,0.862,1.917,1.917v70.1C76.59,168.081,75.727,168.945,74.673,168.945z"
		/>
	<path fill-rule="evenodd" clip-rule="evenodd" fill="#FFFFFF" d="M58.472,108.876v0.002c0,0.962-0.788,1.749-1.751,1.749H33.408
		c-0.963,0-1.75-0.787-1.75-1.749v-0.002c0-0.962,0.788-1.75,1.75-1.75h23.313C57.685,107.126,58.472,107.914,58.472,108.876z"/>
	<path fill-rule="evenodd" clip-rule="evenodd" fill="#FFFFFF" d="M58.473,142.01L58.473,142.01c0,0.958-0.783,1.742-1.741,1.742
		H33.398c-0.958,0-1.741-0.784-1.741-1.742l0,0c0-0.957,0.783-1.74,1.741-1.74h23.334C57.69,140.27,58.473,141.053,58.473,142.01z"
		/>
	<g>
		<polygon fill-rule="evenodd" clip-rule="evenodd" fill="#423E35" points="117.438,84.349 129.995,84.349 135.881,95.012 
			111.553,95.012 		"/>
		<path fill-rule="evenodd" clip-rule="evenodd" fill="#423E35" d="M94.128,48.793h59.177c1.665,0,3.027,1.363,3.027,3.029v32.203
			c0,1.665-1.362,3.026-3.027,3.026H94.128c-1.666,0-3.027-1.361-3.027-3.026V51.822C91.101,50.156,92.462,48.793,94.128,48.793z"/>
		<rect x="93.11" y="50.561" fill-rule="evenodd" clip-rule="evenodd" fill="#ACEEF7" width="61.212" height="31.085"/>
		<circle fill-rule="evenodd" clip-rule="evenodd" fill="#808281" cx="152.656" cy="84.377" r="0.394"/>
		<circle fill-rule="evenodd" clip-rule="evenodd" fill="#808281" cx="151.121" cy="84.377" r="0.394"/>
		<circle fill-rule="evenodd" clip-rule="evenodd" fill="#808281" cx="149.586" cy="84.377" r="0.394"/>
		<path fill-rule="evenodd" clip-rule="evenodd" fill="#423E35" d="M87.604,91.789h72.227c0.886,0,1.611,0.725,1.611,1.611l0,0
			c0,0.887-0.726,1.611-1.611,1.611H87.604c-0.887,0-1.611-0.725-1.611-1.611l0,0C85.992,92.514,86.717,91.789,87.604,91.789z"/>
		<path fill-rule="evenodd" clip-rule="evenodd" fill="#423E35" d="M161.441,93.4c0,0.887-0.726,1.611-1.611,1.611H87.604
			c-0.887,0-1.611-0.725-1.611-1.611H161.441z"/>
	</g>
	<g>
		<polygon fill-rule="evenodd" clip-rule="evenodd" fill="#BEF3FA" points="143.572,50.561 111.918,81.646 104.085,81.646 
			135.74,50.561 		"/>
		<polygon fill-rule="evenodd" clip-rule="evenodd" fill="#BEF3FA" points="153.363,50.561 121.699,81.646 117.232,81.646 
			148.889,50.561 		"/>
		<polygon fill-rule="evenodd" clip-rule="evenodd" fill="#BEF3FA" points="130.426,50.561 98.769,81.646 94.294,81.646 
			125.959,50.561 		"/>
	</g>
	<g>
		<path fill-rule="evenodd" clip-rule="evenodd" fill="#423E35" d="M166.901,95.012c1.377,0,2.499-1.123,2.499-2.499
			s-1.122-2.498-2.499-2.498c-1.376,0-2.498,1.122-2.498,2.498S165.525,95.012,166.901,95.012z"/>
		<path fill-rule="evenodd" clip-rule="evenodd" fill="#423E35" d="M169.4,92.513v1.396c0,0.606-0.496,1.103-1.104,1.103h-2.791
			c-0.607,0-1.103-0.496-1.103-1.103v-1.396H169.4z"/>
	</g>
	<g>
		<path fill-rule="evenodd" clip-rule="evenodd" fill="#E05E26" d="M105.804,26.262L105.804,26.262
			c0.311,0.775-0.069,1.665-0.844,1.976L55.458,48.106c-0.775,0.311-1.665-0.069-1.976-0.846l0,0
			c-0.312-0.774,0.068-1.664,0.844-1.975l49.501-19.869C104.603,25.104,105.492,25.485,105.804,26.262z"/>
		<path fill-rule="evenodd" clip-rule="evenodd" fill="#E05E26" d="M44.2,91.438L44.2,91.438c-0.836,0-1.346-0.982-1.174-1.799
			l8.658-41.204c0.172-0.816,0.964-1.174,1.799-1.174l0,0c0.836,0,1.346,0.981,1.175,1.8l-8.658,41.202
			C45.828,91.08,45.036,91.438,44.2,91.438z"/>
		<g>
			<g>
				<path fill-rule="evenodd" clip-rule="evenodd" fill="#E05E26" d="M48.429,80.118l6.131-29.624l-3.351-0.692l-2.78,13.431v6.431
					l4.055-19.593l0.798,0.166l-4.854,23.451V80.118z M42.3,92.844l3.351,0.694l2.778-13.42v-6.431l-4.055,19.591l-0.798-0.164
					l4.853-23.451v-6.431L42.3,92.844z"/>
				<path fill-rule="evenodd" clip-rule="evenodd" fill="#E69D2A" d="M105.309,37.542c1.852,0,3.36-1.51,3.36-3.361
					c0-1.85-1.509-3.359-3.36-3.359c-1.851,0-3.36,1.51-3.36,3.359C101.949,36.032,103.458,37.542,105.309,37.542z"/>
				<circle fill-rule="evenodd" clip-rule="evenodd" fill="#E05E26" cx="95.148" cy="17.354" r="1.068"/>
				<path fill-rule="evenodd" clip-rule="evenodd" fill="#BA3902" d="M95.148,17.354c1.074-0.648,2.209-1.129,3.383-1.454
					l4.463,5.472c4.459-0.165,9.291,2.531,12.286,7.285c-3.244,1.636-6.591,3.483-9.972,5.523c-3.38,2.042-6.574,4.144-9.532,6.252
					c-2.813-4.862-2.949-10.396-0.727-14.264l-2.763-6.499C93.122,18.782,94.076,18.002,95.148,17.354z"/>
				<circle fill-rule="evenodd" clip-rule="evenodd" fill="#BA3902" cx="53.482" cy="47.262" r="3.603"/>
			</g>
			<path fill-rule="evenodd" clip-rule="evenodd" fill="#BA3902" d="M44.93,86.437c4.736,0,8.575,3.839,8.575,8.575l0,0H36.356l0,0
				C36.356,90.275,40.195,86.437,44.93,86.437z"/>
		</g>
	</g>
	<g>
		<path fill-rule="evenodd" clip-rule="evenodd" fill="#423E35" d="M20.355,94.348c3.267,0,5.932-2.665,5.932-5.933
			s-2.665-5.932-5.932-5.932c-3.267,0-5.932,2.664-5.932,5.932S17.088,94.348,20.355,94.348z"/>
		<path fill-rule="evenodd" clip-rule="evenodd" fill="#FACDB9" d="M20.355,93.241c2.657,0,4.826-2.168,4.826-4.826
			s-2.169-4.825-4.826-4.825c-2.658,0-4.826,2.167-4.826,4.825S17.697,93.241,20.355,93.241z"/>
		<path fill-rule="evenodd" clip-rule="evenodd" fill="#BA3902" d="M17.005,81.024c0.826,0,1.565,0.364,2.067,0.94
			c-1.896,0.376-3.499,1.565-4.428,3.19c-0.24-0.408-0.379-0.884-0.379-1.392C14.265,82.251,15.492,81.024,17.005,81.024
			L17.005,81.024z M23.704,81.024c1.514,0,2.741,1.227,2.741,2.739c0,0.508-0.138,0.983-0.38,1.392
			c-0.929-1.625-2.532-2.814-4.428-3.19C22.14,81.389,22.879,81.024,23.704,81.024z"/>
		<path fill-rule="evenodd" clip-rule="evenodd" fill="#BA3902" d="M17.55,94.362c-0.168,0.383-0.55,0.649-0.995,0.649
			c-0.599,0-1.086-0.487-1.086-1.087c0-0.304,0.125-0.577,0.325-0.775C16.307,93.645,16.899,94.056,17.55,94.362z"/>
		<path fill-rule="evenodd" clip-rule="evenodd" fill="#BA3902" d="M24.917,93.149c0.2,0.198,0.324,0.472,0.324,0.775
			c0,0.6-0.486,1.087-1.086,1.087c-0.444,0-0.826-0.267-0.995-0.649C23.811,94.056,24.403,93.645,24.917,93.149z"/>
		<path fill-rule="evenodd" clip-rule="evenodd" fill="#BA3902" d="M20.355,84.901L20.355,84.901c0.152,0,0.277,0.124,0.277,0.277
			v2.96c0,0.152-0.125,0.276-0.277,0.276l0,0c-0.153,0-0.277-0.124-0.277-0.276v-2.96C20.078,85.025,20.202,84.901,20.355,84.901z"
			/>
		<path fill-rule="evenodd" clip-rule="evenodd" fill="#BA3902" d="M18.142,86.44L18.142,86.44c0.101-0.113,0.277-0.123,0.391-0.021
			l1.799,1.605c0.114,0.102,0.124,0.276,0.022,0.391l0,0c-0.102,0.114-0.277,0.123-0.391,0.022l-1.8-1.606
			C18.05,86.729,18.041,86.554,18.142,86.44z"/>
		<circle fill-rule="evenodd" clip-rule="evenodd" fill="#BA3902" cx="20.355" cy="84.309" r="0.306"/>
		<circle fill-rule="evenodd" clip-rule="evenodd" fill="#BA3902" cx="24.621" cy="88.535" r="0.306"/>
		<circle fill-rule="evenodd" clip-rule="evenodd" fill="#BA3902" cx="20.396" cy="92.8" r="0.306"/>
		<circle fill-rule="evenodd" clip-rule="evenodd" fill="#BA3902" cx="16.13" cy="88.576" r="0.306"/>
		<path fill-rule="evenodd" clip-rule="evenodd" fill="#BA3902" d="M20.355,78.958c2.222,0,4.111,1.036,4.802,2.483
			c0.295,0.185,0.553,0.425,0.759,0.705c-0.339-2.053-2.7-3.644-5.561-3.644c-2.862,0-5.222,1.591-5.561,3.644
			c0.206-0.28,0.463-0.521,0.758-0.705C16.244,79.994,18.132,78.958,20.355,78.958z"/>
		<circle fill-rule="evenodd" clip-rule="evenodd" fill="#BA3902" cx="20.355" cy="88.415" r="0.716"/>
	</g>
	<g>
		<polygon fill-rule="evenodd" clip-rule="evenodd" fill="#E69D2A" points="74.652,81.38 83.853,81.38 82.797,95.012 75.708,95.012 
					"/>
		<rect x="74.285" y="80.379" fill-rule="evenodd" clip-rule="evenodd" fill="#21A58D" width="9.935" height="1.001"/>
		<polygon fill-rule="evenodd" clip-rule="evenodd" fill="#E69D2A" points="74.692,80.379 83.813,80.379 83.227,78.503 
			75.278,78.503 		"/>
		<polygon fill-rule="evenodd" clip-rule="evenodd" fill="#21A58D" points="83.656,83.93 83.105,91.031 75.4,91.031 74.85,83.93 		
			"/>
		<path fill-rule="evenodd" clip-rule="evenodd" fill="#FFFFFF" d="M79.252,90.532c1.682,0,3.053-1.37,3.053-3.053
			c0-1.681-1.371-3.051-3.053-3.051c-1.681,0-3.051,1.37-3.051,3.051C76.201,89.162,77.571,90.532,79.252,90.532z"/>
		<path fill-rule="evenodd" clip-rule="evenodd" fill="#21A58D" d="M79.252,88.876c0.77,0,1.397-0.627,1.397-1.396
			c0-0.768-0.628-1.396-1.397-1.396c-0.769,0-1.396,0.629-1.396,1.396C77.856,88.249,78.483,88.876,79.252,88.876z"/>
	</g>
</g>
<path fill="#4A5150" d="M155.795,80.014c0,2.351-1.539,4.256-3.438,4.256H95.726c-1.899,0-3.438-1.905-3.438-4.256V53.299
	c0-2.352,1.539-4.256,3.438-4.256h56.632c1.898,0,3.438,1.905,3.438,4.256V80.014z"/>
<path fill="#00AFF0" d="M153.906,52.418c0,0.828,1.829,1.5,0,1.5H93.897c-1.83,0,0-0.672,0-1.5v-0.055c0-0.828,1.483-1.5,3.313-1.5
	h53.384c1.829,0,3.313,0.672,3.313,1.5V52.418z"/>
<rect x="112.326" y="56.375" fill="#7D9187" width="24.129" height="23.375"/>
<g>
	<path fill="#0F0F0F" d="M134.952,80.12c-0.194-0.767-0.449-1.477-0.751-2.189c-0.782-1.839-1.939-3.107-3.259-4.088l-13.594-0.388
		c-1.268,1.507-2.591,3.119-3.059,5.454c-0.084,0.42-0.186,0.818-0.287,1.212H134.952z"/>
	<path id="head_1_" d="M132.373,71.248c0.92-1.598,1.114-3.264,0.834-5.086c-0.175-1.127-0.697-2.161-1.054-3.235
		c-0.297-0.896-1.26-2.066-1.928-2.776c-0.948-1.004-1.44-1.52-2.765-1.89c-0.354-0.098-0.718-0.176-1.087-0.234
		c-0.936-0.151-1.917-0.19-2.906-0.19c0,0-1.34,0.283-1.846,0.424c-1.324,0.37-1.817,0.885-2.764,1.89
		c-0.669,0.71-1.631,1.88-1.929,2.776c-0.357,1.074-0.88,2.108-1.054,3.235c-0.28,1.82-0.084,3.488,0.835,5.086l0.104,0.35
		c0.242,0.697,0.633,1.401,1.16,1.921c0.578,0.569,1.236,1.052,1.89,1.529c0.512,0.375,0.997,0.398,1.578,0.546
		c0.778,0.195,1.532,0.423,2.339,0.492c0.531,0.045,1.071-0.022,1.59-0.046c0.509-0.025,0.985,0.11,1.495,0.09
		c0.978-0.039,2.366-0.295,3.084-1.007c0.487-0.485,0.705-1.09,0.942-1.707c0.202-0.524,0.542-0.726,0.907-1.093
		C132.103,72.019,132.162,71.615,132.373,71.248z"/>
	<path id="leftBrow" fill="#EAAE36" d="M121.292,59.369c0.421,0.756,1.208,1.385,1.095,2.382l0.854-1.601
		c0.067-0.43-0.26-0.827-0.609-1.034L121.292,59.369z"/>
	<path id="rightBrow" fill="#EAAE36" d="M127.695,59.369c-0.422,0.756-1.208,1.385-1.098,2.382l-0.851-1.601
		c-0.068-0.43,0.26-0.827,0.608-1.034L127.695,59.369z"/>
	<g id="leftEye_1_">
		<circle fill="none" stroke="#000000" stroke-width="0.0773" stroke-miterlimit="10" cx="120.051" cy="64.577" r="1.035"/>
		<circle fill="#E08C2F" stroke="#000000" stroke-width="0.0907" stroke-miterlimit="10" cx="120.051" cy="64.576" r="1.655"/>
		<circle cx="120.051" cy="64.577" r="1.035"/>
		<path fill="#FFFFFF" d="M120.318,64.738c0,0.282,0.204,0.515,0.472,0.562c0.182-0.187,0.295-0.441,0.295-0.724
			c0-0.14-0.028-0.272-0.078-0.394c-0.039-0.009-0.078-0.013-0.119-0.013C120.573,64.169,120.318,64.424,120.318,64.738z"/>
	</g>
	<g id="rightEye_1_">
		<circle fill="none" stroke="#000000" stroke-width="0.0773" stroke-miterlimit="10" cx="129.032" cy="64.939" r="1.034"/>
		<circle fill="#E08C2F" cx="129.032" cy="64.938" r="1.655"/>
		<circle cx="129.032" cy="64.939" r="1.034"/>
		<path fill="#FFFFFF" d="M128.764,65.102c0,0.281-0.205,0.514-0.472,0.56c-0.183-0.186-0.294-0.441-0.294-0.721
			c0-0.14,0.026-0.274,0.076-0.397c0.04-0.007,0.078-0.012,0.119-0.012C128.507,64.531,128.764,64.786,128.764,65.102z"/>
	</g>
	<path fill="#232323" d="M124.526,73.407c0.155,0.091,0.803,0.212,1.021,0.247c0.285,0.048,0.642-0.305,0.858-0.454
		c0.424-0.286,0.293-0.322,0.348-0.751c0.052-0.41,0.345-0.447,0.492-0.808c0.645-1.57-1.753-1.863-2.721-1.863h0.055h0.065h0.052
		c-0.967,0-3.364,0.291-2.72,1.861c0.148,0.36,0.44,0.407,0.492,0.818c0.056,0.428-0.075,0.453,0.347,0.738
		c0.218,0.148,0.574,0.51,0.859,0.463c0.215-0.037,0.865-0.16,1.021-0.251H124.526L124.526,73.407z"/>
	<path fill="#EAAE36" d="M131.578,70.318c0.537,0.473,0.422,1.801,0.329,2.434c-0.506,3.46-4.204,5.464-7.392,5.464h0.215
		c-3.187,0-6.885-2.004-7.392-5.464c-0.092-0.633-0.209-1.949,0.33-2.422l0.514,0.265c0.899,1.133,1.498,2.539,2.71,3.393
		c0.689,0.486,2.922,1.747,3.681,0.833l0.231,0.092c0.76,0.914,3.082-0.441,3.772-0.927c1.211-0.854,1.81-2.263,2.709-3.395
		L131.578,70.318z"/>
	<path id="leftEar_1_" fill="#0F0F0F" d="M116.434,70.721c-0.68-1.438-0.808-2.936-0.559-4.56c0.174-1.127,0.697-2.161,1.054-3.235
		c0.298-0.896,1.531-2.339,2.201-3.047l-0.02,0.013c-0.754,0.127-1.759,0.569-2.459,0.942c-0.767,0.407-1.363,0.87-1.94,1.561
		c-1.216,1.455-1.089,3.526-1.089,5.343c0,0.957-0.098,1.955,0.318,2.819c0.157,0.327,1.403,0.707,2.376-0.051"/>
	<path id="rightEar_1_" fill="#0F0F0F" d="M132.452,70.988c0.729-1.414,0.909-2.907,0.715-4.538
		c-0.135-1.131-0.621-2.184-0.939-3.269c-0.268-0.905-1.451-2.39-2.095-3.122l0.019,0.014c0.751,0.153,1.739,0.63,2.425,1.027
		c0.754,0.433,1.334,0.915,1.888,1.626c1.163,1.497,0.965,3.562,0.9,5.376c-0.032,0.957,0.031,1.957-0.415,2.808
		c-0.168,0.32-1.425,0.658-2.372-0.135"/>
	<path fill="none" stroke="#000000" stroke-width="0.0907" stroke-miterlimit="10" d="M124.598,74.859
		c0.126,0.754,0.03,1.367-0.316,1.997"/>
	<path id="smile_1_" fill="none" stroke="#000000" stroke-width="0.0907" stroke-miterlimit="10" d="M127.241,77.711
		c-1.266,0.163-1.912-0.333-3.064-0.798c0,0-2.25,0.339-3.488,0.22"/>
	<ellipse cx="123.701" cy="72.597" rx="0.472" ry="0.378"/>
	<ellipse cx="125.679" cy="72.652" rx="0.471" ry="0.378"/>
	<path fill="none" d="M118.248,75.403c-1.101,0.57-2.066,1.309-2.72,2.38c-0.332,0.544-0.592,1.085-0.761,1.701
		c-0.107,0.391-0.122,1.173-0.329,1.498"/>
	<g id="openMouth_1_">
		<path d="M124.266,76.913c0,0-0.866,0.131-1.82,0.201l-0.085,0.043c0.596,0.144,0.963,0.563,1.633,0.605
			c0.454,0.027,1.331-0.364,1.331-0.364c0.005-0.004,0.011-0.01,0.017-0.016C125.013,77.243,124.671,77.077,124.266,76.913z"/>
		<path fill="#ED2020" d="M123.993,77.763c0.16,0.01,0.374-0.034,0.585-0.093c-0.239-0.21-0.439-0.353-0.556-0.361
			c-0.294-0.028-0.475,0.135-0.682,0.284C123.535,77.678,123.742,77.747,123.993,77.763z"/>
	</g>
</g>
</svg>
