<svg version="1.1" id="Layer_1" xmlns="http://www.w3.org/2000/svg" xmlns:xlink="http://www.w3.org/1999/xlink" x="0px" y="0px"
	 width="245px" height="245px" viewBox="77.5 77.5 245 245" enable-background="new 77.5 77.5 245 245" xml:space="preserve">
<path fill="#86F47A" d="M321,319.045c0,1.631-1.323,2.955-2.955,2.955H82.63c-1.632,0-2.955-1.324-2.955-2.955V83.63
	c0-1.632,1.323-2.955,2.955-2.955h235.415c1.632,0,2.955,1.323,2.955,2.955V319.045z"/>
<g>
	<rect x="161.578" y="115.527" fill="#A7E8FC" width="150.385" height="109.323"/>
	<path fill="#FFFFFF" d="M208.377,127.16c-0.244,0-0.484,0.015-0.722,0.041c-0.731-4.703-4.799-8.303-9.707-8.303
		c-4.124,0-7.65,2.541-9.108,6.14c-1.892-0.827-3.981-1.289-6.18-1.289c-8.528,0-15.445,6.916-15.445,15.446
		c0,8.531,6.917,15.447,15.445,15.447c4.888,0,9.241-2.271,12.071-5.813c1.449,1.292,3.353,2.083,5.448,2.083
		c4.526,0,8.198-3.67,8.198-8.198c0-0.843-0.128-1.657-0.364-2.424c0.12,0.007,0.24,0.019,0.364,0.019
		c3.632,0,6.574-2.944,6.574-6.576C214.951,130.104,212.009,127.16,208.377,127.16"/>
	<path fill="#FFFFFF" d="M257.261,140.166c0-0.614-0.248-1.171-0.651-1.575c0.41-0.675,0.651-1.466,0.651-2.313
		c0-2.466-1.999-4.464-4.464-4.464c-2.28,0-4.158,1.71-4.428,3.918c-0.011,0-0.023-0.002-0.037-0.002
		c-1.684,0-3.05,1.366-3.05,3.051c0,1.685,1.366,3.051,3.05,3.051c1.116,0,2.088-0.6,2.62-1.493
		c0.563,0.256,1.186,0.403,1.845,0.403c0.027,0,0.055-0.004,0.082-0.004c0.254,0.954,1.116,1.662,2.15,1.662
		C256.262,142.398,257.261,141.399,257.261,140.166"/>
	<path fill="#FFFFFF" d="M290.776,140.311c-4.986,0-9.327,2.769-11.567,6.851c-2.137-2.706-5.444-4.446-9.159-4.446
		c-6.443,0-11.666,5.223-11.666,11.666c0,6.442,5.223,11.665,11.666,11.665c0.231,0,0.463-0.009,0.692-0.022
		c1.205,4.357,5.196,7.558,9.937,7.558c4.499,0,8.322-2.882,9.731-6.899c0.122,0.003,0.244,0.01,0.366,0.01
		c7.285,0,13.19-5.906,13.19-13.191S298.062,140.311,290.776,140.311"/>
	<path fill="#AFD64D" d="M162.909,184.755c0,0,13.279-25.651,22.432-25.651c9.152,0,17.768,20.818,28.357,20.818
		c10.588,0,11.664-13.853,19.201-13.657c7.538,0.197,10.255,19.759,74.76,19.759v40.2H161.578L162.909,184.755z"/>
	<path fill="#96BC64" d="M161.578,195.668c63.426,0,67.733-17.301,93.216-17.301c25.485,0,22.434,17.301,55.634,17.301v29.181
		H161.209L161.578,195.668z"/>
	<path fill="#5AAB65" d="M161.443,204.509c0,0,10.258-8.255,27.487-8.255s24.505,14.178,46.889,14.178
		c22.385,0,29.744-16.69,50.023-16.69c20.28,0,24.586,18.125,24.586,18.125v14.357H161.209L161.443,204.509z"/>
	<rect x="167.404" y="220.892" fill="#FFFFFF" width="143.238" height="1.599"/>
	<polygon fill="#E6E6E6" points="310.636,111.675 310.636,222.49 167.404,222.49 167.404,111.675 160.978,111.675 160.978,227.211 
		167.404,227.211 310.636,227.211 310.643,227.211 317.063,227.211 317.063,111.675 	"/>
	<rect x="154.891" y="230.26" fill="#D9DAD9" width="168.618" height="4.139"/>
	<polygon fill="#F9FAFA" points="317.082,227.211 160.991,227.211 154.891,230.26 323.183,230.26 	"/>
	<rect x="167.39" y="118.5" fill="#C3C3C2" width="1.386" height="103.99"/>
	<path fill="#333333" d="M168.775,143.836c0,0.563-0.456,1.018-1.019,1.018c-0.562,0-1.018-0.456-1.018-1.018v-4.768
		c0-0.562,0.456-1.017,1.018-1.017c0.563,0,1.019,0.456,1.019,1.017V143.836z"/>
	<path fill="#333333" d="M168.775,197.32c0,0.562-0.456,1.018-1.019,1.018c-0.562,0-1.018-0.456-1.018-1.018v-4.769
		c0-0.562,0.456-1.018,1.018-1.018c0.563,0,1.019,0.456,1.019,1.018V197.32z"/>
	<polygon fill="#CCCCCC" points="178.682,122.869 178.682,151.227 180.135,151.341 180.135,123.114 	"/>
	<polygon fill="#CCCCCC" points="178.682,153.876 178.682,185.215 180.135,185.184 180.135,153.973 	"/>
	<polygon fill="#CCCCCC" points="178.682,187.971 178.682,216.455 180.135,216.201 180.135,187.911 	"/>
	<polygon fill="#CCCCCC" points="190.157,124.807 190.157,152.135 191.318,152.228 191.318,125.003 	"/>
	<polygon fill="#CCCCCC" points="190.157,154.643 190.157,184.959 191.318,184.934 191.318,154.721 	"/>
	<polygon fill="#CCCCCC" points="190.157,187.488 190.157,214.439 191.318,214.235 191.318,187.441 	"/>
	<path fill="#F2F2F2" d="M168.775,118.5v103.99l36.05-6.972v-90.918L168.775,118.5z M180.135,216.201l-8.932,1.569v-29.484
		l8.932-0.375V216.201z M180.135,185.182l-8.932,0.201v-32.007l8.932,0.597V185.182z M180.135,151.341l-8.932-0.708v-29.027
		l8.932,1.507V151.341z M191.318,214.235l-8.715,1.531v-27.959l8.715-0.366V214.235z M191.318,184.934l-8.715,0.193v-30.989
		l8.715,0.583V184.934z M191.318,152.228l-8.715-0.69v-28.006l8.715,1.472V152.228z M200.541,212.613l-7.19,1.265v-26.523
		l7.19-0.302V212.613z M200.541,184.728l-7.19,0.161v-30.032l7.19,0.48V184.728z M200.541,152.958l-7.19-0.569v-27.042l7.19,1.214
		V152.958z"/>
	<polygon fill="#CCCCCC" points="199.305,126.353 199.305,152.86 200.541,152.958 200.541,126.562 	"/>
	<polygon fill="#CCCCCC" points="199.305,155.255 199.305,184.755 200.541,184.728 200.541,155.337 	"/>
	<polygon fill="#CCCCCC" points="199.305,187.104 199.305,212.832 200.541,212.614 200.541,187.053 	"/>
	<rect x="201.329" y="165.679" fill="#52513D" width="3.405" height="6.5"/>
	<path fill="#A5A170" d="M206.738,169.457c-0.013-0.458-0.071-0.857-0.133-1.151c-0.041-0.156-0.063-0.262-0.113-0.392
		c-0.048-0.128-0.04-0.125-0.044-0.132c-0.011-0.022-0.029-0.038-0.04-0.059c-0.317-0.849-1.127-1.456-2.086-1.456
		c-1.232,0-2.231,0.999-2.231,2.231c0,1.034,0.709,1.897,1.666,2.149c0.069,0.138,0.137,0.287,0.197,0.451
		c0.076,0.175,0.117,0.366,0.181,0.564c0.047,0.199,0.093,0.408,0.129,0.62c0.024,0.213,0.063,0.433,0.073,0.651
		c0.004,0.217,0.022,0.438,0.017,0.652c-0.009,0.216-0.021,0.425-0.029,0.624c-0.023,0.199-0.047,0.389-0.069,0.563
		c-0.034,0.357-0.118,0.644-0.155,0.853c-0.045,0.209-0.07,0.328-0.07,0.328s0.08-0.091,0.221-0.25
		c0.135-0.165,0.356-0.386,0.568-0.691c0.113-0.152,0.233-0.317,0.361-0.492c0.116-0.186,0.238-0.383,0.364-0.585
		c0.124-0.208,0.229-0.436,0.352-0.667c0.119-0.232,0.208-0.482,0.313-0.733c0.092-0.253,0.174-0.515,0.25-0.777
		c0.061-0.266,0.137-0.531,0.172-0.796c0.047-0.265,0.076-0.526,0.091-0.779C206.745,169.93,206.74,169.685,206.738,169.457"/>
	<rect x="309.256" y="118.5" fill="#C3C3C2" width="1.384" height="103.99"/>
	<path fill="#333333" d="M309.256,143.836c0,0.563,0.455,1.018,1.018,1.018s1.019-0.456,1.019-1.018v-4.768
		c0-0.562-0.456-1.017-1.019-1.017s-1.018,0.456-1.018,1.017V143.836z"/>
	<path fill="#333333" d="M309.256,197.32c0,0.562,0.455,1.018,1.018,1.018s1.019-0.456,1.019-1.018v-4.769
		c0-0.562-0.456-1.018-1.019-1.018s-1.018,0.456-1.018,1.018V197.32z"/>
	<polygon fill="#CCCCCC" points="299.347,122.869 299.347,151.227 297.896,151.341 297.896,123.114 	"/>
	<polygon fill="#CCCCCC" points="299.347,153.876 299.347,185.215 297.896,185.184 297.896,153.973 	"/>
	<polygon fill="#CCCCCC" points="299.347,187.971 299.347,216.455 297.896,216.201 297.896,187.911 	"/>
	<polygon fill="#CCCCCC" points="287.874,124.807 287.874,152.135 286.713,152.228 286.713,125.003 	"/>
	<polygon fill="#CCCCCC" points="287.874,154.643 287.874,184.959 286.713,184.934 286.713,154.721 	"/>
	<polygon fill="#CCCCCC" points="287.874,187.488 287.874,214.439 286.713,214.235 286.713,187.441 	"/>
	<path fill="#F2F2F2" d="M273.205,124.601v90.918l36.051,6.972V118.5L273.205,124.601z M297.896,187.911l8.93,0.375v29.484
		l-8.93-1.569V187.911z M297.896,153.973l8.93-0.597v32.007l-8.93-0.201V153.973z M297.896,123.114l8.93-1.507v29.027l-8.93,0.708
		V123.114z M286.713,187.441l8.713,0.366v27.959l-8.713-1.531V187.441z M286.713,154.721l8.713-0.583v30.989l-8.713-0.193V154.721z
		 M286.713,125.003l8.713-1.472v28.006l-8.713,0.69V125.003z M277.489,187.053l7.188,0.302v26.521l-7.188-1.262V187.053z
		 M277.489,155.337l7.188-0.48v30.032l-7.188-0.161V155.337z M277.489,126.562l7.188-1.214v27.041l-7.188,0.57V126.562z"/>
	<polygon fill="#CCCCCC" points="278.724,126.353 278.724,152.86 277.489,152.958 277.489,126.562 	"/>
	<polygon fill="#CCCCCC" points="278.724,155.255 278.724,184.755 277.489,184.728 277.489,155.337 	"/>
	<polygon fill="#CCCCCC" points="278.724,187.104 278.724,212.832 277.489,212.614 277.489,187.053 	"/>
	<rect x="273.297" y="165.679" fill="#52513D" width="3.403" height="6.5"/>
	<path fill="#A5A170" d="M271.291,169.457c0.015-0.458,0.073-0.857,0.135-1.151c0.038-0.156,0.061-0.262,0.111-0.392
		c0.049-0.128,0.042-0.125,0.044-0.132c0.013-0.022,0.029-0.038,0.042-0.059c0.315-0.849,1.127-1.456,2.084-1.456
		c1.232,0,2.231,0.999,2.231,2.231c0,1.034-0.71,1.897-1.665,2.149c-0.069,0.138-0.139,0.287-0.196,0.451
		c-0.077,0.175-0.119,0.366-0.183,0.564c-0.048,0.199-0.091,0.408-0.13,0.62c-0.021,0.213-0.062,0.433-0.07,0.651
		c-0.006,0.217-0.024,0.438-0.019,0.652c0.011,0.216,0.02,0.425,0.029,0.624c0.025,0.199,0.049,0.389,0.069,0.563
		c0.036,0.357,0.118,0.644,0.156,0.853c0.044,0.209,0.069,0.328,0.069,0.328s-0.078-0.091-0.219-0.25
		c-0.135-0.165-0.357-0.386-0.57-0.691c-0.111-0.152-0.233-0.317-0.361-0.492c-0.114-0.186-0.236-0.383-0.364-0.585
		c-0.124-0.208-0.229-0.436-0.351-0.667c-0.118-0.232-0.209-0.482-0.313-0.733c-0.091-0.253-0.175-0.515-0.251-0.777
		c-0.061-0.266-0.137-0.531-0.17-0.796c-0.047-0.265-0.076-0.526-0.093-0.779C271.285,169.93,271.291,169.685,271.291,169.457"/>
	<rect x="160.916" y="111.675" fill="#82817E" width="156.146" height="1.926"/>
	<rect x="160.916" y="113.6" fill="#5D6153" width="156.146" height="0.963"/>
	<rect x="160.916" y="114.563" fill="#616357" width="156.146" height="0.963"/>
	<rect x="160.916" y="117.453" fill="#7C7C75" width="156.146" height="0.963"/>
	<rect x="160.916" y="118.416" fill="#74746D" width="156.146" height="0.963"/>
	<rect x="160.916" y="115.527" fill="#5D6153" width="156.146" height="0.964"/>
	<rect x="160.916" y="116.491" fill="#616357" width="156.146" height="0.962"/>
</g>
<path fill="#39B54A" d="M140.358,249.786c0.303-4.423,0.71-8.84,1.393-13.213c0.183-1.089,0.362-2.181,0.593-3.261
	c0.103-0.544,0.228-1.079,0.358-1.615c0.121-0.539,0.257-1.072,0.417-1.599c0.141-0.534,0.305-1.058,0.492-1.572
	c0.165-0.527,0.384-1.023,0.601-1.525c0.345-0.719,0.726-1.477,1.23-2.06l7.576,9.86l-6.836-11.186l-0.42-0.688l-0.667,0.507
	l-0.865,0.656l-0.668,0.731c-0.231,0.245-0.37,0.507-0.561,0.762c-0.18,0.256-0.364,0.514-0.5,0.777
	c-0.298,0.524-0.602,1.052-0.838,1.588c-0.265,0.532-0.504,1.07-0.716,1.61c-0.229,0.539-0.438,1.081-0.627,1.625
	c-0.201,0.543-0.396,1.088-0.567,1.635c-0.368,1.092-0.682,2.188-1,3.287c-1.219,4.397-2.155,8.827-2.989,13.266
	c-0.061,0.326-0.11,0.654-0.169,0.98h4.733C140.339,250.164,140.345,249.975,140.358,249.786z"/>
<path fill="#8CC63F" d="M127.97,222.747c-0.349,0.157-0.709,0.303-1.093,0.42c-0.204,0.063-0.409,0.111-0.614,0.159
	c1.821,3.056,4.704,10.363,6.141,27.026h1.787C132.801,234.101,130.023,226.363,127.97,222.747z"/>
<polygon fill="#404040" points="91.305,305.362 181.418,305.362 181.418,322 185.554,322 185.554,300.911 87.171,300.911 
	87.171,322 91.305,322 "/>
<polygon fill="#4D4D4D" points="195.225,300.911 195.225,292.292 195.225,292.292 77.5,292.292 77.5,300.911 87.171,300.911 
	185.554,300.911 "/>
<path fill="#666666" d="M180.67,285.798h-32.958c-1.038,1.319-2.387,2.449-3.964,3.311h-14.773
	c-1.577-0.861-2.926-1.991-3.963-3.311H92.054L77.5,292.292h0h117.724L180.67,285.798z"/>
<polygon fill="#4D4D4D" points="91.305,305.362 91.305,322 93.246,322 93.246,306.998 179.478,306.998 179.478,322 181.418,322 
	181.418,305.362 "/>
<polygon fill="#666666" points="93.246,306.998 93.246,322 95.187,322 95.187,308.634 177.538,308.634 177.538,322 179.478,322 
	179.478,306.998 "/>
<path fill="#4D4D4D" d="M95.187,308.634V322h21.653c-0.281-0.559-0.438-1.173-0.438-1.818c0-2.569,2.473-4.653,5.521-4.653
	c1.707,0,3.23,0.652,4.244,1.676h20.39c1.013-1.023,2.537-1.676,4.243-1.676c3.05,0,5.523,2.084,5.523,4.653
	c0,0.646-0.156,1.26-0.438,1.818h21.653v-13.366H95.187z"/>
<path fill="#F2F2F2" d="M150.8,315.528c-1.706,0-3.229,0.652-4.243,1.676h1.336c1.95,0,3.532,1.334,3.532,2.978
	c0,0.688-0.288,1.314-0.753,1.818h5.212c0.281-0.559,0.438-1.173,0.438-1.818C156.323,317.612,153.85,315.528,150.8,315.528z"/>
<path fill="#F2F2F2" d="M124.833,317.204h1.334c-1.013-1.023-2.537-1.676-4.244-1.676c-3.049,0-5.521,2.084-5.521,4.653
	c0,0.646,0.156,1.26,0.438,1.818h5.212c-0.465-0.504-0.753-1.13-0.753-1.818C121.298,318.538,122.881,317.204,124.833,317.204z"/>
<path fill="#666666" d="M147.894,317.204h-1.336h-20.39h-1.334c-1.952,0-3.535,1.334-3.535,2.978c0,0.688,0.288,1.314,0.753,1.818
	h0.102c-0.409-0.476-0.695-1.084-0.8-1.818h30.018c-0.104,0.734-0.39,1.343-0.799,1.818h0.101c0.465-0.504,0.753-1.13,0.753-1.818
	C151.426,318.538,149.843,317.204,147.894,317.204z"/>
<path fill="#404040" d="M121.354,320.182c0.104,0.734,0.391,1.343,0.8,1.818h28.418c0.409-0.476,0.695-1.084,0.799-1.818H121.354z"
	/>
<path fill="#7CBCBF" d="M128.975,289.108h14.773c1.578-0.861,2.927-1.991,3.964-3.311c1.423-1.81,2.257-3.977,2.257-6.311
	c0-4.375-2.909-8.176-7.183-10.108v-16.118h-12.849v16.118c-4.275,1.933-7.183,5.733-7.183,10.108c0,2.334,0.833,4.501,2.256,6.311
	C126.049,287.117,127.398,288.247,128.975,289.108z"/>
<path fill="#488D99" d="M143.551,253.261c0.953,0,1.725-0.65,1.725-1.454c0-0.803-0.772-1.454-1.725-1.454h-3.224h-4.733h-1.403
	h-1.787h-3.231c-0.953,0-1.725,0.651-1.725,1.454c0,0.804,0.772,1.454,1.725,1.454h0.765h12.849H143.551z"/>
<path fill="#C1272D" d="M127.97,222.747c3.498-1.581,5.223-5.078,3.957-8.327l0.005-0.002l-4.896-11.376l-1.123,9.176l-6.672-6.794
	l0.047,8.819l-7.842-6.436l4.897,11.377l0.007-0.002c1.569,3.326,5.862,5.094,9.914,4.144c0.205-0.048,0.41-0.097,0.614-0.159
	C127.26,223.05,127.621,222.904,127.97,222.747z"/>
</svg>
